<svg xmlns="http://www.w3.org/2000/svg" viewBox="0 0 439 380.21"><defs><style>.cls-1{fill:#62717a;}.cls-2{fill:#b3bdc6;}.cls-3{fill:#0f54ef;}.cls-4{fill:#0b3970;}.cls-5{fill:#d63c74;}.cls-6{fill:#fff;}.cls-7{fill:#22dd57;}</style></defs><g id="Layer_2" data-name="Layer 2"><g id="Layer_1-2" data-name="Layer 1"><rect class="cls-1" y="189.72" width="173.01" height="190.49" rx="66.09"/><path class="cls-2" d="M105.45,257.18v11.33a22.4,22.4,0,0,1-22.4,22.4H50.18a23.27,23.27,0,0,1-3.26-.23L39.62,292l-13,2.29,3.55-11.52L31,280a22.23,22.23,0,0,1-3.2-11.52V257.18a22.41,22.41,0,0,1,22.41-22.41H83.05A22.4,22.4,0,0,1,105.45,257.18Z"/><path class="cls-3" d="M75.92,320V331.3a22.4,22.4,0,0,0,22.41,22.4h32.86a23.27,23.27,0,0,0,3.26-.23l7.3,1.28,13,2.29-3.55-11.52-.83-2.69a22.28,22.28,0,0,0,3.19-11.53V320a22.41,22.41,0,0,0-22.41-22.41H98.33A22.41,22.41,0,0,0,75.92,320Z"/><rect class="cls-1" x="284.27" y="101.81" width="154.73" height="190.49" rx="66.09"/><rect class="cls-4" x="111.45" y="13.94" width="198.24" height="223.1" rx="66.09"/><circle class="cls-5" cx="292.11" cy="26.54" r="26.54"/><path class="cls-6" d="M83.87,217.16H81.24a3.42,3.42,0,0,0-.42-1.15,3.1,3.1,0,0,0-.75-.86,3.35,3.35,0,0,0-1-.53,4.06,4.06,0,0,0-1.23-.18,3.78,3.78,0,0,0-2.09.59,3.93,3.93,0,0,0-1.42,1.72,6.65,6.65,0,0,0-.51,2.75,6.75,6.75,0,0,0,.51,2.79,3.84,3.84,0,0,0,1.43,1.7,3.71,3.71,0,0,0,2.07.58,3.93,3.93,0,0,0,1.21-.18,3.2,3.2,0,0,0,1-.51,3,3,0,0,0,.76-.83,3.16,3.16,0,0,0,.44-1.12h2.63a5.63,5.63,0,0,1-.64,1.93A5.75,5.75,0,0,1,82,225.46a6,6,0,0,1-1.84,1.07,7,7,0,0,1-2.35.38,6.54,6.54,0,0,1-3.39-.88A6.16,6.16,0,0,1,72,223.49a8.64,8.64,0,0,1-.86-4,8.44,8.44,0,0,1,.87-4A6.11,6.11,0,0,1,74.39,213a6.47,6.47,0,0,1,3.37-.88,7,7,0,0,1,2.24.34,5.59,5.59,0,0,1,1.85,1A5.28,5.28,0,0,1,83.18,215,6,6,0,0,1,83.87,217.16Z"/><path class="cls-6" d="M88.13,220.38v6.33H85.58V212.3h2.49v5.44h.13a3.18,3.18,0,0,1,1.18-1.45,3.64,3.64,0,0,1,2-.53,4,4,0,0,1,2,.47,3.27,3.27,0,0,1,1.3,1.38,4.86,4.86,0,0,1,.46,2.22v6.88H92.59v-6.49a2.41,2.41,0,0,0-.56-1.7,2,2,0,0,0-1.56-.61,2.41,2.41,0,0,0-1.21.3,2,2,0,0,0-.83.84A2.72,2.72,0,0,0,88.13,220.38Z"/><path class="cls-6" d="M100.27,226.93a4.4,4.4,0,0,1-1.85-.37,3,3,0,0,1-1.3-1.09,3.27,3.27,0,0,1-.47-1.79,3,3,0,0,1,.34-1.51,2.57,2.57,0,0,1,.92-1,4.89,4.89,0,0,1,1.32-.55,12.36,12.36,0,0,1,1.52-.27c.64-.06,1.15-.12,1.54-.18a2.27,2.27,0,0,0,.87-.25.61.61,0,0,0,.27-.54v0a1.6,1.6,0,0,0-.47-1.23,1.9,1.9,0,0,0-1.36-.44,2.41,2.41,0,0,0-1.48.41,2,2,0,0,0-.74,1L97,218.74a4,4,0,0,1,.93-1.65,4.23,4.23,0,0,1,1.58-1,6.24,6.24,0,0,1,2.07-.33,6.92,6.92,0,0,1,1.56.18,4.23,4.23,0,0,1,1.41.6,3.1,3.1,0,0,1,1,1.14,3.75,3.75,0,0,1,.39,1.8v7.23h-2.45v-1.48h-.09a3,3,0,0,1-.65.84,3.19,3.19,0,0,1-1.05.63A4.36,4.36,0,0,1,100.27,226.93Zm.66-1.87a2.7,2.7,0,0,0,1.33-.31,2.27,2.27,0,0,0,.87-.81,2.16,2.16,0,0,0,.31-1.11v-1.27a1.06,1.06,0,0,1-.41.18,4.66,4.66,0,0,1-.64.15l-.69.11-.6.09a4.23,4.23,0,0,0-1,.25,1.7,1.7,0,0,0-.71.49,1.2,1.2,0,0,0-.26.81,1.21,1.21,0,0,0,.51,1.06A2.23,2.23,0,0,0,100.93,225.06Z"/><path class="cls-6" d="M113.37,215.9v2h-6.21v-2Zm-4.68-2.59h2.55v10.15a1.58,1.58,0,0,0,.16.79.8.8,0,0,0,.42.37,1.7,1.7,0,0,0,.57.09,2.94,2.94,0,0,0,.44,0l.31-.06.43,2c-.14,0-.33.1-.58.15a4.61,4.61,0,0,1-.92.1,4.2,4.2,0,0,1-1.73-.29,2.64,2.64,0,0,1-1.21-1,2.9,2.9,0,0,1-.44-1.69Z"/><path class="cls-6" d="M173.15,95.68h3.19l4.28,10.45h.17l4.28-10.45h3.2V110.1h-2.51v-9.9h-.13l-4,9.86h-1.87l-4-9.88h-.14v9.92h-2.5Z"/><path class="cls-6" d="M195.21,110.31a5.43,5.43,0,0,1-2.8-.68,4.53,4.53,0,0,1-1.82-1.93,6.44,6.44,0,0,1-.63-2.94,6.35,6.35,0,0,1,.64-2.93,4.73,4.73,0,0,1,1.78-2,5,5,0,0,1,2.7-.71,5.6,5.6,0,0,1,1.89.32,4.31,4.31,0,0,1,1.58,1,4.77,4.77,0,0,1,1.08,1.7,6.88,6.88,0,0,1,.39,2.45v.78h-8.86v-1.72h6.42a2.78,2.78,0,0,0-.32-1.3,2.35,2.35,0,0,0-.86-.91,2.48,2.48,0,0,0-1.29-.33,2.52,2.52,0,0,0-1.37.38,2.65,2.65,0,0,0-.92,1,2.73,2.73,0,0,0-.33,1.33v1.5a3.45,3.45,0,0,0,.34,1.61,2.36,2.36,0,0,0,1,1,2.81,2.81,0,0,0,1.45.36,3.13,3.13,0,0,0,1-.16,2.24,2.24,0,0,0,.79-.47,2.06,2.06,0,0,0,.5-.77l2.38.27a3.75,3.75,0,0,1-.86,1.64,4.21,4.21,0,0,1-1.61,1.09A6.22,6.22,0,0,1,195.21,110.31Z"/><path class="cls-6" d="M210.15,102.15l-2.33.25a1.89,1.89,0,0,0-.34-.66,1.74,1.74,0,0,0-.65-.5,2.32,2.32,0,0,0-1-.19,2.41,2.41,0,0,0-1.33.34,1,1,0,0,0-.54.9,1,1,0,0,0,.35.76,2.93,2.93,0,0,0,1.18.49l1.85.39a4.85,4.85,0,0,1,2.28,1,2.54,2.54,0,0,1,.76,1.88,3,3,0,0,1-.6,1.8,3.8,3.8,0,0,1-1.63,1.22,6.14,6.14,0,0,1-2.39.43,5.53,5.53,0,0,1-3.2-.83,3.37,3.37,0,0,1-1.44-2.33l2.49-.24a1.76,1.76,0,0,0,.71,1.11,2.51,2.51,0,0,0,1.43.37,2.55,2.55,0,0,0,1.46-.37,1.1,1.1,0,0,0,.56-.92,1,1,0,0,0-.36-.77,2.57,2.57,0,0,0-1.1-.47l-1.85-.38a4.39,4.39,0,0,1-2.3-1.1,2.7,2.7,0,0,1-.74-1.95,2.8,2.8,0,0,1,.55-1.74,3.56,3.56,0,0,1,1.54-1.14,6,6,0,0,1,2.28-.4,5,5,0,0,1,3,.81A3.44,3.44,0,0,1,210.15,102.15Z"/><path class="cls-6" d="M220.45,102.15l-2.32.25a2.08,2.08,0,0,0-.34-.66,1.74,1.74,0,0,0-.65-.5,2.32,2.32,0,0,0-1-.19,2.45,2.45,0,0,0-1.34.34,1,1,0,0,0-.53.9.92.92,0,0,0,.35.76,2.93,2.93,0,0,0,1.18.49l1.84.39a4.84,4.84,0,0,1,2.29,1,2.54,2.54,0,0,1,.76,1.88,3,3,0,0,1-.6,1.8,3.8,3.8,0,0,1-1.63,1.22,6.14,6.14,0,0,1-2.39.43,5.51,5.51,0,0,1-3.2-.83,3.3,3.3,0,0,1-1.44-2.33l2.48-.24a1.82,1.82,0,0,0,.72,1.11,2.49,2.49,0,0,0,1.43.37,2.55,2.55,0,0,0,1.46-.37,1.09,1.09,0,0,0,.55-.92,1,1,0,0,0-.35-.77,2.63,2.63,0,0,0-1.1-.47l-1.85-.38a4.39,4.39,0,0,1-2.3-1.1,2.66,2.66,0,0,1-.74-1.95,2.8,2.8,0,0,1,.55-1.74,3.5,3.5,0,0,1,1.54-1.14,6,6,0,0,1,2.28-.4,5,5,0,0,1,3,.81A3.39,3.39,0,0,1,220.45,102.15Z"/><path class="cls-6" d="M225.33,110.32a4.4,4.4,0,0,1-1.85-.37,3,3,0,0,1-1.3-1.09,3.27,3.27,0,0,1-.47-1.79,3,3,0,0,1,.34-1.52,2.62,2.62,0,0,1,.92-1,4.89,4.89,0,0,1,1.32-.55,12.36,12.36,0,0,1,1.52-.27l1.54-.18a2.27,2.27,0,0,0,.87-.25.61.61,0,0,0,.27-.54v0a1.64,1.64,0,0,0-.47-1.24,2,2,0,0,0-1.36-.43,2.35,2.35,0,0,0-1.48.41,2,2,0,0,0-.74,1l-2.38-.34a4,4,0,0,1,.93-1.65,4.23,4.23,0,0,1,1.58-1,6.24,6.24,0,0,1,2.07-.33,6.92,6.92,0,0,1,1.56.18,4.23,4.23,0,0,1,1.41.6,3.18,3.18,0,0,1,1,1.14,3.75,3.75,0,0,1,.39,1.8v7.23h-2.45v-1.48h-.09a3,3,0,0,1-.65.84,3,3,0,0,1-1,.62A4.12,4.12,0,0,1,225.33,110.32Zm.66-1.87a2.81,2.81,0,0,0,1.33-.31,2.27,2.27,0,0,0,.87-.81,2.16,2.16,0,0,0,.31-1.11V105a1.23,1.23,0,0,1-.41.18,4.66,4.66,0,0,1-.64.15l-.69.11-.6.09a4.23,4.23,0,0,0-1,.25,1.7,1.7,0,0,0-.71.49,1.2,1.2,0,0,0-.26.81,1.22,1.22,0,0,0,.51,1.06A2.23,2.23,0,0,0,226,108.45Z"/><path class="cls-6" d="M237.73,114.34a6.59,6.59,0,0,1-2.35-.37,4.29,4.29,0,0,1-1.59-1,3.44,3.44,0,0,1-.83-1.35l2.3-.56a2.54,2.54,0,0,0,.45.6,2.35,2.35,0,0,0,.79.51,3.36,3.36,0,0,0,1.28.21,2.92,2.92,0,0,0,1.79-.52,2,2,0,0,0,.71-1.68v-2h-.12a4.25,4.25,0,0,1-.58.81,3,3,0,0,1-1,.7A3.87,3.87,0,0,1,237,110a4.39,4.39,0,0,1-2.25-.59,4.12,4.12,0,0,1-1.61-1.76,6.55,6.55,0,0,1-.59-2.94,7,7,0,0,1,.59-3,4.41,4.41,0,0,1,1.61-1.86,4.13,4.13,0,0,1,2.26-.64,3.45,3.45,0,0,1,1.57.32,3.08,3.08,0,0,1,1,.77,4.23,4.23,0,0,1,.56.84h.14V99.29h2.51v11a3.73,3.73,0,0,1-.66,2.26,4,4,0,0,1-1.81,1.35A7.11,7.11,0,0,1,237.73,114.34Zm0-6.39a2.32,2.32,0,0,0,1.38-.4,2.45,2.45,0,0,0,.87-1.13,4.68,4.68,0,0,0,.3-1.77,4.9,4.9,0,0,0-.3-1.79,2.54,2.54,0,0,0-.86-1.19,2.19,2.19,0,0,0-1.39-.43,2.29,2.29,0,0,0-1.42.44,2.76,2.76,0,0,0-.86,1.22,5,5,0,0,0-.28,1.75,4.58,4.58,0,0,0,.29,1.73,2.5,2.5,0,0,0,.86,1.16A2.42,2.42,0,0,0,237.75,108Z"/><path class="cls-6" d="M249.64,110.31a5.49,5.49,0,0,1-2.81-.68A4.51,4.51,0,0,1,245,107.7a7.15,7.15,0,0,1,0-5.87,4.75,4.75,0,0,1,1.79-2,5,5,0,0,1,2.7-.71,5.68,5.68,0,0,1,1.89.32,4.27,4.27,0,0,1,1.57,1,4.51,4.51,0,0,1,1.08,1.7,6.66,6.66,0,0,1,.4,2.45v.78h-8.87v-1.72H252a2.77,2.77,0,0,0-.31-1.3,2.43,2.43,0,0,0-.86-.91,2.67,2.67,0,0,0-2.66.05,2.57,2.57,0,0,0-.92,1,2.73,2.73,0,0,0-.33,1.33v1.5a3.45,3.45,0,0,0,.34,1.61,2.4,2.4,0,0,0,1,1,2.86,2.86,0,0,0,1.45.36,3.19,3.19,0,0,0,1-.16,2.2,2.2,0,0,0,.78-.47,1.94,1.94,0,0,0,.5-.77l2.38.27a3.64,3.64,0,0,1-.85,1.64,4.21,4.21,0,0,1-1.61,1.09A6.22,6.22,0,0,1,249.64,110.31Z"/><path class="cls-6" d="M201,123.08v2h-6.39v-2Zm-4.79,10.81V122.06a3.39,3.39,0,0,1,.45-1.82,2.83,2.83,0,0,1,1.22-1.08,4,4,0,0,1,1.71-.36,5.87,5.87,0,0,1,1.17.1,7.42,7.42,0,0,1,.76.19l-.5,2-.41-.1a3.12,3.12,0,0,0-.55,0,1.23,1.23,0,0,0-1,.34,1.43,1.43,0,0,0-.3,1v11.67Z"/><path class="cls-6" d="M202.39,133.89V123.08h2.47v1.8H205a2.71,2.71,0,0,1,2.67-2l.47,0a3.62,3.62,0,0,1,.44,0v2.35a2.23,2.23,0,0,0-.51-.11,5.12,5.12,0,0,0-.67,0,2.6,2.6,0,0,0-1.25.3,2.17,2.17,0,0,0-.87.83,2.3,2.3,0,0,0-.32,1.21v6.36Z"/><path class="cls-6" d="M213.94,134.1a5.21,5.21,0,0,1-2.75-.7,4.63,4.63,0,0,1-1.79-2,6.28,6.28,0,0,1-.64-2.92,6.37,6.37,0,0,1,.64-2.94,4.72,4.72,0,0,1,1.79-2,5.83,5.83,0,0,1,5.5,0,4.72,4.72,0,0,1,1.79,2,6.37,6.37,0,0,1,.64,2.94,6.28,6.28,0,0,1-.64,2.92,4.63,4.63,0,0,1-1.79,2A5.21,5.21,0,0,1,213.94,134.1Zm0-2a2.18,2.18,0,0,0,1.44-.48,2.84,2.84,0,0,0,.86-1.27,5.33,5.33,0,0,0,.29-1.79,5.39,5.39,0,0,0-.29-1.8,2.82,2.82,0,0,0-.86-1.28A2.18,2.18,0,0,0,214,125a2.23,2.23,0,0,0-1.46.48,2.82,2.82,0,0,0-.86,1.28,5.39,5.39,0,0,0-.29,1.8,5.33,5.33,0,0,0,.29,1.79,2.84,2.84,0,0,0,.86,1.27A2.23,2.23,0,0,0,214,132.06Z"/><path class="cls-6" d="M220.7,133.89V123.08h2.44v1.83h.12a3,3,0,0,1,1.12-1.45,3.28,3.28,0,0,1,1.87-.52,3.09,3.09,0,0,1,1.85.53,2.78,2.78,0,0,1,1.07,1.44h.11a3,3,0,0,1,1.22-1.44,3.79,3.79,0,0,1,2-.53,3.29,3.29,0,0,1,2.43.94,3.73,3.73,0,0,1,.95,2.75v7.26h-2.56V127a1.88,1.88,0,0,0-.53-1.48,2,2,0,0,0-1.31-.47,1.81,1.81,0,0,0-1.44.58,2.12,2.12,0,0,0-.52,1.49v6.74h-2.5v-7a1.72,1.72,0,0,0-1.82-1.84,2,2,0,0,0-1,.28,2.06,2.06,0,0,0-.71.78,2.46,2.46,0,0,0-.27,1.17v6.58Z"/><path class="cls-6" d="M193.48,157.68V143.26H199a6,6,0,0,1,2.6.49,3.5,3.5,0,0,1,1.56,1.33,3.59,3.59,0,0,1,.52,1.92,3,3,0,0,1-.34,1.5,2.86,2.86,0,0,1-.91,1,3.73,3.73,0,0,1-1.27.56v.14a3.1,3.1,0,0,1,1.47.47,3.26,3.26,0,0,1,1.16,1.2,3.65,3.65,0,0,1,.45,1.87,3.78,3.78,0,0,1-.54,2,3.7,3.7,0,0,1-1.63,1.4,6.37,6.37,0,0,1-2.75.52Zm2.62-8.29h2.58a2.83,2.83,0,0,0,1.22-.25,2,2,0,0,0,.85-.71,1.89,1.89,0,0,0,.32-1.09,1.8,1.8,0,0,0-.59-1.38,2.48,2.48,0,0,0-1.74-.54H196.1Zm0,6.11h2.81A3.14,3.14,0,0,0,201,155a1.76,1.76,0,0,0,.63-1.4,2.18,2.18,0,0,0-1.22-2,3,3,0,0,0-1.39-.3H196.1Z"/><path class="cls-6" d="M205.83,157.68V146.87h2.47v1.8h.11a2.72,2.72,0,0,1,1-1.45,2.78,2.78,0,0,1,1.65-.51l.47,0a3.62,3.62,0,0,1,.44.05v2.35a2.23,2.23,0,0,0-.51-.11,5.12,5.12,0,0,0-.67,0,2.6,2.6,0,0,0-1.25.3,2.22,2.22,0,0,0-.87.82,2.36,2.36,0,0,0-.31,1.22v6.36Z"/><path class="cls-6" d="M214.4,145.33a1.48,1.48,0,0,1-1.05-.4,1.33,1.33,0,0,1,0-2,1.51,1.51,0,0,1,1.05-.41,1.44,1.44,0,0,1,1,.41,1.31,1.31,0,0,1,0,2A1.43,1.43,0,0,1,214.4,145.33Zm-1.28,12.35V146.87h2.54v10.81Z"/><path class="cls-6" d="M220.82,157.9a4.56,4.56,0,0,1-1.85-.37,2.89,2.89,0,0,1-1.29-1.1,3.17,3.17,0,0,1-.48-1.79,3,3,0,0,1,.34-1.51,2.57,2.57,0,0,1,.92-1,4.58,4.58,0,0,1,1.32-.54,9.47,9.47,0,0,1,1.52-.27l1.55-.18a2.25,2.25,0,0,0,.86-.26.58.58,0,0,0,.27-.54v0a1.6,1.6,0,0,0-.47-1.23,2,2,0,0,0-1.36-.44,2.43,2.43,0,0,0-1.48.41,2,2,0,0,0-.74,1l-2.38-.34a3.83,3.83,0,0,1,.93-1.65,4,4,0,0,1,1.59-1,6.15,6.15,0,0,1,2.07-.34,6.85,6.85,0,0,1,1.55.19,4.38,4.38,0,0,1,1.42.6,3.16,3.16,0,0,1,1,1.14,3.7,3.7,0,0,1,.39,1.79v7.24h-2.45v-1.49H224a3,3,0,0,1-.65.84,3.19,3.19,0,0,1-1.05.63A4.12,4.12,0,0,1,220.82,157.9Zm.66-1.88a2.78,2.78,0,0,0,1.33-.3,2.22,2.22,0,0,0,.87-.82,2.1,2.1,0,0,0,.31-1.1v-1.28a1.21,1.21,0,0,1-.41.19l-.63.15-.7.11-.6.08a4.23,4.23,0,0,0-1,.26,1.62,1.62,0,0,0-.71.49,1.15,1.15,0,0,0-.26.8,1.21,1.21,0,0,0,.51,1.06A2.23,2.23,0,0,0,221.48,156Z"/><path class="cls-6" d="M231.07,151.34v6.34h-2.55V146.87H231v1.83h.12a3.12,3.12,0,0,1,1.2-1.44,3.59,3.59,0,0,1,2-.54,3.84,3.84,0,0,1,1.95.48,3.24,3.24,0,0,1,1.3,1.39,4.67,4.67,0,0,1,.45,2.2v6.89h-2.55v-6.49a2.41,2.41,0,0,0-.56-1.7,2,2,0,0,0-1.54-.61,2.44,2.44,0,0,0-1.19.29,2.18,2.18,0,0,0-.81.84A2.87,2.87,0,0,0,231.07,151.34Z"/><polygon class="cls-7" points="361.63 148.85 373.47 169.36 385.31 189.87 361.63 189.87 337.95 189.87 349.79 169.36 361.63 148.85"/><path class="cls-6" d="M329.89,237.3v-1.88l5-4.91q.72-.72,1.2-1.29a4.86,4.86,0,0,0,.72-1.09A2.85,2.85,0,0,0,337,227a2.21,2.21,0,0,0-.3-1.17,2.12,2.12,0,0,0-.86-.76,2.85,2.85,0,0,0-1.23-.26,2.47,2.47,0,0,0-1.24.29,2,2,0,0,0-.83.83,2.54,2.54,0,0,0-.29,1.27H329.8a4.46,4.46,0,0,1,.63-2.39,4.24,4.24,0,0,1,1.73-1.57,5.51,5.51,0,0,1,2.53-.55,5.76,5.76,0,0,1,2.55.54,4.13,4.13,0,0,1,1.7,1.49,3.81,3.81,0,0,1,.61,2.15,4.21,4.21,0,0,1-.31,1.59,6.55,6.55,0,0,1-1.09,1.73,26.26,26.26,0,0,1-2.18,2.3L333.49,235v.1h6.28v2.18Z"/><path class="cls-6" d="M341.63,237.3v-1.88l5-4.91q.72-.72,1.2-1.29a4.86,4.86,0,0,0,.72-1.09,2.7,2.7,0,0,0,.24-1.13,2.13,2.13,0,0,0-.31-1.17,2.16,2.16,0,0,0-.85-.76,2.85,2.85,0,0,0-1.23-.26,2.51,2.51,0,0,0-1.25.29,2,2,0,0,0-.83.83,2.65,2.65,0,0,0-.29,1.27h-2.49a4.46,4.46,0,0,1,.63-2.39,4.31,4.31,0,0,1,1.73-1.57,5.54,5.54,0,0,1,2.53-.55,5.7,5.7,0,0,1,2.55.54,4.22,4.22,0,0,1,1.71,1.49,3.89,3.89,0,0,1,.6,2.15,4.4,4.4,0,0,1-.3,1.59,6.82,6.82,0,0,1-1.09,1.73,27.87,27.87,0,0,1-2.18,2.3L345.23,235v.1h6.28v2.18Z"/><path class="cls-6" d="M356.39,235.33l-.09.78a10.78,10.78,0,0,1-.35,1.8c-.16.61-.34,1.18-.52,1.69s-.33.93-.44,1.22h-1.72q.09-.42.27-1.17c.11-.49.23-1,.33-1.66a16.46,16.46,0,0,0,.22-1.87l.05-.79Z"/><path class="cls-6" d="M363.34,237.5a6.52,6.52,0,0,1-2.69-.52,4.57,4.57,0,0,1-1.87-1.45,3.82,3.82,0,0,1-.72-2.15h2.65a1.75,1.75,0,0,0,.38,1,2.34,2.34,0,0,0,.94.67,3.4,3.4,0,0,0,1.31.24,3.32,3.32,0,0,0,1.37-.27,2.22,2.22,0,0,0,.94-.76,1.92,1.92,0,0,0,.33-1.12,2,2,0,0,0-.34-1.15,2.14,2.14,0,0,0-1-.78,3.85,3.85,0,0,0-1.56-.28H361.8v-2h1.28a3.2,3.2,0,0,0,1.32-.26,2.14,2.14,0,0,0,.89-.73,1.9,1.9,0,0,0,.31-1.11,1.87,1.87,0,0,0-1.05-1.77,2.57,2.57,0,0,0-1.18-.25,3.05,3.05,0,0,0-1.22.24,2.17,2.17,0,0,0-.91.68,1.77,1.77,0,0,0-.37,1h-2.51a3.65,3.65,0,0,1,.7-2.13,4.5,4.5,0,0,1,1.8-1.43,5.9,5.9,0,0,1,2.53-.52,5.49,5.49,0,0,1,2.51.54,4.16,4.16,0,0,1,1.65,1.44,3.65,3.65,0,0,1,.58,2,2.94,2.94,0,0,1-.71,2,3.39,3.39,0,0,1-1.89,1.08v.11a3.66,3.66,0,0,1,2.33,1.12,3.31,3.31,0,0,1,.81,2.27,3.59,3.59,0,0,1-.69,2.16,4.58,4.58,0,0,1-1.89,1.5A6.62,6.62,0,0,1,363.34,237.5Z"/><path class="cls-6" d="M370.25,234.63v-2.08l6.12-9.67h1.73v3h-1.05l-4.12,6.53v.11h8.54v2.15Zm6.88,2.67V234l0-.93V222.88h2.46V237.3Z"/><path class="cls-6" d="M388.26,237.5a7,7,0,0,1-2.78-.53,4.53,4.53,0,0,1-1.9-1.45,3.29,3.29,0,0,1-.68-2.08,3.48,3.48,0,0,1,.39-1.67,3.71,3.71,0,0,1,1.09-1.27,3.47,3.47,0,0,1,1.53-.65v-.1a3,3,0,0,1-1.8-1.14,3.47,3.47,0,0,1-.06-4,4.32,4.32,0,0,1,1.72-1.38,6.43,6.43,0,0,1,5,0,4.46,4.46,0,0,1,1.72,1.38,3.44,3.44,0,0,1-.07,4,3.06,3.06,0,0,1-1.78,1.14v.1a3.39,3.39,0,0,1,1.52.65,3.68,3.68,0,0,1,1.08,1.27,3.5,3.5,0,0,1,.41,1.67,3.36,3.36,0,0,1-.69,2.08A4.53,4.53,0,0,1,391,237,6.88,6.88,0,0,1,388.26,237.5Zm0-2a3.41,3.41,0,0,0,1.41-.28,2.19,2.19,0,0,0,.93-.79,2.15,2.15,0,0,0,.34-1.17,2.3,2.3,0,0,0-.36-1.22,2.4,2.4,0,0,0-.95-.83,3,3,0,0,0-1.37-.3,3.11,3.11,0,0,0-1.38.3,2.4,2.4,0,0,0-.95.83,2.12,2.12,0,0,0-.34,1.22,2,2,0,0,0,.32,1.17,2.1,2.1,0,0,0,.93.78A3.33,3.33,0,0,0,388.26,235.49Zm0-6.57a2.46,2.46,0,0,0,1.17-.27,2.09,2.09,0,0,0,.81-.75,2,2,0,0,0,.3-1.1,2.06,2.06,0,0,0-.29-1.09,1.93,1.93,0,0,0-.8-.72,2.54,2.54,0,0,0-1.19-.26,2.58,2.58,0,0,0-1.2.26,1.93,1.93,0,0,0-.8.72,2.06,2.06,0,0,0-.28,1.09,2,2,0,0,0,.29,1.1,2,2,0,0,0,.81.75A2.5,2.5,0,0,0,388.26,228.92Z"/><path class="cls-6" d="M333,256.54v-6.26h2.55v10.81H333v-1.92h-.11a3.28,3.28,0,0,1-1.21,1.48,3.47,3.47,0,0,1-2,.58,3.68,3.68,0,0,1-1.87-.47,3.18,3.18,0,0,1-1.27-1.39,4.81,4.81,0,0,1-.46-2.21v-6.88h2.55v6.49a2.28,2.28,0,0,0,.56,1.63,1.94,1.94,0,0,0,1.48.61,2.27,2.27,0,0,0,1.09-.28,2.2,2.2,0,0,0,.87-.82A2.51,2.51,0,0,0,333,256.54Z"/><path class="cls-6" d="M337.54,265.14V250.28h2.51v1.79h.15a4.49,4.49,0,0,1,.55-.85,3.15,3.15,0,0,1,1-.76,3.3,3.3,0,0,1,1.57-.32,4.18,4.18,0,0,1,2.26.63,4.47,4.47,0,0,1,1.61,1.88,7.15,7.15,0,0,1,.59,3,7.07,7.07,0,0,1-.58,3,4.45,4.45,0,0,1-1.59,1.91,4.19,4.19,0,0,1-2.29.65,3.35,3.35,0,0,1-1.54-.31,3.18,3.18,0,0,1-1-.75,4.12,4.12,0,0,1-.57-.83h-.11v5.75Zm2.5-9.46a5.14,5.14,0,0,0,.3,1.84,2.7,2.7,0,0,0,.87,1.23,2.16,2.16,0,0,0,1.37.44,2.21,2.21,0,0,0,1.42-.45,2.78,2.78,0,0,0,.86-1.25,5.33,5.33,0,0,0,.29-1.81,4.92,4.92,0,0,0-.29-1.78,2.59,2.59,0,0,0-.86-1.23,2.27,2.27,0,0,0-1.42-.44,2.2,2.2,0,0,0-1.38.43,2.6,2.6,0,0,0-.87,1.2A5.26,5.26,0,0,0,340,255.68Z"/><path class="cls-6" d="M358.64,250.28l-3.85,10.81H352l-3.85-10.81h2.72l2.48,8h.11l2.5-8Z"/><path class="cls-6" d="M364.16,261.3a5.17,5.17,0,0,1-2.74-.7,4.59,4.59,0,0,1-1.8-2,6.28,6.28,0,0,1-.64-2.92,6.37,6.37,0,0,1,.64-2.94,4.68,4.68,0,0,1,1.8-2,5.81,5.81,0,0,1,5.49,0,4.81,4.81,0,0,1,1.8,2,6.5,6.5,0,0,1,.63,2.94,6.41,6.41,0,0,1-.63,2.92,4.72,4.72,0,0,1-1.8,2A5.21,5.21,0,0,1,364.16,261.3Zm0-2a2.15,2.15,0,0,0,1.43-.48,2.78,2.78,0,0,0,.87-1.27,5.34,5.34,0,0,0,.28-1.79,5.4,5.4,0,0,0-.28-1.8,2.76,2.76,0,0,0-.87-1.28,2.15,2.15,0,0,0-1.43-.48,2.19,2.19,0,0,0-1.46.48,2.76,2.76,0,0,0-.87,1.28,5.4,5.4,0,0,0-.28,1.8,5.34,5.34,0,0,0,.28,1.79,2.78,2.78,0,0,0,.87,1.27A2.19,2.19,0,0,0,364.18,259.26Z"/><path class="cls-6" d="M376.32,250.28v2h-6.21v-2Zm-4.68-2.59h2.55v10.15a1.51,1.51,0,0,0,.16.78.76.76,0,0,0,.42.37,1.48,1.48,0,0,0,.57.1,2.94,2.94,0,0,0,.44,0l.31-.07.43,2c-.14,0-.33.1-.58.16a4.61,4.61,0,0,1-.92.1,4.12,4.12,0,0,1-1.72-.29,2.67,2.67,0,0,1-1.22-1,3,3,0,0,1-.44-1.69Z"/><path class="cls-6" d="M382.56,261.3a5.57,5.57,0,0,1-2.81-.68,4.45,4.45,0,0,1-1.81-1.93,6.31,6.31,0,0,1-.64-2.94,6.53,6.53,0,0,1,.64-2.94,4.88,4.88,0,0,1,1.79-2,5,5,0,0,1,2.69-.7,5.36,5.36,0,0,1,1.89.32,4.22,4.22,0,0,1,1.58,1,4.51,4.51,0,0,1,1.08,1.7,6.88,6.88,0,0,1,.39,2.45v.78H378.5v-1.72h6.42a2.64,2.64,0,0,0-.32-1.3,2.22,2.22,0,0,0-.86-.91,2.46,2.46,0,0,0-1.28-.33,2.55,2.55,0,0,0-1.38.38,2.59,2.59,0,0,0-.91,1,2.9,2.9,0,0,0-.34,1.34v1.5a3.48,3.48,0,0,0,.35,1.61,2.46,2.46,0,0,0,1,1,2.84,2.84,0,0,0,1.45.36,3.19,3.19,0,0,0,1-.16,2.2,2.2,0,0,0,.78-.47,1.94,1.94,0,0,0,.5-.77l2.38.27a3.65,3.65,0,0,1-.86,1.64,4.14,4.14,0,0,1-1.61,1.09A6.17,6.17,0,0,1,382.56,261.3Z"/><path class="cls-6" d="M397.49,253.13l-2.32.26a1.89,1.89,0,0,0-.34-.66,1.68,1.68,0,0,0-.66-.5,2.29,2.29,0,0,0-1-.19,2.41,2.41,0,0,0-1.33.34,1,1,0,0,0-.53.9.89.89,0,0,0,.35.76,2.87,2.87,0,0,0,1.18.49l1.84.39A4.66,4.66,0,0,1,397,256a2.5,2.5,0,0,1,.76,1.88,2.92,2.92,0,0,1-.59,1.8,3.9,3.9,0,0,1-1.63,1.21,6,6,0,0,1-2.4.44,5.55,5.55,0,0,1-3.19-.83,3.37,3.37,0,0,1-1.45-2.33l2.49-.24a1.74,1.74,0,0,0,.72,1.11,2.47,2.47,0,0,0,1.43.37,2.57,2.57,0,0,0,1.46-.37,1.09,1.09,0,0,0,.55-.93.94.94,0,0,0-.36-.76,2.52,2.52,0,0,0-1.1-.47l-1.84-.38a4.39,4.39,0,0,1-2.3-1.1,2.62,2.62,0,0,1-.74-2,2.73,2.73,0,0,1,.54-1.74,3.62,3.62,0,0,1,1.54-1.14,6,6,0,0,1,2.29-.4,4.91,4.91,0,0,1,3,.81A3.41,3.41,0,0,1,397.49,253.13Z"/></g></g></svg>