<svg xmlns="http://www.w3.org/2000/svg" viewBox="0 0 101.16 97.85"><defs><style>.cls-1{fill:#4fd1d9;}.cls-2{fill:#fff;}.cls-3{fill:#0f54ef;}</style></defs><g id="Layer_2" data-name="Layer 2"><g id="Layer_1-2" data-name="Layer 1"><path class="cls-1" d="M59.74,5.88H21.26a5.46,5.46,0,0,0-5.39,5.53V36.72a5.46,5.46,0,0,0,5.39,5.53h5.68v9.49l8.53-9.49H59.74a5.46,5.46,0,0,0,5.39-5.53V11.41A5.46,5.46,0,0,0,59.74,5.88Z" transform="translate(0 -5.88)"/><ellipse class="cls-2" cx="27.35" cy="18.15" rx="3.46" ry="3.58"/><ellipse class="cls-2" cx="40.5" cy="18.15" rx="3.46" ry="3.58"/><ellipse class="cls-2" cx="53.65" cy="18.15" rx="3.46" ry="3.58"/><rect class="cls-3" y="86.71" width="101.16" height="11.14"/><path class="cls-2" d="M13.55,96.1H7.66V78.74h6a9,9,0,0,1,4.44,1,7,7,0,0,1,2.86,3,11.33,11.33,0,0,1,0,9.31,7,7,0,0,1-2.89,3A9.19,9.19,0,0,1,13.55,96.1Zm-2.74-2.72h2.58a6.29,6.29,0,0,0,3-.66,4.2,4.2,0,0,0,1.82-2,7.91,7.91,0,0,0,.61-3.32,7.83,7.83,0,0,0-.61-3.31,4.14,4.14,0,0,0-1.8-2,6,6,0,0,0-3-.66H10.81Z" transform="translate(0 -5.88)"/><path class="cls-2" d="M25.67,81.24a1.81,1.81,0,0,1-1.26-.49,1.59,1.59,0,0,1-.52-1.18,1.57,1.57,0,0,1,.53-1.18,1.8,1.8,0,0,1,1.25-.49,1.77,1.77,0,0,1,1.25.49,1.6,1.6,0,0,1,0,2.36A1.77,1.77,0,0,1,25.67,81.24ZM24.13,96.1v-13H27.2v13Z" transform="translate(0 -5.88)"/><path class="cls-2" d="M40,86.53l-2.8.3a2.26,2.26,0,0,0-.41-.8,2.09,2.09,0,0,0-.78-.6,3.27,3.27,0,0,0-2.81.19,1.21,1.21,0,0,0-.64,1.08,1.1,1.1,0,0,0,.42.92,3.42,3.42,0,0,0,1.42.58l2.22.48a5.64,5.64,0,0,1,2.75,1.26,3,3,0,0,1,.91,2.27,3.45,3.45,0,0,1-.72,2.16,4.55,4.55,0,0,1-2,1.46,7.4,7.4,0,0,1-2.88.53,6.67,6.67,0,0,1-3.85-1,4,4,0,0,1-1.74-2.8l3-.29a2.1,2.1,0,0,0,.86,1.34,3.07,3.07,0,0,0,1.72.44,3.16,3.16,0,0,0,1.76-.44,1.33,1.33,0,0,0,.67-1.12,1.17,1.17,0,0,0-.43-.92A3.12,3.12,0,0,0,35.33,91l-2.22-.46a5.25,5.25,0,0,1-2.77-1.32,3.21,3.21,0,0,1-.89-2.36,3.36,3.36,0,0,1,.65-2.09A4.4,4.4,0,0,1,32,83.4a7.33,7.33,0,0,1,2.75-.49,6,6,0,0,1,3.61,1A4.1,4.1,0,0,1,40,86.53Z" transform="translate(0 -5.88)"/><path class="cls-2" d="M47.75,96.36a6.26,6.26,0,0,1-3.34-.86,5.67,5.67,0,0,1-2.15-2.37,7.76,7.76,0,0,1-.75-3.49,7.67,7.67,0,0,1,.77-3.5,5.62,5.62,0,0,1,2.15-2.37,6.2,6.2,0,0,1,3.31-.86,6.48,6.48,0,0,1,2.81.59,4.74,4.74,0,0,1,2.78,4.09H50.4A2.83,2.83,0,0,0,49.55,86a2.46,2.46,0,0,0-1.77-.63,2.86,2.86,0,0,0-1.66.5A3.28,3.28,0,0,0,45,87.34a5.88,5.88,0,0,0-.4,2.25A6.06,6.06,0,0,0,45,91.88a3.31,3.31,0,0,0,1.1,1.46,2.72,2.72,0,0,0,1.67.52A2.76,2.76,0,0,0,49,93.6a2.43,2.43,0,0,0,.91-.75,3,3,0,0,0,.5-1.2h2.93a5,5,0,0,1-.81,2.45,4.78,4.78,0,0,1-1.92,1.66A6.37,6.37,0,0,1,47.75,96.36Z" transform="translate(0 -5.88)"/><path class="cls-2" d="M63.46,90.63V83.08h3.07v13h-3V93.79h-.14A3.93,3.93,0,0,1,62,95.58a4.29,4.29,0,0,1-2.48.69,4.38,4.38,0,0,1-2.25-.57A3.82,3.82,0,0,1,55.72,94a5.84,5.84,0,0,1-.56-2.66V83.08h3.07V90.9a2.81,2.81,0,0,0,.68,2,2.34,2.34,0,0,0,1.78.73A2.76,2.76,0,0,0,62,93.26a2.71,2.71,0,0,0,1-1A3,3,0,0,0,63.46,90.63Z" transform="translate(0 -5.88)"/><path class="cls-2" d="M79.28,86.53l-2.79.3a2.43,2.43,0,0,0-.41-.8,2.21,2.21,0,0,0-.79-.6,3.27,3.27,0,0,0-2.81.19,1.23,1.23,0,0,0-.64,1.08,1.16,1.16,0,0,0,.42.92,3.48,3.48,0,0,0,1.42.58l2.22.48a5.64,5.64,0,0,1,2.75,1.26,3,3,0,0,1,.91,2.27,3.5,3.5,0,0,1-.71,2.16,4.61,4.61,0,0,1-2,1.46,7.45,7.45,0,0,1-2.89.53,6.69,6.69,0,0,1-3.85-1,4,4,0,0,1-1.73-2.8l3-.29a2.1,2.1,0,0,0,.86,1.34A3.09,3.09,0,0,0,74,94a3.16,3.16,0,0,0,1.76-.44,1.31,1.31,0,0,0,.67-1.12,1.14,1.14,0,0,0-.43-.92A3.07,3.07,0,0,0,74.66,91l-2.22-.46a5.25,5.25,0,0,1-2.77-1.32,3.25,3.25,0,0,1-.89-2.36,3.36,3.36,0,0,1,.66-2.09,4.31,4.31,0,0,1,1.85-1.37,7.39,7.39,0,0,1,2.76-.49,5.94,5.94,0,0,1,3.6,1A4.07,4.07,0,0,1,79.28,86.53Z" transform="translate(0 -5.88)"/><path class="cls-2" d="M91.7,86.53l-2.8.3a2.43,2.43,0,0,0-.41-.8,2.26,2.26,0,0,0-.78-.6,3.3,3.3,0,0,0-2.82.19,1.23,1.23,0,0,0-.64,1.08,1.16,1.16,0,0,0,.42.92,3.48,3.48,0,0,0,1.42.58l2.23.48a5.69,5.69,0,0,1,2.75,1.26A3,3,0,0,1,92,92.21a3.57,3.57,0,0,1-.72,2.16,4.61,4.61,0,0,1-2,1.46,7.43,7.43,0,0,1-2.88.53,6.64,6.64,0,0,1-3.85-1,4,4,0,0,1-1.74-2.8l3-.29a2.15,2.15,0,0,0,.87,1.34,3.07,3.07,0,0,0,1.72.44,3.19,3.19,0,0,0,1.76-.44,1.32,1.32,0,0,0,.66-1.12,1.14,1.14,0,0,0-.43-.92A3,3,0,0,0,87.08,91l-2.22-.46a5.28,5.28,0,0,1-2.78-1.32,3.29,3.29,0,0,1-.89-2.36,3.43,3.43,0,0,1,.66-2.09,4.28,4.28,0,0,1,1.86-1.37,7.3,7.3,0,0,1,2.75-.49,6,6,0,0,1,3.61,1A4.15,4.15,0,0,1,91.7,86.53Z" transform="translate(0 -5.88)"/></g></g></svg>