<svg xmlns="http://www.w3.org/2000/svg" viewBox="0 0 450 387.21"><defs><style>.cls-1{fill:#62717a;}.cls-2{fill:#b3bdc6;}.cls-3{fill:#0f54ef;}.cls-4{fill:#0b3970;}.cls-5{fill:#d63c74;}.cls-6,.cls-7{font-size:19.82px;fill:#fff;font-family:Inter-SemiBold, Inter;font-weight:600;}.cls-6,.cls-9{letter-spacing:-0.03em;}.cls-12,.cls-7{letter-spacing:-0.03em;}.cls-8{letter-spacing:-0.05em;}.cls-10{fill:#22dd57;}.cls-11{letter-spacing:-0.05em;}.cls-13{letter-spacing:-0.05em;}.cls-14{letter-spacing:-0.03em;}</style></defs><g id="Layer_2" data-name="Layer 2"><g id="Layer_1-2" data-name="Layer 1"><rect class="cls-1" y="196.72" width="173.01" height="190.49" rx="66.09"/><path class="cls-2" d="M105.45,264.18v11.33a22.4,22.4,0,0,1-22.4,22.4H50.18a23.27,23.27,0,0,1-3.26-.23L39.62,299l-13,2.29,3.55-11.52L31,287a22.23,22.23,0,0,1-3.2-11.52V264.18a22.41,22.41,0,0,1,22.41-22.41H83.05A22.4,22.4,0,0,1,105.45,264.18Z"/><path class="cls-3" d="M75.92,327V338.3a22.4,22.4,0,0,0,22.41,22.4h32.86a23.27,23.27,0,0,0,3.26-.23l7.3,1.28,13,2.29-3.55-11.52-.83-2.69a22.28,22.28,0,0,0,3.19-11.53V327a22.41,22.41,0,0,0-22.41-22.41H98.33A22.41,22.41,0,0,0,75.92,327Z"/><rect class="cls-1" x="295.27" y="101.81" width="154.73" height="190.49" rx="66.09"/><rect class="cls-4" x="122.45" y="13.94" width="198.24" height="223.1" rx="66.09"/><circle class="cls-5" cx="303.11" cy="26.54" r="26.54"/><text class="cls-6" transform="translate(64.11 226.71)">Chat</text><text class="cls-7" transform="translate(182.73 110.1)">Message <tspan x="22.45" y="23.79">f</tspan><tspan class="cls-8" x="29.35" y="23.79">r</tspan><tspan x="36.19" y="23.79">om</tspan><tspan class="cls-9"><tspan x="20.34" y="47.58">Brian</tspan></tspan></text><polygon class="cls-10" points="372.63 148.85 384.47 169.36 396.31 189.87 372.63 189.87 348.95 189.87 360.79 169.36 372.63 148.85"/><text class="cls-6" transform="translate(339.6 237.3)">22<tspan class="cls-11" x="23.49" y="0">,</tspan><tspan x="28.29" y="0">348</tspan><tspan class="cls-12"><tspan x="-3.86" y="23.79">u</tspan><tspan class="cls-13" x="7.63" y="23.79">pv</tspan><tspan class="cls-9" x="29.53" y="23.79">o</tspan><tspan class="cls-14" x="41.01" y="23.79">t</tspan><tspan x="47.85" y="23.79">es</tspan></tspan></text></g></g></svg>