<svg xmlns="http://www.w3.org/2000/svg" viewBox="0 0 133.79 28.95"><defs><style>.cls-1{fill:#3e4b54;}</style></defs><g id="Layer_2" data-name="Layer 2"><g id="Layer_1-2" data-name="Layer 1"><path class="cls-1" d="M55.06,8.08l-.89,5.21H50.48l-1.22,7.27a10.36,10.36,0,0,0-.19,1.36c0,1,.64,1.49,1.9,1.49a9.13,9.13,0,0,0,1.93-.24L52,28.48a20.13,20.13,0,0,1-4.18.47,8.27,8.27,0,0,1-3.69-.63,5.16,5.16,0,0,1-2-1.78,5.36,5.36,0,0,1-.76-3,21.93,21.93,0,0,1,.36-3L43,13.29h-2.8l.87-5.21h2.81L45,2l7.4-.15-1,6.19Z"/><path class="cls-1" d="M56.91,8.08h6.8L62.9,13Q65,7.47,69.39,7.47a7.13,7.13,0,0,1,1,.1l-.9,7.28c-.71,0-1.17-.07-1.4-.07A5.07,5.07,0,0,0,64.33,16a7.65,7.65,0,0,0-1.68,4.18l-1.39,8.33H53.5Z"/><path class="cls-1" d="M89.25,28.48h-8c0-.39-.06-.7-.06-.95a23.28,23.28,0,0,1,.15-2.43A7.54,7.54,0,0,1,74.64,29a6.63,6.63,0,0,1-4.71-1.68,5.51,5.51,0,0,1-1.8-4.2,6.51,6.51,0,0,1,1-3.45,7,7,0,0,1,2.75-2.49,11.62,11.62,0,0,1,3.63-1.22q1.86-.3,7.27-.8A4,4,0,0,0,83,13.94c0-1.12-.79-1.68-2.35-1.68a3.57,3.57,0,0,0-3.39,2.28l-6.65-1.35q2.52-5.68,11.11-5.68A13.1,13.1,0,0,1,88.56,9a4.86,4.86,0,0,1,2.49,4.43q0,1.32-1.46,9.3a28,28,0,0,0-.54,3.94A8.81,8.81,0,0,0,89.25,28.48Zm-7.19-9.69q-5.57.42-5.56,3.55c0,1.15.6,1.72,1.8,1.72a3.48,3.48,0,0,0,2.3-1C81.36,22.34,81.85,20.93,82.06,18.79Z"/><path class="cls-1" d="M103,8.08l-3.42,20.4H91.68L95.1,8.08ZM104.34.26l-1,6H95.41l1-6Z"/><path class="cls-1" d="M115,.91l-4.6,27.57h-7.76L107.25.91Z"/><path class="cls-1" d="M133.79,12.81l-6,1.31q-.69-2-3.78-2c-1.44,0-2.16.4-2.16,1.21s.69,1.19,2.08,1.44a23.91,23.91,0,0,1,6,1.59,6.52,6.52,0,0,1,2.62,2.22,5.47,5.47,0,0,1,.88,3,6.47,6.47,0,0,1-2.58,5.18c-1.72,1.4-4.33,2.11-7.83,2.11a14.39,14.39,0,0,1-6.8-1.53,6.73,6.73,0,0,1-3.62-4.57L119,21.9c.5,1.46,1.93,2.2,4.29,2.2a4.06,4.06,0,0,0,2-.4,1.09,1.09,0,0,0,.66-.89.76.76,0,0,0-.44-.72,12,12,0,0,0-2.24-.64,33.64,33.64,0,0,1-5.1-1.45,6.21,6.21,0,0,1-2.57-2,5.16,5.16,0,0,1-1.06-3.23A6.36,6.36,0,0,1,117,9.59a10.41,10.41,0,0,1,6.73-2,13.62,13.62,0,0,1,6.59,1.49A6.72,6.72,0,0,1,133.79,12.81Z"/><path class="cls-1" d="M0,20.34S15.77,17.15,19.15,9.17C22.37,1.57,22.94,0,37.26,0L9.87,23.21A2.67,2.67,0,0,1,7,23.59Z"/></g></g></svg>