<svg xmlns="http://www.w3.org/2000/svg" viewBox="0 0 94.9 20.53"><defs><style>.cls-1{fill:#0f54ef;}</style></defs><g id="Layer_2" data-name="Layer 2"><g id="Layer_1-2" data-name="Layer 1"><path class="cls-1" d="M39.06,5.73l-.64,3.7H35.81l-.87,5.16a7,7,0,0,0-.13,1c0,.7.45,1.06,1.35,1.06a6.63,6.63,0,0,0,1.36-.17l-.63,3.76a14.2,14.2,0,0,1-3,.33,5.86,5.86,0,0,1-2.62-.44,3.74,3.74,0,0,1-1.39-1.26,3.85,3.85,0,0,1-.54-2.15,15.79,15.79,0,0,1,.26-2.09l.86-5.16h-2l.61-3.7h2l.8-4.28,5.25-.1-.74,4.38Z"/><path class="cls-1" d="M40.37,5.73h4.82l-.58,3.49q1.52-3.92,4.61-3.92a4.09,4.09,0,0,1,.68.07l-.65,5.16c-.49,0-.82,0-1,0a3.6,3.6,0,0,0-2.63.84,5.44,5.44,0,0,0-1.19,3l-1,5.9H38Z"/><path class="cls-1" d="M63.31,20.2H57.64a6.18,6.18,0,0,1,0-.67,16.73,16.73,0,0,1,.1-1.73A5.32,5.32,0,0,1,53,20.53a4.7,4.7,0,0,1-3.34-1.18,3.93,3.93,0,0,1-1.28-3A4.55,4.55,0,0,1,49,13.92,4.93,4.93,0,0,1,51,12.15a8.41,8.41,0,0,1,2.57-.87c.88-.13,2.6-.32,5.16-.56a2.83,2.83,0,0,0,.18-.83c0-.8-.55-1.19-1.66-1.19a2.53,2.53,0,0,0-2.41,1.62l-4.72-1q1.8-4,7.89-4A9.36,9.36,0,0,1,62.82,6.4a3.46,3.46,0,0,1,1.76,3.14,66.47,66.47,0,0,1-1,6.6,19.42,19.42,0,0,0-.39,2.79A6.21,6.21,0,0,0,63.31,20.2Zm-5.1-6.87q-3.94.3-4,2.52c0,.81.43,1.22,1.28,1.22a2.49,2.49,0,0,0,1.63-.73A4.75,4.75,0,0,0,58.21,13.33Z"/><path class="cls-1" d="M73.08,5.73,70.66,20.2H65L67.46,5.73ZM74,.18,73.3,4.44H67.68L68.39.18Z"/><path class="cls-1" d="M81.59.64,78.32,20.2H72.81L76.08.64Z"/><path class="cls-1" d="M94.9,9.08,90.65,10c-.33-.94-1.22-1.41-2.68-1.41-1,0-1.54.29-1.54.86s.5.85,1.48,1a16.59,16.59,0,0,1,4.24,1.13A4.7,4.7,0,0,1,94,13.19a3.92,3.92,0,0,1,.62,2.16A4.56,4.56,0,0,1,92.8,19q-1.81,1.5-5.55,1.5a10.23,10.23,0,0,1-4.82-1.08,4.77,4.77,0,0,1-2.57-3.25l4.52-.66c.36,1,1.37,1.57,3,1.57a3,3,0,0,0,1.45-.28c.32-.19.47-.4.47-.64a.54.54,0,0,0-.31-.51,8.59,8.59,0,0,0-1.59-.45,24.84,24.84,0,0,1-3.61-1A4.39,4.39,0,0,1,82,12.75a3.68,3.68,0,0,1-.75-2.29A4.48,4.48,0,0,1,83,6.81a7.32,7.32,0,0,1,4.77-1.44,9.54,9.54,0,0,1,4.67,1.06A4.73,4.73,0,0,1,94.9,9.08Z"/><path class="cls-1" d="M0,14.43S11.19,12.16,13.59,6.5C15.87,1.11,16.27,0,26.43,0L7,16.46a1.89,1.89,0,0,1-2,.27Z"/></g></g></svg>