<svg xmlns="http://www.w3.org/2000/svg" viewBox="0 0 85.75 94.09"><defs><style>.cls-1{fill:#256382;}.cls-2{fill:#d9e3e8;}.cls-3{fill:#42ade2;}.cls-4{fill:#94989b;}.cls-5{fill:#428bc1;}.cls-6{fill:#547725;}.cls-7{fill:#83bf4f;}.cls-8{fill:#699635;}.cls-9{fill:#962c2c;}.cls-10{fill:#ed4c5c;}.cls-11{fill:#fff;}.cls-12{fill:#c94747;}.cls-13{fill:#0f54ef;}</style></defs><g id="Layer_2" data-name="Layer 2"><g id="Layer_1-2" data-name="Layer 1"><path class="cls-1" d="M58.65,34.25l6.06,6.56L37.94,54.71s-3.55,1.78-5.22-1.06C26.12,42.44,58.65,34.25,58.65,34.25Z"/><path class="cls-2" d="M37.26,46.57s-5.13,2-4.19,5.69c1,3.87,5,1.52,5,1.52l25.43-13s-1.43-4.11,1.16-6.91Z"/><polygon class="cls-3" points="41.57 7.7 65.91 33.7 37.13 46.04 18.65 14.44 41.57 7.7"/><polygon class="cls-4" points="63.55 36.77 46.51 44.36 63.2 35.99 63.55 36.77"/><polygon class="cls-4" points="63.29 39.01 45.18 47.21 62.94 38.22 63.29 39.01"/><polygon class="cls-4" points="63.46 40.31 40.34 51.25 63.09 39.53 63.46 40.31"/><path class="cls-5" d="M32.72,53.65C29.92,47.21,37.13,46,37.13,46L18.65,14.44s-4.21-.13-4.21,4.64a7.67,7.67,0,0,0,.82,3.43Z"/><path class="cls-6" d="M20.11,27.79l-6.06,6.55L40.82,48.25S44.37,50,46,47.19C52.64,36,20.11,27.79,20.11,27.79Z"/><path class="cls-2" d="M41.5,40.1s5.13,2,4.18,5.7-5,1.51-5,1.51l-25.43-13s1.43-4.11-1.15-6.91Z"/><polygon class="cls-7" points="37.19 1.23 12.85 27.23 41.63 39.57 60.1 7.97 37.19 1.23"/><polygon class="cls-4" points="15.55 29.52 32.25 37.9 15.21 30.31 15.55 29.52"/><polygon class="cls-4" points="15.82 31.75 33.58 40.74 15.47 32.54 15.82 31.75"/><polygon class="cls-4" points="15.66 33.07 38.42 44.79 15.3 33.85 15.66 33.07"/><path class="cls-8" d="M46,47.19c2.8-6.45-4.41-7.62-4.41-7.62L60.1,8s4.21-.12,4.21,4.64a7.74,7.74,0,0,1-.82,3.44Z"/><path class="cls-9" d="M60.14,22.41l5.11,5.53L42.66,39.67s-3,1.5-4.39-.89C32.69,29.32,60.14,22.41,60.14,22.41Z"/><path class="cls-2" d="M42.09,32.8s-4.32,1.66-3.53,4.8,4.26,1.28,4.26,1.28L64.28,27.94s-1.21-3.47,1-5.83Z"/><polygon class="cls-10" points="45.73 0 66.27 21.94 41.99 32.35 26.4 5.69 45.73 0"/><polygon class="cls-11" points="46.33 5.01 50.29 9.6 35.53 15.36 32.04 9.52 46.33 5.01"/><polygon class="cls-4" points="64.3 24.59 49.9 30.94 63.96 23.81 64.3 24.59"/><polygon class="cls-4" points="64.08 26.48 48.78 33.34 63.73 25.7 64.08 26.48"/><polygon class="cls-4" points="64.23 27.58 44.7 36.75 63.87 26.8 64.23 27.58"/><path class="cls-12" d="M38.27,38.78C35.9,33.34,42,32.35,42,32.35L26.4,5.69s-3.56-.11-3.56,3.92a6.47,6.47,0,0,0,.69,2.89Z"/><rect class="cls-13" y="82.77" width="85.75" height="11.33"/><path class="cls-11" d="M12.65,86.34V68.69h3.19v15h7.78v2.68Z"/><path class="cls-11" d="M31.4,86.6A6.78,6.78,0,0,1,28,85.77a5.62,5.62,0,0,1-2.22-2.36,8.7,8.7,0,0,1,0-7.2,5.81,5.81,0,0,1,2.19-2.41,6.11,6.11,0,0,1,3.3-.87,6.79,6.79,0,0,1,2.31.39,5.34,5.34,0,0,1,1.93,1.21,5.82,5.82,0,0,1,1.33,2.09,8.43,8.43,0,0,1,.48,3v1H26.44V78.47H34.3a3.5,3.5,0,0,0-.39-1.6,2.8,2.8,0,0,0-1.06-1.1,3,3,0,0,0-1.57-.41,3.11,3.11,0,0,0-1.68.46A3.17,3.17,0,0,0,28.48,77a3.37,3.37,0,0,0-.41,1.63V80.5a4.32,4.32,0,0,0,.42,2,2.91,2.91,0,0,0,1.18,1.25,3.53,3.53,0,0,0,1.78.44A3.69,3.69,0,0,0,32.68,84a2.56,2.56,0,0,0,1-.58,2.38,2.38,0,0,0,.62-.94l2.91.33a4.42,4.42,0,0,1-1,2,5.05,5.05,0,0,1-2,1.33A7.53,7.53,0,0,1,31.4,86.6Z"/><path class="cls-11" d="M43,86.61a5.46,5.46,0,0,1-2.26-.45,3.73,3.73,0,0,1-1.59-1.34,4,4,0,0,1-.58-2.19A3.71,3.71,0,0,1,39,80.77a3.3,3.3,0,0,1,1.12-1.17,6.2,6.2,0,0,1,1.62-.67,13.75,13.75,0,0,1,1.87-.33c.77-.08,1.4-.15,1.88-.22a2.63,2.63,0,0,0,1.06-.31.73.73,0,0,0,.33-.66v0a1.94,1.94,0,0,0-.58-1.51,2.38,2.38,0,0,0-1.66-.53,2.9,2.9,0,0,0-1.81.5A2.41,2.41,0,0,0,42,77L39,76.59a4.72,4.72,0,0,1,1.14-2,5.05,5.05,0,0,1,1.94-1.22,7.54,7.54,0,0,1,2.53-.41,8.81,8.81,0,0,1,1.91.22,5.46,5.46,0,0,1,1.73.74,3.85,3.85,0,0,1,1.26,1.39,4.56,4.56,0,0,1,.48,2.2v8.86H47V84.52h-.1a3.83,3.83,0,0,1-.8,1,3.77,3.77,0,0,1-1.28.77A5.25,5.25,0,0,1,43,86.61Zm.81-2.29a3.36,3.36,0,0,0,1.63-.38,2.77,2.77,0,0,0,1.07-1,2.6,2.6,0,0,0,.37-1.36V80a1.47,1.47,0,0,1-.5.23,6.47,6.47,0,0,1-.78.18l-.85.14-.73.1A5.44,5.44,0,0,0,42.8,81a2,2,0,0,0-.87.6,1.48,1.48,0,0,0-.32,1,1.5,1.5,0,0,0,.63,1.31A2.75,2.75,0,0,0,43.84,84.32Z"/><path class="cls-11" d="M52.46,86.34V73.1h3v2.21h.14a3.32,3.32,0,0,1,1.24-1.77,3.39,3.39,0,0,1,2-.63l.58,0A3.39,3.39,0,0,1,60,73v2.87a3.21,3.21,0,0,0-.62-.13,8,8,0,0,0-.82,0,3.09,3.09,0,0,0-1.53.37,2.67,2.67,0,0,0-1.07,1,2.83,2.83,0,0,0-.39,1.49v7.78Z"/><path class="cls-11" d="M64.51,78.58v7.76H61.39V73.1h3v2.25h.15A3.76,3.76,0,0,1,66,73.59a4.44,4.44,0,0,1,2.49-.66,4.73,4.73,0,0,1,2.39.59,4,4,0,0,1,1.59,1.69,5.92,5.92,0,0,1,.55,2.7v8.43H69.88V78.4a3,3,0,0,0-.68-2.08,2.44,2.44,0,0,0-1.89-.75,2.93,2.93,0,0,0-1.46.36,2.46,2.46,0,0,0-1,1A3.49,3.49,0,0,0,64.51,78.58Z"/></g></g></svg>