<svg xmlns="http://www.w3.org/2000/svg" viewBox="0 0 422.24 394.1"><defs><style>.cls-1{font-size:9.31px;font-family:Inter-ExtraBold, Inter;font-weight:800;letter-spacing:-0.03em;}.cls-1,.cls-15{fill:#22dd57;}.cls-2{letter-spacing:-0.03em;}.cls-3{letter-spacing:-0.03em;}.cls-4{fill:#8a9299;}.cls-5{fill:#b3bdc6;}.cls-6{fill:#fff;}.cls-7{fill:#ff9d33;}.cls-8{fill:#ffce31;}.cls-9{fill:#ffdf85;}.cls-10{fill:#0f54ef;}.cls-11{fill:#0e4fc1;}.cls-12{fill:#0d479b;}.cls-13{fill:#0b3970;}.cls-14{fill:none;stroke:#22dd57;stroke-linecap:round;stroke-miterlimit:10;stroke-width:11px;}.cls-16{fill:#d0d0d0;}.cls-17{fill:#ed4c5c;}.cls-18{fill:#ff8736;}.cls-19{fill:#231f20;}.cls-20{fill:#4fd1d9;}</style></defs><g id="Layer_2" data-name="Layer 2"><g id="Layer_1-2" data-name="Layer 1"><text class="cls-1" transform="translate(212.98 36.43)">98% comple<tspan class="cls-2" x="54.15" y="0">t</tspan><tspan class="cls-3" x="57.52" y="0">e</tspan></text><rect class="cls-4" x="249.1" y="199.24" width="173.14" height="194.86" rx="66.09"/><rect class="cls-5" x="0.24" y="111.12" width="145.84" height="145.84" rx="66.09" transform="translate(-6.61 2.77) rotate(-2.07)"/><path class="cls-6" d="M56.79,134.22a1.42,1.42,0,0,0-.54-1,2.12,2.12,0,0,0-1.36-.37,2.67,2.67,0,0,0-1,.15,1.27,1.27,0,0,0-.59.42,1.08,1.08,0,0,0-.2.6.93.93,0,0,0,.12.5,1.15,1.15,0,0,0,.36.37,3,3,0,0,0,.59.28,5.87,5.87,0,0,0,.76.21l1.07.24a7.43,7.43,0,0,1,1.63.53,4.63,4.63,0,0,1,1.2.79,3.2,3.2,0,0,1,.73,1.06,3.61,3.61,0,0,1,.26,1.35,3.49,3.49,0,0,1-.59,2,3.67,3.67,0,0,1-1.69,1.29,6.8,6.8,0,0,1-2.65.46,7.17,7.17,0,0,1-2.73-.46,3.94,3.94,0,0,1-1.81-1.41,4.3,4.3,0,0,1-.66-2.41h2.87a2,2,0,0,0,.33,1,1.72,1.72,0,0,0,.79.6,3,3,0,0,0,1.16.21,2.9,2.9,0,0,0,1-.17,1.54,1.54,0,0,0,.66-.46,1.07,1.07,0,0,0,.23-.67.92.92,0,0,0-.22-.6,1.76,1.76,0,0,0-.65-.44,8.27,8.27,0,0,0-1.13-.34l-1.3-.3A5.66,5.66,0,0,1,51,136.44,2.85,2.85,0,0,1,50,134.2a3.39,3.39,0,0,1,.62-2,4.1,4.1,0,0,1,1.73-1.36,6.22,6.22,0,0,1,2.52-.49,6.08,6.08,0,0,1,2.51.48,4,4,0,0,1,1.66,1.37,3.69,3.69,0,0,1,.61,2Z"/><path class="cls-6" d="M66.13,133.57v2.19H60.25v-2.18Zm-4.66-2.22h3l0,8.63a1.08,1.08,0,0,0,.08.44.55.55,0,0,0,.26.24,1,1,0,0,0,.41.07,1.53,1.53,0,0,0,.36,0l.29-.06.46,2.15-.6.15a5.43,5.43,0,0,1-.92.12A4.47,4.47,0,0,1,63,142.8a2.28,2.28,0,0,1-1.14-.92,2.84,2.84,0,0,1-.38-1.57Z"/><path class="cls-6" d="M67.18,142.9l0-9.33H70v1.7h.1a2.56,2.56,0,0,1,.83-1.38,2.17,2.17,0,0,1,1.34-.46l.43,0,.4.08v2.58a4,4,0,0,0-.56-.11,4.55,4.55,0,0,0-.61,0,1.89,1.89,0,0,0-1,.24,1.65,1.65,0,0,0-.66.65,1.81,1.81,0,0,0-.23,1v5.07Z"/><path class="cls-6" d="M77.77,143a5.06,5.06,0,0,1-2.53-.57,3.87,3.87,0,0,1-1.63-1.65,5.42,5.42,0,0,1-.58-2.57,5.51,5.51,0,0,1,.56-2.53A4.16,4.16,0,0,1,75.2,134a4.71,4.71,0,0,1,2.45-.61,4.87,4.87,0,0,1,1.82.3,4,4,0,0,1,1.43.91,4.25,4.25,0,0,1,.94,1.5,5.81,5.81,0,0,1,.34,2v.74l-8.11,0V137.2h5.34a1.64,1.64,0,0,0-.22-.84,1.59,1.59,0,0,0-.6-.58,1.82,1.82,0,0,0-.88-.21,1.86,1.86,0,0,0-.89.22,1.65,1.65,0,0,0-.62.61,1.57,1.57,0,0,0-.24.86V139a2.08,2.08,0,0,0,.23,1,1.59,1.59,0,0,0,.64.67,2,2,0,0,0,1,.23,2.27,2.27,0,0,0,.72-.11,1.43,1.43,0,0,0,.55-.32,1.37,1.37,0,0,0,.35-.53l2.73.07a3.43,3.43,0,0,1-.74,1.6,4,4,0,0,1-1.5,1.06A5.73,5.73,0,0,1,77.77,143Z"/><path class="cls-6" d="M85.85,143a3.78,3.78,0,0,1-1.58-.29,2.43,2.43,0,0,1-1.09-.91,2.72,2.72,0,0,1-.4-1.53,2.93,2.93,0,0,1,.27-1.32,2.42,2.42,0,0,1,.75-.87,3.83,3.83,0,0,1,1.1-.51,8.88,8.88,0,0,1,1.34-.24c.53-.05,1-.1,1.28-.15a2,2,0,0,0,.71-.24.51.51,0,0,0,.22-.44v0a.88.88,0,0,0-.32-.73,1.38,1.38,0,0,0-.87-.25,1.6,1.6,0,0,0-1,.26,1.14,1.14,0,0,0-.46.7l-2.74-.08a3.24,3.24,0,0,1,.63-1.53,3.42,3.42,0,0,1,1.39-1.06,5.31,5.31,0,0,1,2.14-.39,6.12,6.12,0,0,1,1.65.2,4.06,4.06,0,0,1,1.31.61,2.68,2.68,0,0,1,1.18,2.29l0,6.34H88.64v-1.3h-.07a2.94,2.94,0,0,1-.63.8,2.6,2.6,0,0,1-.91.5A3.81,3.81,0,0,1,85.85,143Zm.92-1.94a1.85,1.85,0,0,0,.86-.2,1.62,1.62,0,0,0,.62-.54,1.44,1.44,0,0,0,.23-.8v-.89a1.42,1.42,0,0,1-.3.13l-.4.1-.43.09-.43.07a2.68,2.68,0,0,0-.72.2,1.28,1.28,0,0,0-.45.37.89.89,0,0,0-.15.52.84.84,0,0,0,.33.71A1.44,1.44,0,0,0,86.77,141.06Z"/><path class="cls-6" d="M92.74,142.83l0-12.45h3l0,12.44Zm2.68-2.46v-3.54h.41l2.62-3.35h3.36l-3.88,4.8h-.79Zm3.12,2.44-2.45-3.87,2-2.11,3.93,6Z"/><path class="cls-7" d="M96.34,178.8a61.91,61.91,0,0,1-7.12,5.74c-1.52-7.24-5.3-16.1-12.56-26.84A69.66,69.66,0,0,1,67.78,181a48,48,0,0,1-5-8.84c-22.65,24.35-2.57,40.3,9.66,39.86C88.17,211.43,101.71,203.4,96.34,178.8Z"/><path class="cls-8" d="M87.87,200.1A31.58,31.58,0,0,0,90,188.3a42.86,42.86,0,0,1-5,3.83c-1-4.82-3.69-10.73-8.75-17.88A45.23,45.23,0,0,1,70,189.79a31.53,31.53,0,0,1-3.47-5.89c-3.69,6.29-5,11.22-5,15A34.33,34.33,0,0,1,58,197.59c4.09,10.88,11.81,13,15.23,12.88,6.12-.22,12.28-2.26,18.13-11.22C91.34,199.25,90,199.67,87.87,200.1Z"/><path class="cls-9" d="M65.34,195.88s2.65,3.36,4.53,2.46a31.89,31.89,0,0,1,8.55-9.16s-.76,8.7.53,10.18c1.71,2,6-2.47,6-2.47.18,5.11-5.18,11.76-10.19,11.94S62.53,203.72,65.34,195.88Z"/><path class="cls-7" d="M89.6,171.78a41.42,41.42,0,0,0,3-5.66c3.35,5.09,1.6,8.32.24,9.4C91,177,87.54,175,89.6,171.78Z"/><path class="cls-7" d="M55.13,172.14a18.09,18.09,0,0,1-2.31-7.06c-4.27,7-2.37,10.6-.83,11.67C54.06,178.18,57.39,175.73,55.13,172.14Z"/><path class="cls-7" d="M65.37,164.69a10.45,10.45,0,0,0-.82-4.32c4.38,2.6,4.42,5,3.89,6C67.73,167.62,65.19,167.17,65.37,164.69Z"/><path class="cls-6" d="M61.08,241.35l0-3.37,7.13-6.14c.54-.47,1-.91,1.37-1.31a4.79,4.79,0,0,0,.86-1.2,3,3,0,0,0,.31-1.33,2.62,2.62,0,0,0-.34-1.38,2.32,2.32,0,0,0-1-.9,3.05,3.05,0,0,0-1.41-.32,2.9,2.9,0,0,0-1.41.31,2.27,2.27,0,0,0-1,.94,3,3,0,0,0-.35,1.49l-4.45,0a6.38,6.38,0,0,1,.92-3.41,5.91,5.91,0,0,1,2.53-2.2,8.59,8.59,0,0,1,3.76-.75,9.17,9.17,0,0,1,3.83.77,5.92,5.92,0,0,1,2.51,2.09,5.31,5.31,0,0,1,.87,3.07,5.66,5.66,0,0,1-.46,2.19,9.2,9.2,0,0,1-1.62,2.4A35,35,0,0,1,70,235.38l-2.34,2.13v.12l7.86.07,0,3.78Z"/><path class="cls-6" d="M84.76,241.82A8.66,8.66,0,0,1,81,241a6.34,6.34,0,0,1-2.58-2.13,5.45,5.45,0,0,1-1-3.1l4.55,0a2.26,2.26,0,0,0,.86,1.73,3,3,0,0,0,1.94.66,3.08,3.08,0,0,0,1.56-.37,2.76,2.76,0,0,0,1.08-1.09,3.17,3.17,0,0,0,.4-1.62,3.34,3.34,0,0,0-.37-1.64,2.93,2.93,0,0,0-1.07-1.11,3.14,3.14,0,0,0-1.58-.4,3.56,3.56,0,0,0-1.6.35,2.69,2.69,0,0,0-1.15,1l-4.13-.82.93-10.45,12.45.11,0,3.78-8.6-.08-.48,4.58h.11a3.53,3.53,0,0,1,1.57-1.32,5.55,5.55,0,0,1,2.46-.5,6,6,0,0,1,3.1.83,5.82,5.82,0,0,1,2.14,2.26,7.11,7.11,0,0,1-.21,6.82,6.42,6.42,0,0,1-2.65,2.4A8.35,8.35,0,0,1,84.76,241.82Z"/><rect class="cls-10" x="151.5" y="8.13" width="134.51" height="211.25" rx="31.59" transform="translate(66.29 -80.02) rotate(24.33)"/><rect class="cls-11" x="151.5" y="8.13" width="134.51" height="211.25" rx="31.59" transform="translate(43.19 -59.37) rotate(17.12)"/><rect class="cls-12" x="151.5" y="8.13" width="134.51" height="211.25" rx="31.59" transform="translate(17.5 -28.69) rotate(7.81)"/><rect class="cls-13" x="151.5" y="8.13" width="134.51" height="211.25" rx="31.59" transform="translate(0.99 -1.89) rotate(0.5)"/><path class="cls-6" d="M168.71,199.48l.41-12.44,5.18.17a5.93,5.93,0,0,1,2.33.48,3,3,0,0,1,1.39,1.15,2.9,2.9,0,0,1,.42,1.66,2.75,2.75,0,0,1-.34,1.26,2.68,2.68,0,0,1-.85.89,3.32,3.32,0,0,1-1.23.47v.12a3,3,0,0,1,1.38.45,2.76,2.76,0,0,1,1,1.07,2.94,2.94,0,0,1,.34,1.57,3.16,3.16,0,0,1-.57,1.77,3.46,3.46,0,0,1-1.52,1.19,5.48,5.48,0,0,1-2.35.37Zm3.08-2.33,1.86.07a2.26,2.26,0,0,0,1.45-.33,1.21,1.21,0,0,0,.5-1,1.4,1.4,0,0,0-.81-1.4,2.45,2.45,0,0,0-1-.23l-1.91-.06Zm.17-4.9,1.66.06a2.23,2.23,0,0,0,.88-.14,1.34,1.34,0,0,0,.61-.45,1.28,1.28,0,0,0,.24-.74,1.17,1.17,0,0,0-.41-1,1.78,1.78,0,0,0-1.18-.39l-1.71-.06Z"/><path class="cls-6" d="M182.19,200.08a3.82,3.82,0,0,1-1.57-.35,2.39,2.39,0,0,1-1.06-.95,2.75,2.75,0,0,1-.35-1.54,3,3,0,0,1,.32-1.31,2.33,2.33,0,0,1,.78-.84,3.63,3.63,0,0,1,1.12-.47,8,8,0,0,1,1.35-.19c.53,0,1-.07,1.28-.11a1.72,1.72,0,0,0,.72-.21.54.54,0,0,0,.24-.44v0a.87.87,0,0,0-.3-.73,1.34,1.34,0,0,0-.86-.28,1.59,1.59,0,0,0-1,.22,1.15,1.15,0,0,0-.48.69l-2.73-.19a3.31,3.31,0,0,1,.68-1.5,3.37,3.37,0,0,1,1.43-1,5.28,5.28,0,0,1,2.15-.31,6,6,0,0,1,1.64.26,4.11,4.11,0,0,1,1.29.65,2.87,2.87,0,0,1,.84,1,2.78,2.78,0,0,1,.26,1.33l-.21,6.34L185,200l.05-1.3H185a2.67,2.67,0,0,1-.67.78,2.57,2.57,0,0,1-.92.46A3.63,3.63,0,0,1,182.19,200.08Zm1-1.91A1.9,1.9,0,0,0,184,198a1.61,1.61,0,0,0,.63-.52,1.36,1.36,0,0,0,.26-.79l0-.89a1.58,1.58,0,0,1-.31.11,2.23,2.23,0,0,1-.39.09l-.44.07-.44.06a2.37,2.37,0,0,0-.72.18,1.11,1.11,0,0,0-.46.35.87.87,0,0,0-.17.51.82.82,0,0,0,.31.72A1.35,1.35,0,0,0,183.17,198.17Z"/><path class="cls-6" d="M197.44,194l-2.73,0a1,1,0,0,0-.21-.53A1.29,1.29,0,0,0,194,193a1.52,1.52,0,0,0-.69-.15,1.64,1.64,0,0,0-.88.17.62.62,0,0,0-.38.55.59.59,0,0,0,.21.48,1.71,1.71,0,0,0,.8.35l1.79.4a4.35,4.35,0,0,1,2,.95,2.14,2.14,0,0,1,.63,1.67,2.6,2.6,0,0,1-.62,1.65,3.63,3.63,0,0,1-1.57,1.05,6.05,6.05,0,0,1-2.23.32,5.41,5.41,0,0,1-3.13-.93,3,3,0,0,1-1.24-2.25l2.94,0a1.14,1.14,0,0,0,.48.8,1.93,1.93,0,0,0,1,.3,1.84,1.84,0,0,0,.93-.18.66.66,0,0,0,.38-.56.57.57,0,0,0-.26-.51,2,2,0,0,0-.84-.33l-1.62-.36a3.88,3.88,0,0,1-2.06-1,2.36,2.36,0,0,1-.62-1.78,2.56,2.56,0,0,1,.55-1.58,3.12,3.12,0,0,1,1.47-1,6,6,0,0,1,2.2-.28,5,5,0,0,1,3,.89A2.87,2.87,0,0,1,197.44,194Z"/><path class="cls-6" d="M198.42,200.47l.41-12.44,3,.1-.42,12.44Zm2.75-2.36.13-3.54h.42l2.73-3.25,3.37.11-4.06,4.66-.79,0Zm3,2.55-2.31-4,2-2,3.72,6.11Z"/><path class="cls-6" d="M212,201.1a5.26,5.26,0,0,1-2.5-.67,3.94,3.94,0,0,1-1.57-1.71,5.28,5.28,0,0,1-.48-2.58,5.36,5.36,0,0,1,.65-2.51,4.12,4.12,0,0,1,1.67-1.64,4.75,4.75,0,0,1,2.46-.52,5,5,0,0,1,1.81.37,4,4,0,0,1,1.4,1,4.16,4.16,0,0,1,.89,1.52,5.77,5.77,0,0,1,.26,2l0,.74-8.11-.27.06-1.72,5.34.18a1.75,1.75,0,0,0-.19-.86,1.59,1.59,0,0,0-.58-.6,1.87,1.87,0,0,0-.87-.23,1.7,1.7,0,0,0-.9.19,1.63,1.63,0,0,0-.64.58,1.65,1.65,0,0,0-.28.85l-.05,1.75a2.05,2.05,0,0,0,.19,1,1.63,1.63,0,0,0,.61.69,2.12,2.12,0,0,0,1,.27,2.37,2.37,0,0,0,.72-.09,1.44,1.44,0,0,0,.56-.3,1.46,1.46,0,0,0,.37-.51l2.72.16a3.35,3.35,0,0,1-.8,1.58,3.89,3.89,0,0,1-1.54,1A6,6,0,0,1,212,201.1Z"/><path class="cls-6" d="M223.08,192l-.07,2.19-5.89-.2.08-2.18Zm-4.58-2.39,3,.1-.29,8.63a.94.94,0,0,0,.08.44.47.47,0,0,0,.25.25,1,1,0,0,0,.4.08,2.17,2.17,0,0,0,.36,0l.29,0,.38,2.16-.6.13a4.85,4.85,0,0,1-.92.09,4.33,4.33,0,0,1-1.78-.31,2.28,2.28,0,0,1-1.11-1,2.79,2.79,0,0,1-.33-1.58Z"/><path class="cls-6" d="M224,201.32l.42-12.44,3,.1-.16,4.71h.06a3.18,3.18,0,0,1,.55-.8,2.59,2.59,0,0,1,.88-.62,2.81,2.81,0,0,1,1.27-.21,3.42,3.42,0,0,1,1.8.57,3.66,3.66,0,0,1,1.32,1.62,7.29,7.29,0,0,1-.16,5.36,3.63,3.63,0,0,1-1.4,1.56,3.47,3.47,0,0,1-1.9.47,2.8,2.8,0,0,1-1.21-.27,2.6,2.6,0,0,1-.84-.64,2.66,2.66,0,0,1-.51-.82H227l-.05,1.51Zm3.07-4.57a3.86,3.86,0,0,0,.16,1.32,1.92,1.92,0,0,0,.56.89,1.58,1.58,0,0,0,1.85.06,1.89,1.89,0,0,0,.61-.85,3.63,3.63,0,0,0,.24-1.3,3.78,3.78,0,0,0-.15-1.31,1.82,1.82,0,0,0-.55-.88,1.61,1.61,0,0,0-1.86-.07,1.82,1.82,0,0,0-.61.83A3.86,3.86,0,0,0,227.05,196.75Z"/><path class="cls-6" d="M237.05,201.91a3.9,3.9,0,0,1-1.57-.35,2.42,2.42,0,0,1-1-.95,2.67,2.67,0,0,1-.35-1.54,2.84,2.84,0,0,1,.32-1.31,2.25,2.25,0,0,1,.78-.84,3.63,3.63,0,0,1,1.12-.47,8,8,0,0,1,1.34-.19c.53,0,1-.07,1.29-.11a2.15,2.15,0,0,0,.72-.21.5.5,0,0,0,.23-.44v0a.89.89,0,0,0-.29-.73,1.41,1.41,0,0,0-.87-.29,1.62,1.62,0,0,0-.95.23,1.15,1.15,0,0,0-.48.69l-2.73-.19a3.3,3.3,0,0,1,.67-1.5,3.41,3.41,0,0,1,1.44-1,5.44,5.44,0,0,1,2.15-.32,6.47,6.47,0,0,1,1.64.27,4.11,4.11,0,0,1,1.29.65,2.84,2.84,0,0,1,.83,1,2.78,2.78,0,0,1,.26,1.33l-.21,6.34-2.79-.09,0-1.3h-.07a2.79,2.79,0,0,1-.66.78,2.65,2.65,0,0,1-.92.46A3.67,3.67,0,0,1,237.05,201.91Zm1-1.91a1.93,1.93,0,0,0,.87-.16,1.7,1.7,0,0,0,.63-.52,1.43,1.43,0,0,0,.26-.79l0-.89a1.85,1.85,0,0,1-.31.11l-.4.09-.44.07-.43.06a2.37,2.37,0,0,0-.72.18,1.09,1.09,0,0,0-.46.34.85.85,0,0,0-.17.52.81.81,0,0,0,.3.72A1.4,1.4,0,0,0,238,200Z"/><path class="cls-6" d="M247.33,189.65l-.41,12.43-3-.1.41-12.43Z"/><path class="cls-6" d="M251.69,189.79l-.42,12.44-3-.1.42-12.44Z"/><path class="cls-14" d="M267.31,8.54a19.62,19.62,0,0,1,19.44,19.77l-1.49,172a19.6,19.6,0,0,1-19.77,19.43l-95.3-.82a19.61,19.61,0,0,1-19.44-19.77l1.49-172A19.61,19.61,0,0,1,172,7.72l54.41.47"/><path class="cls-15" d="M198.47,27.41a3.54,3.54,0,0,1,1.2.22,2.74,2.74,0,0,1,1.05.69,3.19,3.19,0,0,1,.75,1.28,6.2,6.2,0,0,1,.28,2,7.43,7.43,0,0,1-.24,2,4.53,4.53,0,0,1-.67,1.47,3,3,0,0,1-2.46,1.23,3.11,3.11,0,0,1-1.43-.32,2.7,2.7,0,0,1-1-.87,2.86,2.86,0,0,1-.47-1.27H197a1.45,1.45,0,0,0,.48.81,1.39,1.39,0,0,0,.91.3,1.54,1.54,0,0,0,1.38-.77,4.12,4.12,0,0,0,.48-2.16h-.06a2.19,2.19,0,0,1-.53.64,2.55,2.55,0,0,1-.74.41,2.83,2.83,0,0,1-.87.14,2.57,2.57,0,0,1-2.31-1.35,2.85,2.85,0,0,1-.35-1.44,3.06,3.06,0,0,1,.38-1.52,2.78,2.78,0,0,1,1.09-1.06A3.34,3.34,0,0,1,198.47,27.41Zm0,1.26a1.5,1.5,0,0,0-.82.22,1.64,1.64,0,0,0-.57.6,1.78,1.78,0,0,0,0,1.68,1.53,1.53,0,0,0,1.37.81,1.61,1.61,0,0,0,.63-.13,1.46,1.46,0,0,0,.51-.37,1.61,1.61,0,0,0,.34-.52,1.53,1.53,0,0,0,.13-.64,1.67,1.67,0,0,0-.21-.82,1.75,1.75,0,0,0-.57-.61A1.47,1.47,0,0,0,198.48,28.67Z"/><path class="cls-15" d="M205.84,36.25a4.08,4.08,0,0,1-1.65-.32,2.77,2.77,0,0,1-1.13-.86,2,2,0,0,1-.41-1.24,2.07,2.07,0,0,1,.24-1,2.15,2.15,0,0,1,1.55-1.15v-.05a1.86,1.86,0,0,1-1.07-.68,2.08,2.08,0,0,1,0-2.41,2.61,2.61,0,0,1,1-.82,3.65,3.65,0,0,1,1.48-.29,3.6,3.6,0,0,1,1.47.29,2.58,2.58,0,0,1,1,.82,2.06,2.06,0,0,1,0,2.41,1.87,1.87,0,0,1-1.06.68v.05a2.13,2.13,0,0,1,.9.39,2.27,2.27,0,0,1,.65.76,2.07,2.07,0,0,1,.24,1,2,2,0,0,1-.41,1.24,2.84,2.84,0,0,1-1.13.86A4.08,4.08,0,0,1,205.84,36.25Zm0-1.2a2,2,0,0,0,.84-.17,1.25,1.25,0,0,0,.55-.46,1.27,1.27,0,0,0,.2-.7,1.32,1.32,0,0,0-.21-.73,1.41,1.41,0,0,0-.56-.49,1.8,1.8,0,0,0-.82-.18,1.83,1.83,0,0,0-.82.18,1.44,1.44,0,0,0-.57.49,1.4,1.4,0,0,0-.2.73,1.23,1.23,0,0,0,.19.69,1.36,1.36,0,0,0,.56.47A2,2,0,0,0,205.84,35.05Zm0-3.91a1.45,1.45,0,0,0,.7-.16,1.2,1.2,0,0,0,.48-.44,1.28,1.28,0,0,0,0-1.31,1.15,1.15,0,0,0-.47-.43,1.61,1.61,0,0,0-.71-.15,1.58,1.58,0,0,0-.71.15,1.12,1.12,0,0,0-.48.43,1.19,1.19,0,0,0-.16.65,1.12,1.12,0,0,0,.17.66,1.21,1.21,0,0,0,.48.44A1.45,1.45,0,0,0,205.84,31.14Z"/><path class="cls-15" d="M210.3,29.61v-.45a2,2,0,0,1,.21-.92,1.66,1.66,0,0,1,.62-.67,1.81,1.81,0,0,1,1-.26,1.83,1.83,0,0,1,1,.26,1.64,1.64,0,0,1,.61.67,2,2,0,0,1,.2.92v.45a2,2,0,0,1-.2.92,1.66,1.66,0,0,1-.62.67,2.09,2.09,0,0,1-2,0,1.66,1.66,0,0,1-.62-.67A2,2,0,0,1,210.3,29.61Zm.37,6.52,5.9-8.58h1.05l-5.9,8.58Zm.73-7v.45a1.23,1.23,0,0,0,.15.61.6.6,0,0,0,.56.28.59.59,0,0,0,.56-.28,1.23,1.23,0,0,0,.15-.61v-.45a1.25,1.25,0,0,0-.15-.61.56.56,0,0,0-.56-.28.57.57,0,0,0-.55.28A1.18,1.18,0,0,0,211.4,29.16Zm3.25,5.36v-.45a1.92,1.92,0,0,1,.22-.92,1.64,1.64,0,0,1,.61-.67,1.82,1.82,0,0,1,1-.26,2,2,0,0,1,1,.25,1.74,1.74,0,0,1,.61.68,2,2,0,0,1,.2.92v.45a2,2,0,0,1-.21.92,1.64,1.64,0,0,1-.61.67,2,2,0,0,1-2,0,1.66,1.66,0,0,1-.62-.67A2,2,0,0,1,214.65,34.52Zm1.1-.45v.45a1.18,1.18,0,0,0,.16.61.59.59,0,0,0,.56.27.6.6,0,0,0,.56-.27,1.25,1.25,0,0,0,.15-.61v-.45a1.32,1.32,0,0,0-.15-.62.58.58,0,0,0-.56-.27.6.6,0,0,0-.56.27A1.22,1.22,0,0,0,215.75,34.07Z"/><path class="cls-15" d="M225.08,36.25a3.11,3.11,0,0,1-1.65-.42,2.8,2.8,0,0,1-1.06-1.17,4.16,4.16,0,0,1,0-3.45A2.82,2.82,0,0,1,223.44,30a3.09,3.09,0,0,1,1.63-.42,3.2,3.2,0,0,1,1.39.29,2.34,2.34,0,0,1,1,.81,2.46,2.46,0,0,1,.41,1.21h-1.45a1.4,1.4,0,0,0-.42-.77,1.21,1.21,0,0,0-.88-.31,1.4,1.4,0,0,0-.81.24,1.62,1.62,0,0,0-.55.72,2.87,2.87,0,0,0-.19,1.11,2.94,2.94,0,0,0,.19,1.13,1.62,1.62,0,0,0,.54.72,1.38,1.38,0,0,0,.82.26,1.33,1.33,0,0,0,.61-.13,1.2,1.2,0,0,0,.44-.37,1.51,1.51,0,0,0,.25-.59h1.45a2.56,2.56,0,0,1-.4,1.21,2.45,2.45,0,0,1-.95.82A3.12,3.12,0,0,1,225.08,36.25Z"/><path class="cls-15" d="M231.55,36.25a3.06,3.06,0,0,1-1.63-.41,2.79,2.79,0,0,1-1.07-1.16,4.2,4.2,0,0,1,0-3.49A2.73,2.73,0,0,1,229.92,30a3.37,3.37,0,0,1,3.26,0,2.73,2.73,0,0,1,1.07,1.16,4.2,4.2,0,0,1,0,3.49,2.79,2.79,0,0,1-1.07,1.16A3.06,3.06,0,0,1,231.55,36.25Zm0-1.21a1.28,1.28,0,0,0,.85-.28,1.71,1.71,0,0,0,.51-.76,3.45,3.45,0,0,0,0-2.14,1.65,1.65,0,0,0-.51-.76,1.29,1.29,0,0,0-.85-.29,1.32,1.32,0,0,0-.87.29,1.75,1.75,0,0,0-.52.76,3.45,3.45,0,0,0,0,2.14,1.81,1.81,0,0,0,.52.76A1.32,1.32,0,0,0,231.56,35Z"/><path class="cls-15" d="M235.57,36.13V29.7H237v1.09h.07a1.7,1.7,0,0,1,.67-.86,1.93,1.93,0,0,1,1.11-.32,1.88,1.88,0,0,1,1.1.32,1.74,1.74,0,0,1,.64.86h.06a1.85,1.85,0,0,1,.73-.86,2.24,2.24,0,0,1,1.2-.32,2,2,0,0,1,1.45.56,2.21,2.21,0,0,1,.56,1.64v4.32h-1.52V32.05a1.11,1.11,0,0,0-.31-.88,1.15,1.15,0,0,0-.78-.28,1.09,1.09,0,0,0-.86.34,1.3,1.3,0,0,0-.31.89v4h-1.48V32a1,1,0,0,0-1.08-1.09,1.13,1.13,0,0,0-.6.17,1.1,1.1,0,0,0-.42.46,1.42,1.42,0,0,0-.16.7v3.91Z"/><path class="cls-15" d="M245.81,38.54V29.7h1.49v1.06h.09a3.06,3.06,0,0,1,.33-.5,1.82,1.82,0,0,1,.58-.46,2.07,2.07,0,0,1,.93-.19,2.5,2.5,0,0,1,1.35.38,2.57,2.57,0,0,1,.95,1.12,4.12,4.12,0,0,1,.35,1.81,4.22,4.22,0,0,1-.34,1.8,2.6,2.6,0,0,1-.95,1.13,2.43,2.43,0,0,1-1.36.39,2,2,0,0,1-.91-.18,1.84,1.84,0,0,1-.59-.45,2.77,2.77,0,0,1-.34-.5h-.06v3.43Zm1.49-5.63a3.09,3.09,0,0,0,.18,1.1,1.72,1.72,0,0,0,.51.73,1.34,1.34,0,0,0,.82.26,1.28,1.28,0,0,0,.84-.27,1.68,1.68,0,0,0,.52-.74,3.31,3.31,0,0,0,.17-1.08,3.14,3.14,0,0,0-.17-1.06,1.72,1.72,0,0,0-.51-.73,1.33,1.33,0,0,0-.85-.26,1.31,1.31,0,0,0-.82.25,1.57,1.57,0,0,0-.52.72A3.22,3.22,0,0,0,247.3,32.91Z"/><path class="cls-15" d="M254.35,27.55v8.58h-1.51V27.55Z"/><path class="cls-15" d="M258.42,36.25a3.25,3.25,0,0,1-1.67-.4,2.67,2.67,0,0,1-1.08-1.15,4.2,4.2,0,0,1,0-3.49A2.89,2.89,0,0,1,256.73,30a3,3,0,0,1,1.61-.42,3.46,3.46,0,0,1,1.12.19,2.72,2.72,0,0,1,.94.59,2.87,2.87,0,0,1,.64,1,4,4,0,0,1,.24,1.46v.47H256v-1h3.82a1.53,1.53,0,0,0-.19-.78,1.33,1.33,0,0,0-.51-.54,1.46,1.46,0,0,0-.76-.2,1.49,1.49,0,0,0-.82.23,1.61,1.61,0,0,0-.55.58,1.69,1.69,0,0,0-.19.8v.89a2.06,2.06,0,0,0,.2,1,1.47,1.47,0,0,0,.57.61,1.75,1.75,0,0,0,.87.21A1.89,1.89,0,0,0,259,35a1.36,1.36,0,0,0,.46-.28,1.15,1.15,0,0,0,.3-.46l1.41.16a2.2,2.2,0,0,1-.51,1,2.59,2.59,0,0,1-.95.65A3.67,3.67,0,0,1,258.42,36.25Z"/><path class="cls-15" d="M265.43,29.7v1.17h-3.7V29.7Zm-2.79-1.54h1.52v6a1,1,0,0,0,.09.47.48.48,0,0,0,.25.22.93.93,0,0,0,.34.06l.27,0,.18,0,.25,1.19-.34.09a3.69,3.69,0,0,1-.55.06,2.38,2.38,0,0,1-1-.18,1.52,1.52,0,0,1-.73-.59,1.85,1.85,0,0,1-.26-1Z"/><path class="cls-15" d="M269.13,36.25a3.3,3.3,0,0,1-1.67-.4,2.71,2.71,0,0,1-1.07-1.15A3.7,3.7,0,0,1,266,33a3.84,3.84,0,0,1,.38-1.74A2.89,2.89,0,0,1,267.45,30a3,3,0,0,1,1.6-.42,3.53,3.53,0,0,1,1.13.19,2.81,2.81,0,0,1,.94.59,2.87,2.87,0,0,1,.64,1,4,4,0,0,1,.23,1.46v.47h-5.27v-1h3.82a1.64,1.64,0,0,0-.19-.78,1.33,1.33,0,0,0-.51-.54,1.5,1.5,0,0,0-.77-.2,1.45,1.45,0,0,0-.81.23,1.53,1.53,0,0,0-.55.58,1.82,1.82,0,0,0-.2.8v.89a2.06,2.06,0,0,0,.21,1,1.4,1.4,0,0,0,.57.61,1.71,1.71,0,0,0,.86.21,1.89,1.89,0,0,0,.6-.09,1.31,1.31,0,0,0,.47-.28,1,1,0,0,0,.29-.46l1.42.16a2.2,2.2,0,0,1-.51,1,2.59,2.59,0,0,1-.95.65A3.73,3.73,0,0,1,269.13,36.25Z"/><path class="cls-16" d="M236.71,169.87a2,2,0,0,1-1.12-.34,1.74,1.74,0,0,1-.76-1.9c0-.17,4.22-17.87-20.36-37.37a1.72,1.72,0,0,1-.22-2.54,2,2,0,0,1,2.73-.2c19.63,15.57,22.16,30.09,22.06,36.92,15.77-10.18,24.61-20.64,26.31-31.11a20.12,20.12,0,0,0-4-16,1.72,1.72,0,0,1,.24-2.54,2,2,0,0,1,2.72.22,23.53,23.53,0,0,1,4.86,18.79c-1.95,12.3-12.52,24.35-31.43,35.82A2.09,2.09,0,0,1,236.71,169.87Z"/><path class="cls-16" d="M219.39,169.87a2,2,0,0,1-1.24-.43,1.69,1.69,0,0,1-.51-2.14c.3-.61,7.24-15.34-11.51-35.12a1.71,1.71,0,0,1,.18-2.54,2,2,0,0,1,2.73.16c13.94,14.71,14.69,27.12,13.63,33.79,31.65-22.52,28.63-41.4,28.6-41.59a1.77,1.77,0,0,1,1-1.93,2.06,2.06,0,0,1,2.28.39c21.26,21.48,6.7,34.66,6.55,34.79a2,2,0,0,1-2.74-.08,1.72,1.72,0,0,1,.08-2.54c.47-.42,10.35-9.62-3.4-26.07-1,8.1-6.67,24.67-34.58,43A2.06,2.06,0,0,1,219.39,169.87Z"/><path class="cls-16" d="M251.8,169.87a2.09,2.09,0,0,1-.55-.08,1.78,1.78,0,0,1-1.31-2.23c.22-.74,4.81-17-16.95-35.6-1.7,5.73-7,18.41-22.46,30.72a2,2,0,0,1-2.73-.2,1.71,1.71,0,0,1,.21-2.54c19.21-15.29,21.87-31.44,21.9-31.6a1.81,1.81,0,0,1,1.23-1.43,2,2,0,0,1,1.94.31c26.57,21.08,20.83,40.53,20.57,41.35A1.9,1.9,0,0,1,251.8,169.87Z"/><path class="cls-17" d="M254.56,105.31c-12.82,0-36.33,8.57-44.14,16.1-1.56,1.5-4.25,5.54,6.93,5.54,14,0,35.11-8.67,41.61-16.32C261.28,107.91,262.46,105.31,254.56,105.31Zm-37.21,30c-21,0-18.45-10.21-15.59-14,7.79-10.46,37.28-21.08,52.8-21.08,17.91,0,15,9.88,11.25,15C257.35,126.54,232.81,135.35,217.35,135.35Z"/><circle class="cls-18" cx="203.19" cy="103.54" r="33.16" transform="translate(-13.7 174) rotate(-45)"/><path class="cls-19" d="M179.58,80.25a34,34,0,0,0,3.23,7.84c1.32,2.5,2.8,4.91,4.33,7.28A147.08,147.08,0,0,0,197.22,109a118.28,118.28,0,0,0,11.62,12.27,58.33,58.33,0,0,0,6.62,5.21,24.93,24.93,0,0,0,7.6,3.64,22.18,22.18,0,0,1-8.22-2.59,47.25,47.25,0,0,1-7.25-4.77,84.1,84.1,0,0,1-12.28-12.17,98.22,98.22,0,0,1-9.82-14.19,65.54,65.54,0,0,1-3.78-7.77A28.68,28.68,0,0,1,179.58,80.25Z"/><path class="cls-19" d="M170,102.65a40.93,40.93,0,0,0,7.52,11.16,35.71,35.71,0,0,0,10.92,7.41c4,1.9,8.4,3.2,12.68,5a23.79,23.79,0,0,1,6.1,3.57,9.94,9.94,0,0,1,3.46,6,10.68,10.68,0,0,0-4.2-5.05,27.19,27.19,0,0,0-6.06-2.73,122.56,122.56,0,0,1-13-4.59,31.82,31.82,0,0,1-11.31-8.36A29.36,29.36,0,0,1,170,102.65Z"/><path class="cls-19" d="M229.86,123.25c-2.65,1.11-5.85,1.69-8.78.35s-4.6-4.29-5.75-7c-2.28-5.58-3.13-11.4-4.39-17s-2.53-11.25-5-16.32a22.86,22.86,0,0,0-12.05-11.52,19.88,19.88,0,0,1,8,3.75,24.4,24.4,0,0,1,5.79,6.84c3,5.21,4.52,11,5.76,16.74l1.68,8.56a64.57,64.57,0,0,0,2.08,8.3c.93,2.61,2.21,5.22,4.52,6.63S227.05,123.85,229.86,123.25Z"/><path class="cls-19" d="M222.4,76.5a11.81,11.81,0,0,1,3.53,4.15,28.69,28.69,0,0,1,2.2,5.06A40.14,40.14,0,0,1,230,96.59a36.16,36.16,0,0,1-5.64,21.32,29.38,29.38,0,0,1-8,8,33.24,33.24,0,0,1-10.2,4.51c-7.2,1.89-14.68,1.66-21.81.47,7.23.24,14.51-.23,21.27-2.33a30.39,30.39,0,0,0,16.63-12c3.9-5.77,5.62-12.87,5.77-19.92A44.28,44.28,0,0,0,227,86C226.15,82.61,225,79.05,222.4,76.5Z"/><path class="cls-6" d="M272,348.57h-5.83v-15.8H272a8.63,8.63,0,0,1,4.16.94,6.53,6.53,0,0,1,2.69,2.72,8.75,8.75,0,0,1,.95,4.23,8.88,8.88,0,0,1-.94,4.24,6.5,6.5,0,0,1-2.7,2.72A8.63,8.63,0,0,1,272,348.57Zm-2-3.26h1.88a5.13,5.13,0,0,0,2.25-.45,2.94,2.94,0,0,0,1.39-1.47,8,8,0,0,0,0-5.45,3,3,0,0,0-1.41-1.47,5.22,5.22,0,0,0-2.29-.45h-1.82Z"/><path class="cls-6" d="M289,343.45v-6.73h3.76v11.85h-3.59v-2.21H289a3.36,3.36,0,0,1-1.33,1.72,3.94,3.94,0,0,1-2.28.64,4,4,0,0,1-2.13-.56,3.76,3.76,0,0,1-1.43-1.55,5.24,5.24,0,0,1-.52-2.34v-7.55h3.78v6.81a2.21,2.21,0,0,0,.5,1.52,1.76,1.76,0,0,0,1.37.55,2,2,0,0,0,1-.25,1.75,1.75,0,0,0,.72-.73A2.35,2.35,0,0,0,289,343.45Z"/><path class="cls-6" d="M300.07,348.79a6.62,6.62,0,0,1-3.21-.74,5,5,0,0,1-2.06-2.1,6.94,6.94,0,0,1-.72-3.26,6.79,6.79,0,0,1,.72-3.21,5.29,5.29,0,0,1,2-2.15,6.1,6.1,0,0,1,3.11-.77,6.38,6.38,0,0,1,2.32.4,5,5,0,0,1,1.81,1.16,5.48,5.48,0,0,1,1.19,1.9,7.44,7.44,0,0,1,.42,2.59v.94h-10.3v-2.19h6.79a2.11,2.11,0,0,0-.28-1.07,2.07,2.07,0,0,0-.76-.74,2.33,2.33,0,0,0-1.11-.26,2.23,2.23,0,0,0-1.13.28,2.16,2.16,0,0,0-.8.76,2.23,2.23,0,0,0-.31,1.09v2.23a2.68,2.68,0,0,0,.29,1.27,2.07,2.07,0,0,0,.81.85,2.46,2.46,0,0,0,1.25.3,2.9,2.9,0,0,0,.91-.14,2,2,0,0,0,.7-.41,1.67,1.67,0,0,0,.44-.66l3.46.1a4.29,4.29,0,0,1-.94,2,4.76,4.76,0,0,1-1.91,1.33A7.23,7.23,0,0,1,300.07,348.79Z"/><path class="cls-6" d="M317.78,336.72v2.77h-7.62v-2.77Zm-6,11.85V336.12a4.58,4.58,0,0,1,.52-2.28,3.26,3.26,0,0,1,1.44-1.36,4.73,4.73,0,0,1,2.12-.45,8.7,8.7,0,0,1,1.48.12c.47.08.81.15,1,.21l-.6,2.76a4,4,0,0,0-.51-.11,2.77,2.77,0,0,0-.56-.05,1.18,1.18,0,0,0-.91.29,1.26,1.26,0,0,0-.24.81v12.51Z"/><path class="cls-6" d="M324.1,348.79a6.34,6.34,0,0,1-3.2-.77,5.18,5.18,0,0,1-2.06-2.14,7.47,7.47,0,0,1,0-6.4,5.21,5.21,0,0,1,2.06-2.15,7.06,7.06,0,0,1,6.41,0,5.21,5.21,0,0,1,2.06,2.15,7.47,7.47,0,0,1,0,6.4,5.18,5.18,0,0,1-2.06,2.14A6.36,6.36,0,0,1,324.1,348.79Zm0-2.85a1.72,1.72,0,0,0,1.15-.41,2.74,2.74,0,0,0,.72-1.16,5.5,5.5,0,0,0,.25-1.71,5.59,5.59,0,0,0-.25-1.73,2.74,2.74,0,0,0-.72-1.16,1.67,1.67,0,0,0-1.15-.41,1.74,1.74,0,0,0-1.19.41,2.66,2.66,0,0,0-.73,1.16,5.31,5.31,0,0,0-.25,1.73,5.22,5.22,0,0,0,.25,1.71,2.66,2.66,0,0,0,.73,1.16A1.79,1.79,0,0,0,324.13,345.94Z"/><path class="cls-6" d="M331.39,348.57V336.72h3.67v2.16h.12a3.25,3.25,0,0,1,1.06-1.75,2.7,2.7,0,0,1,1.7-.57l.54,0a3.69,3.69,0,0,1,.52.1V340a3.28,3.28,0,0,0-.71-.14,5.63,5.63,0,0,0-.77-.06,2.44,2.44,0,0,0-1.21.3,2.14,2.14,0,0,0-.84.82,2.5,2.5,0,0,0-.3,1.24v6.44Z"/><path class="cls-6" d="M344,348.57V336.72h3.66v2.16h.12a3.25,3.25,0,0,1,1.06-1.75,2.71,2.71,0,0,1,1.71-.57l.54,0a3.84,3.84,0,0,1,.51.1V340a3.3,3.3,0,0,0-.7-.14,5.77,5.77,0,0,0-.78-.06,2.44,2.44,0,0,0-1.21.3,2.28,2.28,0,0,0-.84.82,2.5,2.5,0,0,0-.3,1.24v6.44Z"/><path class="cls-6" d="M357.4,348.79a6.62,6.62,0,0,1-3.21-.74,5,5,0,0,1-2.07-2.1,6.94,6.94,0,0,1-.72-3.26,6.67,6.67,0,0,1,.73-3.21,5.22,5.22,0,0,1,2-2.15,6.1,6.1,0,0,1,3.11-.77,6.37,6.37,0,0,1,2.31.4,5,5,0,0,1,1.82,1.16,5.32,5.32,0,0,1,1.18,1.9,7.21,7.21,0,0,1,.43,2.59v.94h-10.3v-2.19h6.79a2.11,2.11,0,0,0-.29-1.07,1.93,1.93,0,0,0-.76-.74,2.32,2.32,0,0,0-1.1-.26,2.29,2.29,0,0,0-1.14.28,2.14,2.14,0,0,0-1.1,1.85v2.23a2.68,2.68,0,0,0,.29,1.27,2.07,2.07,0,0,0,.81.85,2.46,2.46,0,0,0,1.25.3,2.94,2.94,0,0,0,.91-.14,2,2,0,0,0,.7-.41,1.78,1.78,0,0,0,.44-.66l3.46.1a4.29,4.29,0,0,1-.94,2,4.83,4.83,0,0,1-1.91,1.33A7.23,7.23,0,0,1,357.4,348.79Z"/><path class="cls-6" d="M375.49,336.72l-4.06,11.85h-4.32l-4.06-11.85h4l2.19,8.16h.12l2.19-8.16Z"/><path class="cls-6" d="M378.2,335.34a2,2,0,0,1-1.37-.53,1.71,1.71,0,0,1,0-2.55,2.06,2.06,0,0,1,2.74,0,1.73,1.73,0,0,1,0,2.55A2,2,0,0,1,378.2,335.34Zm-1.89,13.23V336.72h3.77v11.85Z"/><path class="cls-6" d="M387.38,348.79a6.62,6.62,0,0,1-3.21-.74,5,5,0,0,1-2.06-2.1,7.53,7.53,0,0,1,0-6.47,5.22,5.22,0,0,1,2-2.15,6.1,6.1,0,0,1,3.11-.77,6.42,6.42,0,0,1,2.32.4,5.07,5.07,0,0,1,1.81,1.16,5.48,5.48,0,0,1,1.19,1.9,7.44,7.44,0,0,1,.42,2.59v.94H382.7v-2.19h6.79a2.11,2.11,0,0,0-.28-1.07,2.07,2.07,0,0,0-.76-.74,2.36,2.36,0,0,0-1.11-.26,2.23,2.23,0,0,0-1.13.28,2.16,2.16,0,0,0-.8.76,2.23,2.23,0,0,0-.31,1.09v2.23a2.68,2.68,0,0,0,.29,1.27,2.07,2.07,0,0,0,.81.85,2.46,2.46,0,0,0,1.25.3,2.94,2.94,0,0,0,.91-.14,2,2,0,0,0,.7-.41,1.78,1.78,0,0,0,.44-.66l3.46.1a4.29,4.29,0,0,1-.94,2,4.83,4.83,0,0,1-1.91,1.33A7.23,7.23,0,0,1,387.38,348.79Z"/><path class="cls-6" d="M396.4,348.57l-3.09-11.85h3.79l1.6,7.59h.1l1.71-7.59h3.69l1.76,7.53h.1l1.55-7.53h3.79l-3.09,11.85h-4l-1.85-6.91h-.13l-1.85,6.91Z"/><circle class="cls-20" cx="338.81" cy="282.56" r="38.83" transform="translate(-100.57 322.34) rotate(-45)"/><path class="cls-6" d="M334.2,288.91a9.08,9.08,0,0,0,1.66,5.85,4.82,4.82,0,0,0,3.81,2.06,4.28,4.28,0,0,0,3.44-1.68c.91-1.13,1.37-3,1.37-5.54S344,285,343,283.81a4.63,4.63,0,0,0-7.32-.09A7.87,7.87,0,0,0,334.2,288.91ZM351,272l-7.19.84a5.61,5.61,0,0,0-1.38-3.43,3.9,3.9,0,0,0-2.88-1.11,4.81,4.81,0,0,0-4,2.21q-1.64,2.22-2.05,9.22a8.54,8.54,0,0,1,6.9-3.44,10.34,10.34,0,0,1,8,3.71,13.81,13.81,0,0,1,3.32,9.57q0,6.23-3.49,10a11.67,11.67,0,0,1-9,3.76,11.79,11.79,0,0,1-9.65-4.77q-3.78-4.77-3.78-15.64,0-11.16,3.94-16.08A12.48,12.48,0,0,1,340,261.86a10.58,10.58,0,0,1,7.31,2.58A12.37,12.37,0,0,1,351,272Z"/></g></g></svg>