<svg xmlns="http://www.w3.org/2000/svg" viewBox="0 0 422 394.1"><defs><style>.cls-1{font-size:9.31px;letter-spacing:-0.03em;}.cls-1,.cls-20{fill:#22dd57;}.cls-1,.cls-11,.cls-26,.cls-6{font-family:Inter-ExtraBold, Inter;font-weight:800;}.cls-2{letter-spacing:-0.03em;}.cls-3{letter-spacing:-0.03em;}.cls-4{fill:#8a9299;}.cls-5{fill:#b3bdc6;}.cls-6{font-size:17.11px;letter-spacing:-0.03em;}.cls-11,.cls-26,.cls-33,.cls-6{fill:#fff;}.cls-7{letter-spacing:-0.06em;}.cls-8{fill:#ff9d33;}.cls-9{fill:#ffce31;}.cls-10{fill:#ffdf85;}.cls-11{font-size:26.69px;letter-spacing:-0.03em;}.cls-12{fill:#0f54ef;}.cls-13{fill:#0e4fc1;}.cls-14{fill:#0d479b;}.cls-15{fill:#0b3970;}.cls-16{letter-spacing:-0.05em;}.cls-17{letter-spacing:-0.02em;}.cls-18{letter-spacing:-0.03em;}.cls-19{fill:none;stroke:#22dd57;stroke-linecap:round;stroke-miterlimit:10;stroke-width:11px;}.cls-20{font-size:11.79px;font-family:Inter-SemiBold, Inter;font-weight:600;letter-spacing:-0.03em;}.cls-21{letter-spacing:-0.03em;}.cls-22{fill:#d0d0d0;}.cls-23{fill:#ed4c5c;}.cls-24{fill:#ff8736;}.cls-25{fill:#231f20;}.cls-26{font-size:21.72px;letter-spacing:-0.03em;}.cls-27{letter-spacing:-0.05em;}.cls-28{letter-spacing:-0.06em;}.cls-29{letter-spacing:-0.04em;}.cls-30{letter-spacing:-0.03em;}.cls-31{letter-spacing:-0.03em;}.cls-32{fill:#4fd1d9;}</style></defs><g id="Layer_2" data-name="Layer 2"><g id="Layer_1-2" data-name="Layer 1"><text class="cls-1" transform="translate(212.74 36.43)">98% comple<tspan class="cls-2" x="54.15" y="0">t</tspan><tspan class="cls-3" x="57.52" y="0">e</tspan></text><rect class="cls-4" x="248.86" y="199.24" width="173.14" height="194.86" rx="66.09"/><rect class="cls-5" y="111.12" width="145.84" height="145.84" rx="66.09"/><text class="cls-6" transform="translate(50.37 142.07) rotate(1.91)">St<tspan class="cls-7" x="17.09" y="0">r</tspan><tspan x="23.32" y="0">eak</tspan></text><path class="cls-8" d="M96.27,179.64A63.27,63.27,0,0,1,89,185.12c-1.26-7.29-4.72-16.29-11.58-27.27a69.6,69.6,0,0,1-9.72,22.93,47.74,47.74,0,0,1-4.66-9C39.47,195.29,59,212,71.21,212,86.92,212,100.75,204.41,96.27,179.64Z"/><path class="cls-9" d="M87,200.62a31.41,31.41,0,0,0,2.52-11.72,42.6,42.6,0,0,1-5.12,3.66c-.88-4.86-3.3-10.86-8.11-18.19a45.13,45.13,0,0,1-6.8,15.3,31.59,31.59,0,0,1-3.26-6c-3.91,6.15-5.43,11-5.52,14.84A34.37,34.37,0,0,1,57.25,197c3.7,11,11.34,13.42,14.77,13.42,6.11,0,12.34-1.81,18.51-10.56A35,35,0,0,1,87,200.62Z"/><path class="cls-10" d="M64.68,195.59s2.52,3.45,4.43,2.62A31.88,31.88,0,0,1,78,189.37s-1.08,8.66.16,10.19c1.64,2,6.07-2.26,6.07-2.26,0,5.12-5.6,11.57-10.61,11.57S61.59,203.32,64.68,195.59Z"/><path class="cls-8" d="M89.79,172.38A41,41,0,0,0,93,166.83c3.17,5.21,1.3,8.38-.09,9.41C91,177.63,87.61,175.55,89.79,172.38Z"/><path class="cls-8" d="M55.33,171.49a18.1,18.1,0,0,1-2.06-7.14C48.76,171.16,50.52,174.86,52,176,54,177.49,57.46,175.17,55.33,171.49Z"/><path class="cls-8" d="M65.83,164.42a10.46,10.46,0,0,0-.66-4.35c4.28,2.76,4.23,5.17,3.67,6.11C68.09,167.43,65.56,166.89,65.83,164.42Z"/><text class="cls-11" transform="translate(57.65 241.56)">25</text><rect class="cls-12" x="151.25" y="8.13" width="134.51" height="211.25" rx="31.59" transform="translate(66.27 -79.92) rotate(24.33)"/><rect class="cls-13" x="151.25" y="8.13" width="134.51" height="211.25" rx="31.59" transform="translate(43.18 -59.3) rotate(17.12)"/><rect class="cls-14" x="151.25" y="8.13" width="134.51" height="211.25" rx="31.59" transform="translate(17.49 -28.65) rotate(7.81)"/><rect class="cls-15" x="151.25" y="8.13" width="134.51" height="211.25" rx="31.59" transform="translate(0.99 -1.89) rotate(0.5)"/><text class="cls-6" transform="translate(167.52 199.44) rotate(1.91)">Bas<tspan class="cls-16" x="29.73" y="0">k</tspan><tspan x="39.01" y="0">e</tspan><tspan class="cls-17" x="48.83" y="0">t</tspan><tspan class="cls-18" x="55.31" y="0">ball</tspan></text><path class="cls-19" d="M267.07,8.54A19.6,19.6,0,0,1,286.5,28.31l-1.48,172a19.6,19.6,0,0,1-19.78,19.43l-95.3-.82a19.61,19.61,0,0,1-19.43-19.77l1.49-172A19.6,19.6,0,0,1,171.77,7.72l54.41.47"/><text class="cls-20" transform="translate(194.49 36.13)">98% comple<tspan class="cls-21" x="66.7" y="0">t</tspan><tspan x="70.77" y="0">e</tspan></text><path class="cls-22" d="M236.47,169.87a2,2,0,0,1-1.13-.34,1.75,1.75,0,0,1-.75-1.9c0-.17,4.22-17.87-20.37-37.37a1.71,1.71,0,0,1-.21-2.54,2,2,0,0,1,2.73-.2c19.63,15.57,22.15,30.09,22.06,36.92,15.76-10.18,24.61-20.64,26.3-31.11a20,20,0,0,0-4-16,1.72,1.72,0,0,1,.24-2.54,2,2,0,0,1,2.73.22A23.54,23.54,0,0,1,269,133.76c-1.94,12.3-12.51,24.35-31.43,35.82A2.08,2.08,0,0,1,236.47,169.87Z"/><path class="cls-22" d="M219.15,169.87a2,2,0,0,1-1.25-.43,1.72,1.72,0,0,1-.51-2.14c.3-.61,7.25-15.34-11.5-35.12a1.71,1.71,0,0,1,.17-2.54,2,2,0,0,1,2.74.16c13.94,14.71,14.69,27.12,13.62,33.79,31.65-22.52,28.64-41.4,28.6-41.59a1.79,1.79,0,0,1,1.06-1.93,2.06,2.06,0,0,1,2.28.39c21.26,21.48,6.7,34.66,6.55,34.79a2,2,0,0,1-2.74-.08,1.71,1.71,0,0,1,.08-2.54c.47-.42,10.34-9.62-3.4-26.07-1,8.1-6.68,24.67-34.59,43A2,2,0,0,1,219.15,169.87Z"/><path class="cls-22" d="M251.55,169.87a2,2,0,0,1-.54-.08,1.78,1.78,0,0,1-1.32-2.23c.23-.74,4.82-17-16.94-35.6-1.71,5.73-7,18.41-22.47,30.72a2,2,0,0,1-2.73-.2,1.71,1.71,0,0,1,.21-2.54c19.22-15.29,21.88-31.44,21.9-31.6a1.83,1.83,0,0,1,1.23-1.43,2,2,0,0,1,2,.31c26.57,21.08,20.83,40.53,20.57,41.35A1.93,1.93,0,0,1,251.55,169.87Z"/><path class="cls-23" d="M254.31,105.31c-12.81,0-36.32,8.57-44.13,16.1-1.57,1.5-4.25,5.54,6.93,5.54,13.95,0,35.1-8.67,41.61-16.32C261,107.91,262.22,105.31,254.31,105.31Zm-37.2,30c-21,0-18.45-10.21-15.59-14,7.78-10.46,37.28-21.08,52.79-21.08,17.92,0,15,9.88,11.26,15C257.1,126.54,232.57,135.35,217.11,135.35Z"/><circle class="cls-24" cx="202.94" cy="103.54" r="33.16" transform="translate(-13.77 173.83) rotate(-45)"/><path class="cls-25" d="M179.34,80.25a33.56,33.56,0,0,0,3.23,7.84c1.31,2.5,2.79,4.91,4.33,7.28A147.08,147.08,0,0,0,197,109a117.14,117.14,0,0,0,11.61,12.27,59.23,59.23,0,0,0,6.62,5.21,25.1,25.1,0,0,0,7.61,3.64,22.13,22.13,0,0,1-8.22-2.59,46.77,46.77,0,0,1-7.25-4.77,83.61,83.61,0,0,1-12.28-12.17,97.43,97.43,0,0,1-9.82-14.19,65.54,65.54,0,0,1-3.78-7.77A28.36,28.36,0,0,1,179.34,80.25Z"/><path class="cls-25" d="M169.79,102.65a41.16,41.16,0,0,0,7.52,11.16,35.88,35.88,0,0,0,10.93,7.41c4,1.9,8.4,3.2,12.68,5a23.73,23.73,0,0,1,6.09,3.57,9.89,9.89,0,0,1,3.46,6,10.62,10.62,0,0,0-4.2-5.05,26.91,26.91,0,0,0-6.05-2.73,122.56,122.56,0,0,1-13-4.59,31.85,31.85,0,0,1-11.32-8.36A29.59,29.59,0,0,1,169.79,102.65Z"/><path class="cls-25" d="M229.62,123.25c-2.65,1.11-5.85,1.69-8.78.35s-4.61-4.29-5.75-7c-2.28-5.58-3.13-11.4-4.39-17s-2.53-11.25-5-16.32a22.89,22.89,0,0,0-12-11.52,19.88,19.88,0,0,1,8,3.75,24.21,24.21,0,0,1,5.78,6.84c3,5.21,4.52,11,5.77,16.74l1.68,8.56a63,63,0,0,0,2.08,8.3c.93,2.61,2.2,5.22,4.52,6.63S226.8,123.85,229.62,123.25Z"/><path class="cls-25" d="M222.15,76.5a11.84,11.84,0,0,1,3.54,4.15,28.69,28.69,0,0,1,2.2,5.06,40.14,40.14,0,0,1,1.84,10.88,36.31,36.31,0,0,1-5.64,21.32,29.52,29.52,0,0,1-8,8,33.35,33.35,0,0,1-10.2,4.51c-7.21,1.89-14.68,1.66-21.81.47,7.23.24,14.51-.23,21.27-2.33a30.36,30.36,0,0,0,16.62-12c3.91-5.77,5.63-12.87,5.77-19.92A43.77,43.77,0,0,0,226.72,86C225.91,82.61,224.76,79.05,222.15,76.5Z"/><text class="cls-26" transform="translate(264.69 348.57)">Due <tspan class="cls-27" x="44.92" y="0">f</tspan><tspan x="52.45" y="0">or </tspan><tspan class="cls-28" x="77.83" y="0">r</tspan><tspan class="cls-29" x="85.73" y="0">e</tspan><tspan class="cls-30" x="97.88" y="0">vi</tspan><tspan class="cls-31" x="115.71" y="0">e</tspan><tspan x="128.06" y="0">w</tspan></text><circle class="cls-32" cx="338.57" cy="282.56" r="38.83" transform="translate(-100.64 322.16) rotate(-45)"/><path class="cls-33" d="M334,288.91a9.08,9.08,0,0,0,1.67,5.85,4.82,4.82,0,0,0,3.81,2.06,4.25,4.25,0,0,0,3.43-1.68c.92-1.13,1.38-3,1.38-5.54s-.5-4.56-1.48-5.79a4.64,4.64,0,0,0-7.33-.09A7.93,7.93,0,0,0,334,288.91Zm16.84-17-7.19.84a5.55,5.55,0,0,0-1.37-3.43,3.9,3.9,0,0,0-2.88-1.11,4.81,4.81,0,0,0-4,2.21q-1.64,2.22-2.05,9.22a8.54,8.54,0,0,1,6.9-3.44,10.34,10.34,0,0,1,8,3.71,13.81,13.81,0,0,1,3.32,9.57q0,6.23-3.49,10a12.33,12.33,0,0,1-18.61-1q-3.8-4.77-3.79-15.64,0-11.16,3.94-16.08a12.51,12.51,0,0,1,10.24-4.92,10.58,10.58,0,0,1,7.31,2.58A12.31,12.31,0,0,1,350.79,272Z"/></g></g></svg>