<svg xmlns="http://www.w3.org/2000/svg" xmlns:xlink="http://www.w3.org/1999/xlink" viewBox="0 0 1735.34 524.86"><defs><style>.cls-1{fill:#fff;stroke:url(#linear-gradient);}.cls-1,.cls-2{stroke-miterlimit:10;stroke-width:6px;}.cls-2{stroke:#fff;fill:url(#linear-gradient-2);}.cls-3{fill:#1e2a38;}.cls-4{fill:#b3bdc6;}.cls-5{fill:#546372;}</style><linearGradient id="linear-gradient" x1="995.25" y1="176.76" x2="1643.23" y2="176.76" gradientTransform="translate(-0.01 0.06)" gradientUnits="userSpaceOnUse"><stop offset="0" stop-color="#fff"/><stop offset="1" stop-color="#0f54ef"/></linearGradient><linearGradient id="linear-gradient-2" x1="927.1" y1="212.69" x2="1569.08" y2="212.69" xlink:href="#linear-gradient"/></defs><g id="Layer_2" data-name="Layer 2"><g id="Layer_1-2" data-name="Layer 1"><path class="cls-1" d="M998.29,344l159.46-236.22a17.61,17.61,0,0,1,7.07-6.16c4-1.88,8.6-2.11,11.41,1,13.57,15.21,50.09,44.78,51.26,42.06,1.24-2.91,75.62-109.39,102.68-137.43a14.22,14.22,0,0,1,20.82.39l285.59,319a14.22,14.22,0,0,1-10.59,23.7S992.5,350.74,998.29,344Z"/><path class="cls-2" d="M927.15,380,1086.6,143.75a17.61,17.61,0,0,1,7.07-6.16c4-1.88,8.61-2.11,11.42,1,13.56,15.22,50.08,44.78,51.25,42.06C1157.59,177.79,1232,71.31,1259,43.28a14.2,14.2,0,0,1,20.82.39l285.6,319a14.22,14.22,0,0,1-10.6,23.7S921.35,386.67,927.15,380Z"/><path class="cls-3" d="M261.56,314.56v-54h13.05V304h22.47v10.6Z"/><path class="cls-3" d="M320.61,315.33a22.49,22.49,0,0,1-11-2.52,17.16,17.16,0,0,1-7.07-7.2,23.66,23.66,0,0,1-2.46-11.14,23.22,23.22,0,0,1,2.48-11,18,18,0,0,1,7-7.34,20.8,20.8,0,0,1,10.62-2.62,22.3,22.3,0,0,1,7.91,1.35,16.9,16.9,0,0,1,6.2,4,18.19,18.19,0,0,1,4.06,6.5,24.94,24.94,0,0,1,1.45,8.84v3.22h-35.2v-7.49h23.2a7.29,7.29,0,0,0-1-3.66,6.84,6.84,0,0,0-2.6-2.52,7.66,7.66,0,0,0-3.78-.91,7.78,7.78,0,0,0-3.88,1,7.33,7.33,0,0,0-2.72,2.61,7.43,7.43,0,0,0-1.05,3.73v7.62a9.2,9.2,0,0,0,1,4.34,7.08,7.08,0,0,0,2.77,2.89,8.52,8.52,0,0,0,4.27,1,9.59,9.59,0,0,0,3.12-.48,6.53,6.53,0,0,0,2.4-1.4,5.9,5.9,0,0,0,1.5-2.26l11.84.34a14.63,14.63,0,0,1-3.23,6.92,16.36,16.36,0,0,1-6.53,4.56A24.91,24.91,0,0,1,320.61,315.33Z"/><path class="cls-3" d="M355.71,315.25a17.08,17.08,0,0,1-6.87-1.31,10.56,10.56,0,0,1-4.72-3.95,12,12,0,0,1-1.72-6.66,12.45,12.45,0,0,1,1.18-5.7,10.2,10.2,0,0,1,3.27-3.77,15.53,15.53,0,0,1,4.8-2.2,32.46,32.46,0,0,1,5.8-1c2.31-.21,4.16-.43,5.57-.67a7.83,7.83,0,0,0,3.07-1,2.18,2.18,0,0,0,1-1.91v-.13a3.79,3.79,0,0,0-1.4-3.14,5.9,5.9,0,0,0-3.77-1.11,6.94,6.94,0,0,0-4.11,1.11,4.88,4.88,0,0,0-2,3.06l-11.89-.42a14.09,14.09,0,0,1,2.73-6.61,14.74,14.74,0,0,1,6.06-4.58,23.28,23.28,0,0,1,9.3-1.68,26.43,26.43,0,0,1,7.14.91,18.25,18.25,0,0,1,5.7,2.64,11.69,11.69,0,0,1,5.09,9.95v27.53H367.79v-5.64h-.32a11.68,11.68,0,0,1-2.75,3.48,11.15,11.15,0,0,1-3.93,2.13A16.67,16.67,0,0,1,355.71,315.25Zm4-8.44a8.16,8.16,0,0,0,3.76-.85,6.9,6.9,0,0,0,2.68-2.33,6,6,0,0,0,1-3.47v-3.85a7.36,7.36,0,0,1-1.33.53c-.52.16-1.09.31-1.7.45s-1.25.26-1.9.37l-1.87.29a11.05,11.05,0,0,0-3.1.9,4.82,4.82,0,0,0-2,1.56,3.91,3.91,0,0,0-.68,2.28,3.55,3.55,0,0,0,1.44,3.06A6,6,0,0,0,359.69,306.81Z"/><path class="cls-3" d="M385.62,314.56v-40.5h12.53v7.38h.42a11,11,0,0,1,3.61-6,9.17,9.17,0,0,1,5.83-2,14.84,14.84,0,0,1,1.85.12,11.17,11.17,0,0,1,1.76.36v11.21a12.1,12.1,0,0,0-2.41-.5,20.59,20.59,0,0,0-2.65-.19,8.35,8.35,0,0,0-4.13,1,7.27,7.27,0,0,0-2.87,2.82,8.24,8.24,0,0,0-1,4.23v22Z"/><path class="cls-3" d="M427.64,291.46v23.1h-12.9v-40.5H427v7.43h.45a11.52,11.52,0,0,1,4.59-5.84,13.82,13.82,0,0,1,7.72-2.12,14.09,14.09,0,0,1,7.43,1.91,13.09,13.09,0,0,1,4.9,5.33,17,17,0,0,1,1.73,8v25.81H440.93V291.28a7.48,7.48,0,0,0-1.71-5.28,6.15,6.15,0,0,0-4.78-1.9,7,7,0,0,0-3.57.89,6,6,0,0,0-2.38,2.52A8.8,8.8,0,0,0,427.64,291.46Z"/><path class="cls-3" d="M484.92,315.25a17,17,0,0,1-6.86-1.31,10.51,10.51,0,0,1-4.72-3.95,11.91,11.91,0,0,1-1.73-6.66,12.32,12.32,0,0,1,1.19-5.7,10.2,10.2,0,0,1,3.27-3.77,15.37,15.37,0,0,1,4.79-2.2,32.41,32.41,0,0,1,5.81-1q3.45-.31,5.56-.67a7.77,7.77,0,0,0,3.07-1,2.18,2.18,0,0,0,1-1.91v-.13a3.78,3.78,0,0,0-1.39-3.14,5.93,5.93,0,0,0-3.78-1.11,6.94,6.94,0,0,0-4.11,1.11,4.88,4.88,0,0,0-2,3.06l-11.89-.42a14.09,14.09,0,0,1,2.73-6.61,14.71,14.71,0,0,1,6.07-4.58,23.19,23.19,0,0,1,9.29-1.68,26.51,26.51,0,0,1,7.15.91,18.19,18.19,0,0,1,5.69,2.64,12.15,12.15,0,0,1,3.76,4.23,12,12,0,0,1,1.33,5.72v27.53H497v-5.64h-.31a11.71,11.71,0,0,1-2.76,3.48,11.15,11.15,0,0,1-3.93,2.13A16.62,16.62,0,0,1,484.92,315.25Zm4-8.44a8.12,8.12,0,0,0,3.75-.85,6.9,6.9,0,0,0,2.68-2.33,6,6,0,0,0,1-3.47v-3.85a7.36,7.36,0,0,1-1.33.53c-.52.16-1.08.31-1.7.45s-1.25.26-1.9.37l-1.87.29a11.16,11.16,0,0,0-3.1.9,4.82,4.82,0,0,0-1.95,1.56,3.9,3.9,0,0,0-.67,2.28,3.57,3.57,0,0,0,1.43,3.06A6,6,0,0,0,488.91,306.81Z"/><path class="cls-3" d="M527.73,291.46v23.1h-12.9v-40.5H527.1v7.43h.44a11.52,11.52,0,0,1,4.59-5.84,13.84,13.84,0,0,1,7.73-2.12,14.06,14.06,0,0,1,7.42,1.91,13.11,13.11,0,0,1,4.91,5.33,17.12,17.12,0,0,1,1.72,8v25.81H541V291.28a7.48,7.48,0,0,0-1.7-5.28,6.17,6.17,0,0,0-4.79-1.9A7.06,7.06,0,0,0,531,285a5.89,5.89,0,0,0-2.37,2.52A8.79,8.79,0,0,0,527.73,291.46Z"/><path class="cls-3" d="M566.18,329.7a25.35,25.35,0,0,1-4.37-.36,18.21,18.21,0,0,1-3.54-.94l2.85-9.36a11,11,0,0,0,4.81.65,4,4,0,0,0,3-2.44l.5-1.21-14.39-42h13.5L576,303h.42l7.57-28.9,13.58,0-15.27,44.36a19.32,19.32,0,0,1-3.12,5.81,13.88,13.88,0,0,1-5.2,4A18.89,18.89,0,0,1,566.18,329.7Z"/><path class="cls-3" d="M623.23,274.06v9.49H597.68v-9.49ZM603,264.35h12.89v37.47a4.2,4.2,0,0,0,.38,1.92,2.16,2.16,0,0,0,1.13,1,4.47,4.47,0,0,0,1.76.31,8.84,8.84,0,0,0,1.57-.15c.55-.09,1-.18,1.25-.25l2,9.31c-.61.18-1.48.4-2.59.66a22.32,22.32,0,0,1-4,.5,18.56,18.56,0,0,1-7.76-1.07,9.87,9.87,0,0,1-4.93-4,12.26,12.26,0,0,1-1.65-6.83Z"/><path class="cls-3" d="M641.4,291.46v23.1H628.51v-54H641v20.93h.45a11.73,11.73,0,0,1,4.49-5.85,13.37,13.37,0,0,1,7.66-2.11,14.24,14.24,0,0,1,7.44,1.89,12.77,12.77,0,0,1,4.92,5.31,17.14,17.14,0,0,1,1.72,8v25.81H654.77V291.28a7.52,7.52,0,0,0-1.69-5.28,6.18,6.18,0,0,0-4.82-1.9,7.07,7.07,0,0,0-3.58.89,6.21,6.21,0,0,0-2.4,2.52A8.66,8.66,0,0,0,641.4,291.46Z"/><path class="cls-3" d="M680,269.34a6.63,6.63,0,0,1-4.69-1.81,5.83,5.83,0,0,1,0-8.7,6.94,6.94,0,0,1,9.35,0,5.87,5.87,0,0,1,0,8.7A6.59,6.59,0,0,1,680,269.34Zm-6.48,45.22v-40.5h12.89v40.5Z"/><path class="cls-3" d="M705.33,291.46v23.1H692.44v-40.5H704.7v7.43h.45a11.52,11.52,0,0,1,4.59-5.84,13.8,13.8,0,0,1,7.72-2.12,14.09,14.09,0,0,1,7.43,1.91,13.09,13.09,0,0,1,4.9,5.33,17.12,17.12,0,0,1,1.73,8v25.81h-12.9V291.28a7.48,7.48,0,0,0-1.7-5.28,6.15,6.15,0,0,0-4.78-1.9,7.07,7.07,0,0,0-3.58.89,6,6,0,0,0-2.37,2.52A8.93,8.93,0,0,0,705.33,291.46Z"/><path class="cls-3" d="M756.26,330.25a27.68,27.68,0,0,1-9.89-1.58,15.88,15.88,0,0,1-6.46-4.31,11.8,11.8,0,0,1-2.82-6.11l12.21-.68a4.29,4.29,0,0,0,1.28,1.92,6.58,6.58,0,0,0,2.45,1.33,11.54,11.54,0,0,0,3.57.49,9,9,0,0,0,5.37-1.53q2.12-1.53,2.12-5.17v-7.12h-.45a9.5,9.5,0,0,1-2.32,3.35,10.81,10.81,0,0,1-3.86,2.32,15.17,15.17,0,0,1-5.29.85,16.28,16.28,0,0,1-8.11-2.07,14.75,14.75,0,0,1-5.88-6.44,25,25,0,0,1-2.2-11.24,26.48,26.48,0,0,1,2.27-11.7,15.77,15.77,0,0,1,6-6.81,15,15,0,0,1,7.92-2.22,12.53,12.53,0,0,1,5.47,1.1,11.46,11.46,0,0,1,3.76,2.8,13.46,13.46,0,0,1,2.24,3.56H764v-6.93H776.8v40.66a13.76,13.76,0,0,1-2.58,8.45,16,16,0,0,1-7.23,5.27A29.32,29.32,0,0,1,756.26,330.25Zm.4-25.63a6.46,6.46,0,0,0,4-1.24,7.82,7.82,0,0,0,2.56-3.56,15.39,15.39,0,0,0,.9-5.56,16.42,16.42,0,0,0-.89-5.69,8,8,0,0,0-2.55-3.67,6.9,6.9,0,0,0-8.09,0,8.13,8.13,0,0,0-2.51,3.71,16.66,16.66,0,0,0-.86,5.63,15.87,15.87,0,0,0,.87,5.56,7.69,7.69,0,0,0,2.52,3.56A6.53,6.53,0,0,0,756.66,304.62Z"/><path class="cls-3" d="M796,307.18l-.24,2.92a39.22,39.22,0,0,1-1.28,7.11,65.5,65.5,0,0,1-2,6.24c-.73,1.84-1.3,3.28-1.72,4.29h-8.12c.28-1,.66-2.45,1.15-4.29s.93-3.93,1.36-6.25a46.15,46.15,0,0,0,.71-7.07l0-2.95Z"/><path class="cls-3" d="M825.61,315.25a17,17,0,0,1-6.87-1.31A10.51,10.51,0,0,1,814,310a12,12,0,0,1-1.73-6.66,12.45,12.45,0,0,1,1.19-5.7,10.2,10.2,0,0,1,3.27-3.77,15.53,15.53,0,0,1,4.8-2.2,32.3,32.3,0,0,1,5.8-1c2.3-.21,4.16-.43,5.56-.67a7.77,7.77,0,0,0,3.07-1,2.16,2.16,0,0,0,1-1.91v-.13a3.79,3.79,0,0,0-1.4-3.14,5.9,5.9,0,0,0-3.77-1.11,6.9,6.9,0,0,0-4.11,1.11,4.88,4.88,0,0,0-2,3.06l-11.89-.42a14.09,14.09,0,0,1,2.73-6.61,14.61,14.61,0,0,1,6.06-4.58,23.19,23.19,0,0,1,9.29-1.68,26.45,26.45,0,0,1,7.15.91,18.25,18.25,0,0,1,5.7,2.64,12.12,12.12,0,0,1,3.75,4.23,12,12,0,0,1,1.33,5.72v27.53H837.69v-5.64h-.32a11.55,11.55,0,0,1-2.76,3.48,11,11,0,0,1-3.93,2.13A16.6,16.6,0,0,1,825.61,315.25Zm4-8.44a8.16,8.16,0,0,0,3.76-.85,6.87,6.87,0,0,0,2.67-2.33,6.05,6.05,0,0,0,1-3.47v-3.85a7.48,7.48,0,0,1-1.34.53c-.51.16-1.08.31-1.7.45s-1.24.26-1.89.37l-1.88.29a11.08,11.08,0,0,0-3.09.9,4.79,4.79,0,0,0-2,1.56,4,4,0,0,0-.67,2.28,3.55,3.55,0,0,0,1.44,3.06A6,6,0,0,0,829.59,306.81Z"/><path class="cls-3" d="M868.41,291.46v23.1H855.52v-40.5h12.26v7.43h.45a11.47,11.47,0,0,1,4.59-5.84,13.8,13.8,0,0,1,7.72-2.12,14.12,14.12,0,0,1,7.43,1.91,13.09,13.09,0,0,1,4.9,5.33,17.12,17.12,0,0,1,1.73,8v25.81H881.7V291.28A7.48,7.48,0,0,0,880,286a6.15,6.15,0,0,0-4.78-1.9,7.07,7.07,0,0,0-3.58.89,5.89,5.89,0,0,0-2.37,2.52A8.93,8.93,0,0,0,868.41,291.46Z"/><path class="cls-3" d="M906.87,329.7a25.38,25.38,0,0,1-4.38-.36,18.09,18.09,0,0,1-3.53-.94L901.8,319a11.06,11.06,0,0,0,4.82.65,4,4,0,0,0,3-2.44l.5-1.21-14.4-42h13.5L916.7,303h.42l7.57-28.9,13.58,0L923,318.44a19.1,19.1,0,0,1-3.12,5.81,13.8,13.8,0,0,1-5.2,4A18.84,18.84,0,0,1,906.87,329.7Z"/><path class="cls-3" d="M963.91,274.06v9.49H938.36v-9.49Zm-20.2-9.71h12.9v37.47a4.07,4.07,0,0,0,.38,1.92,2.14,2.14,0,0,0,1.12,1,4.49,4.49,0,0,0,1.77.31,8.74,8.74,0,0,0,1.56-.15c.56-.09,1-.18,1.26-.25l1.95,9.31c-.62.18-1.48.4-2.6.66a22.31,22.31,0,0,1-4,.5,18.58,18.58,0,0,1-7.77-1.07,9.92,9.92,0,0,1-4.93-4,12.43,12.43,0,0,1-1.65-6.83Z"/><path class="cls-3" d="M974.83,269.34a6.65,6.65,0,0,1-4.69-1.81,5.83,5.83,0,0,1,0-8.7,6.94,6.94,0,0,1,9.35,0,5.85,5.85,0,0,1,0,8.7A6.58,6.58,0,0,1,974.83,269.34Zm-6.48,45.22v-40.5h12.89v40.5Z"/><path class="cls-3" d="M987.26,314.56v-40.5h12.26v7.43h.45a11.55,11.55,0,0,1,4.27-5.82,13.13,13.13,0,0,1,14.4,0,9.5,9.5,0,0,1,3.82,5.8h.43a10.55,10.55,0,0,1,4.43-5.78,13.77,13.77,0,0,1,7.77-2.18,12.47,12.47,0,0,1,9.34,3.68q3.58,3.68,3.58,10.09v27.26h-12.89V290.25a6.37,6.37,0,0,0-1.56-4.63,5.38,5.38,0,0,0-4-1.59,5.28,5.28,0,0,0-4.18,1.72,6.78,6.78,0,0,0-1.51,4.63v24.18h-12.4V290.12a6.27,6.27,0,0,0-1.53-4.46,5.25,5.25,0,0,0-4-1.63,5.33,5.33,0,0,0-5,3.08,7.89,7.89,0,0,0-.72,3.48v24Z"/><path class="cls-3" d="M1072.81,315.33a22.49,22.49,0,0,1-11-2.52,17.14,17.14,0,0,1-7.06-7.2,23.54,23.54,0,0,1-2.47-11.14,23.22,23.22,0,0,1,2.48-11,18,18,0,0,1,7-7.34,20.83,20.83,0,0,1,10.62-2.62,22.26,22.26,0,0,1,7.91,1.35,16.82,16.82,0,0,1,6.2,4,18.06,18.06,0,0,1,4.06,6.5,24.94,24.94,0,0,1,1.45,8.84v3.22h-35.2v-7.49H1080a7.19,7.19,0,0,0-1-3.66,6.77,6.77,0,0,0-2.6-2.52,7.66,7.66,0,0,0-3.78-.91,7.81,7.81,0,0,0-3.88,1,7.23,7.23,0,0,0-2.71,2.61,7.44,7.44,0,0,0-1.06,3.73v7.62a9.2,9.2,0,0,0,1,4.34,7,7,0,0,0,2.77,2.89,8.46,8.46,0,0,0,4.27,1,9.53,9.53,0,0,0,3.11-.48,6.53,6.53,0,0,0,2.4-1.4,5.68,5.68,0,0,0,1.5-2.26l11.84.34a14.63,14.63,0,0,1-3.23,6.92,16.36,16.36,0,0,1-6.53,4.56A24.91,24.91,0,0,1,1072.81,315.33Z"/><path class="cls-3" d="M1109.66,307.18l-.24,2.92a39.22,39.22,0,0,1-1.28,7.11,65.5,65.5,0,0,1-2,6.24c-.73,1.84-1.3,3.28-1.72,4.29h-8.12c.28-1,.66-2.45,1.15-4.29s.93-3.93,1.35-6.25a44.94,44.94,0,0,0,.72-7.07l0-2.95Z"/><path class="cls-3" d="M1150.86,274.06v9.49h-26v-9.49Zm-20.62,40.5V272a15.53,15.53,0,0,1,1.77-7.79,11.2,11.2,0,0,1,4.9-4.64,16.21,16.21,0,0,1,7.25-1.54,29.29,29.29,0,0,1,5.08.41c1.59.27,2.77.51,3.55.72l-2.06,9.44a10.19,10.19,0,0,0-1.73-.39,11.9,11.9,0,0,0-1.91-.16,3.91,3.91,0,0,0-3.11,1,4.14,4.14,0,0,0-.84,2.74v42.77Z"/><path class="cls-3" d="M1172.49,315.33a21.65,21.65,0,0,1-11-2.63,17.76,17.76,0,0,1-7-7.33,25.46,25.46,0,0,1,0-21.88,17.79,17.79,0,0,1,7-7.34,24.21,24.21,0,0,1,21.91,0,17.85,17.85,0,0,1,7,7.34,25.56,25.56,0,0,1,0,21.88,17.82,17.82,0,0,1-7,7.33A21.66,21.66,0,0,1,1172.49,315.33Zm.08-9.73a5.71,5.71,0,0,0,3.93-1.43,9.14,9.14,0,0,0,2.47-3.95,20.76,20.76,0,0,0,0-11.76,9.11,9.11,0,0,0-2.47-4,5.7,5.7,0,0,0-3.93-1.42,6,6,0,0,0-4,1.42,8.8,8.8,0,0,0-2.5,4,20.53,20.53,0,0,0,0,11.76,8.82,8.82,0,0,0,2.5,3.95A6,6,0,0,0,1172.57,305.6Z"/><path class="cls-3" d="M1197.42,314.56v-40.5h12.52v7.38h.43a11,11,0,0,1,3.61-6,9.16,9.16,0,0,1,5.82-2,14.72,14.72,0,0,1,1.85.12,11.54,11.54,0,0,1,1.77.36v11.21a12.26,12.26,0,0,0-2.41-.5,20.73,20.73,0,0,0-2.66-.19,8.33,8.33,0,0,0-4.12,1,7.36,7.36,0,0,0-2.88,2.82,8.34,8.34,0,0,0-1,4.23v22Z"/><path class="cls-3" d="M1263.38,274.06v9.49h-26.05v-9.49Zm-20.62,40.5V272a15.53,15.53,0,0,1,1.77-7.79,11.25,11.25,0,0,1,4.9-4.64,16.24,16.24,0,0,1,7.25-1.54,29.29,29.29,0,0,1,5.08.41c1.59.27,2.77.51,3.55.72l-2.06,9.44a10,10,0,0,0-1.73-.39,11.81,11.81,0,0,0-1.91-.16,3.91,3.91,0,0,0-3.11,1,4.14,4.14,0,0,0-.84,2.74v42.77Z"/><path class="cls-3" d="M1267.45,314.56v-40.5H1280v7.38h.42a11,11,0,0,1,3.61-6,9.17,9.17,0,0,1,5.83-2,14.56,14.56,0,0,1,1.84.12,11.07,11.07,0,0,1,1.77.36v11.21a12.1,12.1,0,0,0-2.41-.5,20.59,20.59,0,0,0-2.65-.19,8.35,8.35,0,0,0-4.13,1,7.27,7.27,0,0,0-2.87,2.82,8.24,8.24,0,0,0-1,4.23v22Z"/><path class="cls-3" d="M1313.39,315.33a22.48,22.48,0,0,1-11-2.52,17.11,17.11,0,0,1-7.07-7.2,23.66,23.66,0,0,1-2.46-11.14,23.22,23.22,0,0,1,2.47-11,18.11,18.11,0,0,1,7-7.34,20.87,20.87,0,0,1,10.63-2.62,22.3,22.3,0,0,1,7.91,1.35,16.9,16.9,0,0,1,6.2,4,18.19,18.19,0,0,1,4.06,6.5,25.17,25.17,0,0,1,1.45,8.84v3.22h-35.21v-7.49h23.21a7.2,7.2,0,0,0-1-3.66,6.81,6.81,0,0,0-2.59-2.52,7.67,7.67,0,0,0-3.79-.91,7.77,7.77,0,0,0-3.87,1,7.26,7.26,0,0,0-2.72,2.61,7.33,7.33,0,0,0-1.05,3.73v7.62a9.2,9.2,0,0,0,1,4.34,7,7,0,0,0,2.77,2.89,8.49,8.49,0,0,0,4.27,1,9.53,9.53,0,0,0,3.11-.48,6.53,6.53,0,0,0,2.4-1.4,5.68,5.68,0,0,0,1.5-2.26l11.84.34a14.54,14.54,0,0,1-3.23,6.92,16.32,16.32,0,0,1-6.52,4.56A24.92,24.92,0,0,1,1313.39,315.33Z"/><path class="cls-3" d="M1356,315.33a22.48,22.48,0,0,1-11-2.52,17.16,17.16,0,0,1-7.07-7.2,23.66,23.66,0,0,1-2.46-11.14,23.22,23.22,0,0,1,2.47-11,18.11,18.11,0,0,1,7-7.34,20.87,20.87,0,0,1,10.63-2.62,22.3,22.3,0,0,1,7.91,1.35,16.9,16.9,0,0,1,6.2,4,18.19,18.19,0,0,1,4.06,6.5,25.17,25.17,0,0,1,1.45,8.84v3.22H1340v-7.49h23.21a7.2,7.2,0,0,0-1-3.66,6.81,6.81,0,0,0-2.59-2.52,7.67,7.67,0,0,0-3.79-.91,7.77,7.77,0,0,0-3.87,1,7.26,7.26,0,0,0-2.72,2.61,7.33,7.33,0,0,0-1,3.73v7.62a9.2,9.2,0,0,0,1,4.34A7,7,0,0,0,1352,305a8.52,8.52,0,0,0,4.27,1,9.53,9.53,0,0,0,3.11-.48,6.53,6.53,0,0,0,2.4-1.4,5.68,5.68,0,0,0,1.5-2.26l11.84.34a14.54,14.54,0,0,1-3.23,6.92,16.32,16.32,0,0,1-6.52,4.56A24.92,24.92,0,0,1,1356,315.33Z"/><path class="cls-3" d="M1387,315.33a6.62,6.62,0,0,1-4.86-2,6.45,6.45,0,0,1-2-4.85,6.38,6.38,0,0,1,2-4.79,6.81,6.81,0,0,1,9.62,0,6.53,6.53,0,0,1,2.1,4.79,6.61,6.61,0,0,1-1,3.45,7.26,7.26,0,0,1-2.51,2.48A6.35,6.35,0,0,1,1387,315.33Z"/><text/><path class="cls-4" d="M126.79,195.28c76.91,10,161.18-19,233.17,19.7,16,8.61,30,20.47,39.94,35.8,4.15,6.4,14.47.44,10.28-6-19-29.26-50.26-46.62-83.43-55.09-39.68-10.14-80.57-7.24-121-5.12-26.32,1.38-52.74,2.22-78.94-1.18-3.22-.42-5.92,3-6,6,0,3.56,2.77,5.54,6,5.95Z"/><path class="cls-4" d="M2.73,194.17a.57.57,0,0,1-.2.13.77.77,0,0,1-.56-.08.72.72,0,0,1-.39-.45.57.57,0,0,1,.07-.47c.33-.57.65-1.14,1-1.71s.6-1.14.87-1.71c-.62-.37-1.13-.69-1.56-1l-1-.66a3.55,3.55,0,0,1-.6-.45.82.82,0,0,1-.24-.34.67.67,0,0,1,0-.56.66.66,0,0,1,.42-.33.85.85,0,0,1,.7.13l2.89,1.89.79-1.74c.25-.56.49-1.11.71-1.65a.7.7,0,0,1,.45-.44.75.75,0,0,1,.56.07.81.81,0,0,1,.41.52,1.28,1.28,0,0,1-.1.75c-.11.32-.27.68-.45,1.08s-.4.78-.61,1.18-.4.74-.53,1l3.36,2.2A.6.6,0,0,1,9,192a.64.64,0,0,1-.09.56.72.72,0,0,1-.4.36,1,1,0,0,1-.64-.15,9.43,9.43,0,0,1-1-.55c-.35-.23-.72-.48-1.11-.76l-1.1-.77-1,1.82C3.37,193.06,3.05,193.63,2.73,194.17Z"/><path class="cls-4" d="M14.56,193.72a2.13,2.13,0,0,1-1.18.85,3,3,0,0,1-1.38.08,2.75,2.75,0,0,1-1.27-.54.28.28,0,0,1-.14-.19,1,1,0,0,1,0-.6.56.56,0,0,1,.36-.42.37.37,0,0,1,.21,0,3.06,3.06,0,0,0,.88.27,1.86,1.86,0,0,0,.79,0,1.27,1.27,0,0,0,.81-1.14,9,9,0,0,0-.09-2.58,3.08,3.08,0,0,1-.55.33,3.82,3.82,0,0,1-.62.25l-.82.2a2.31,2.31,0,0,1-1.13-.05,2.59,2.59,0,0,1-1.18-.72,4.45,4.45,0,0,1-1-1.86c-.07-.24-.14-.48-.2-.73s-.12-.5-.17-.75-.1-.49-.14-.71-.07-.42-.09-.58a.62.62,0,0,1,.1-.53.7.7,0,0,1,.39-.26.86.86,0,0,1,.55,0,.54.54,0,0,1,.37.36,6,6,0,0,1,.18.89,6.44,6.44,0,0,0,.25,1.08c.15.51.29.94.42,1.27a2.21,2.21,0,0,0,.47.78,1.13,1.13,0,0,0,.66.31,2.75,2.75,0,0,0,1-.15,2.15,2.15,0,0,0,.61-.29,6.79,6.79,0,0,1,.62-.4q-.33-1.51-.78-3c-.14-.44-.27-.87-.41-1.28s-.27-.78-.4-1.11a.44.44,0,0,1,.1-.43,1.06,1.06,0,0,1,.49-.31,1.3,1.3,0,0,1,.48,0,.48.48,0,0,1,.38.21c.12.29.24.61.35.93l.33,1c.27.92.52,1.87.73,2.88a26.39,26.39,0,0,1,.44,2.87,14.86,14.86,0,0,1,0,2.48A3.64,3.64,0,0,1,14.56,193.72Z"/><path class="cls-4" d="M13.63,179.44a.79.79,0,0,1-.28-.35.65.65,0,0,1,.12-.59,1,1,0,0,1,.51-.39.77.77,0,0,1,.62.11,3.45,3.45,0,0,1,.68.51c.22.21.43.44.63.67l.49.57c.21.55.41,1.11.59,1.67s.37,1.15.55,1.73c.28.95.55,1.86.79,2.73s.47,1.71.68,2.51a.6.6,0,0,1-.06.5.69.69,0,0,1-.39.27,1.12,1.12,0,0,1-.63,0,.57.57,0,0,1-.43-.4c-.17-.55-.33-1.18-.5-1.9s-.36-1.45-.59-2.21-.44-1.43-.67-2.14-.45-1.35-.67-1.93c-.19-.21-.41-.44-.66-.68A7.31,7.31,0,0,0,13.63,179.44Z"/><path class="cls-4" d="M25.16,181a2.79,2.79,0,0,1,1.06,1.29.91.91,0,0,1-.42,1.09l-3.74,2.46a1.88,1.88,0,0,0,1.72.38,3.66,3.66,0,0,0,1.17-.58,3.1,3.1,0,0,0,.87-1.06.41.41,0,0,1,.27-.23.75.75,0,0,1,.55.08.67.67,0,0,1,.39.42.87.87,0,0,1-.09.65,3.13,3.13,0,0,1-.53.77,4.08,4.08,0,0,1-.85.73,4.21,4.21,0,0,1-1.07.51,4.91,4.91,0,0,1-1.26.18,3.66,3.66,0,0,1-1.35-.2,2.94,2.94,0,0,1-2-2.1,5,5,0,0,1,0-2.34,2.5,2.5,0,0,1,.86-1.5,4.44,4.44,0,0,1,1.61-.88,3.84,3.84,0,0,1,1.5-.15A2.78,2.78,0,0,1,25.16,181Zm-3.83,3.63,3.26-2.12a1.12,1.12,0,0,0-.75-.6,1.93,1.93,0,0,0-1,0,2.28,2.28,0,0,0-.9.5,2.16,2.16,0,0,0-.51.72,2.49,2.49,0,0,0-.17.78A2.42,2.42,0,0,0,21.33,184.63Z"/><path class="cls-4" d="M26.68,180.2a.69.69,0,0,1-.27-.34.67.67,0,0,1,.12-.6,1,1,0,0,1,.5-.38.68.68,0,0,1,.4,0,1.2,1.2,0,0,1,.37.2l.33.29.27.27a5.15,5.15,0,0,1,.65-.41,3.93,3.93,0,0,1,.8-.33,5.09,5.09,0,0,1,.85-.18,2.79,2.79,0,0,1,1,.07,3.63,3.63,0,0,1,.81-.57,5.85,5.85,0,0,1,1-.42c.25-.07.54-.14.87-.2a2,2,0,0,1,1,.12,2.55,2.55,0,0,1,1,.79,5.33,5.33,0,0,1,.85,1.82q.18.58.33,1.14a6.08,6.08,0,0,1,.18,1,1.81,1.81,0,0,1-.06.76.56.56,0,0,1-.41.4.94.94,0,0,1-.55,0,.52.52,0,0,1-.37-.36,5.36,5.36,0,0,1-.18-.85,6.2,6.2,0,0,0-.22-1c-.13-.43-.25-.81-.36-1.13a2.51,2.51,0,0,0-.41-.77,1,1,0,0,0-.55-.36,1.72,1.72,0,0,0-.84.08,3.28,3.28,0,0,0-1,.49l.14.22a6.64,6.64,0,0,1,.29.67,8.24,8.24,0,0,1,.29.84l.31,1a7.55,7.55,0,0,1,.24,1,2.14,2.14,0,0,1,0,.8.57.57,0,0,1-.41.45.82.82,0,0,1-.62,0,.65.65,0,0,1-.38-.44c-.11-.36-.22-.8-.33-1.29s-.22-.94-.34-1.34a2.51,2.51,0,0,0-.65-1.16,1.19,1.19,0,0,0-1.22-.13,2.6,2.6,0,0,0-.83.42v0q.18.51.36,1.08t.36,1.17l.31,1a4.31,4.31,0,0,1,.17.84,1.44,1.44,0,0,1-.1.65.71.71,0,0,1-.49.39.86.86,0,0,1-.51-.06.55.55,0,0,1-.3-.36c-.12-.39-.23-.81-.34-1.25s-.23-.91-.38-1.4c-.08-.25-.14-.47-.21-.67s-.13-.38-.2-.56a4.16,4.16,0,0,1-.61-.64A7.13,7.13,0,0,0,26.68,180.2Z"/><path class="cls-4" d="M43.39,174.94a6.23,6.23,0,0,1-.63.26l-1,.34-1.13.37-1.1.34-.69.22a2.38,2.38,0,0,1-.59.12.69.69,0,0,1-.45-.11.84.84,0,0,1-.29-.48.77.77,0,0,1,0-.45.38.38,0,0,1,.28-.29l.54-.15.65-.19,1.08-.32,1.1-.36,1-.36c.31-.11.57-.22.77-.31a.5.5,0,0,1,.42.14,1.14,1.14,0,0,1,.24.41,1,1,0,0,1,0,.48A.48.48,0,0,1,43.39,174.94Zm1,3.18c-.14.07-.35.15-.64.26l-1,.34-1.13.37-1.1.34-.69.22a2.38,2.38,0,0,1-.59.12.69.69,0,0,1-.45-.11.84.84,0,0,1-.29-.48.77.77,0,0,1,0-.45.37.37,0,0,1,.29-.29l.53-.15.65-.19,1.08-.33c.38-.11.75-.23,1.1-.35l1-.36c.31-.11.57-.22.77-.31a.49.49,0,0,1,.42.14,1.14,1.14,0,0,1,.24.41,1,1,0,0,1,0,.48A.47.47,0,0,1,44.36,178.12Z"/><path class="cls-4" d="M51.1,176.72c-.13-.45-.25-.85-.35-1.21l-.3-1-.29-1c-.1-.37-.22-.78-.34-1.24a.67.67,0,0,1,.11-.67,1.08,1.08,0,0,1,.54-.36.6.6,0,0,1,.47,0,.6.6,0,0,1,.33.42c.14.46.26.88.37,1.25s.21.74.3,1.11l.3,1.1.36,1.22a1.56,1.56,0,0,0,.31.57,1.54,1.54,0,0,0,.47.33,1.58,1.58,0,0,0,.52.12,1.41,1.41,0,0,0,.47-.06,1.89,1.89,0,0,0,.84-.6,3.4,3.4,0,0,0,.64-1.11c-.18-.47-.33-.91-.46-1.31s-.25-.76-.36-1.1-.22-.72-.33-1.1a5.89,5.89,0,0,1-.23-1.05,2.06,2.06,0,0,1,0-.84.71.71,0,0,1,.52-.48,1.25,1.25,0,0,1,.54.06.59.59,0,0,1,.35.4c.1.48.22,1,.34,1.56s.28,1.14.47,1.75c.09.32.2.64.32,1s.25.68.39,1a4.7,4.7,0,0,0,.39.4l.5.45a4.53,4.53,0,0,1,.44.43,1.09,1.09,0,0,1,.24.35.71.71,0,0,1-.1.61.85.85,0,0,1-.48.38.6.6,0,0,1-.41,0,1.74,1.74,0,0,1-.45-.26,4.87,4.87,0,0,1-.42-.35,3,3,0,0,1-.31-.35,4.36,4.36,0,0,1-1,1.06,3.86,3.86,0,0,1-1.31.7,2.45,2.45,0,0,1-1.19.08,2.69,2.69,0,0,1-1-.42,3.21,3.21,0,0,1-.78-.78A3.87,3.87,0,0,1,51.1,176.72Z"/><path class="cls-4" d="M58.16,170.69a.79.79,0,0,1-.28-.35.66.66,0,0,1,.12-.59,1,1,0,0,1,.5-.39.62.62,0,0,1,.48,0,2.24,2.24,0,0,1,.47.31,2.78,2.78,0,0,1,.42.42c.14.15.25.28.33.38a4.06,4.06,0,0,1,.85-.87A3.61,3.61,0,0,1,62.3,169a2.92,2.92,0,0,1,1.28-.11,3.66,3.66,0,0,1,1.23.37,3.61,3.61,0,0,1,1,.82,3.29,3.29,0,0,1,.65,1.19,4.55,4.55,0,0,1,.18,1.23,3.91,3.91,0,0,1-.24,1.34,3.54,3.54,0,0,1-.81,1.2,3.41,3.41,0,0,1-1.49.84,4.73,4.73,0,0,1-.91.18,4.51,4.51,0,0,1-.9,0c.21.74.38,1.34.52,1.82a7.81,7.81,0,0,1,.26,1.14,1,1,0,0,1-.08.66.86.86,0,0,1-.51.33,1,1,0,0,1-.52,0,.54.54,0,0,1-.31-.35l0-.1-.4-1.55c-.14-.54-.29-1.11-.46-1.69l-.51-1.74c-.17-.56-.33-1.08-.48-1.54s-.25-.77-.31-.92a4.67,4.67,0,0,1-.61-.64A8.13,8.13,0,0,0,58.16,170.69ZM61,171.88c.11.36.25.79.41,1.28s.32,1,.48,1.51a3.84,3.84,0,0,0,1.63-.13,2.54,2.54,0,0,0,1-.48,1.87,1.87,0,0,0,.5-.65,1.73,1.73,0,0,0,.13-.74A2.7,2.7,0,0,0,65,172a2.12,2.12,0,0,0-1-1.32,1.87,1.87,0,0,0-1.51-.12,1.85,1.85,0,0,0-.9.54A6.76,6.76,0,0,0,61,171.88Z"/><path class="cls-4" d="M73.38,170c-.06-.26-.13-.52-.21-.77s-.14-.49-.2-.73l-.36-1.39-.64.19-.49.14a1.33,1.33,0,0,1-.39,0,.54.54,0,0,1-.3-.15,1.23,1.23,0,0,1-.21-.43.81.81,0,0,1,0-.46.39.39,0,0,1,.28-.29l.61-.16a7.24,7.24,0,0,0,.81-.25c-.21-.72-.44-1.42-.68-2.12s-.48-1.45-.72-2.25a.53.53,0,0,1,.09-.55.88.88,0,0,1,.46-.3.65.65,0,0,1,.68.12,2.14,2.14,0,0,1,.46.67,4.15,4.15,0,0,1,.3.88c.07.32.14.57.2.77.25.82.46,1.6.64,2.33.63-.19,1.22-.38,1.79-.57s1-.36,1.3-.49a.48.48,0,0,1,.41.14.86.86,0,0,1,.24.41.77.77,0,0,1,0,.54,1.19,1.19,0,0,1-.48.4,6.37,6.37,0,0,1-1.08.41l-1.81.55c.1.44.22.89.35,1.35s.28.94.43,1.45a2.17,2.17,0,0,0,.63,1.09.89.89,0,0,0,.83.19,1.32,1.32,0,0,0,.74-.6A4.59,4.59,0,0,0,77.5,169a.45.45,0,0,1,.33-.32.74.74,0,0,1,.56,0,.61.61,0,0,1,.37.4,1.42,1.42,0,0,1,0,.86,3.28,3.28,0,0,1-.5.91,4.1,4.1,0,0,1-.81.8,3,3,0,0,1-1,.5,1.94,1.94,0,0,1-1.11.06,2,2,0,0,1-.87-.46,3.13,3.13,0,0,1-.66-.82A5.11,5.11,0,0,1,73.38,170Z"/><path class="cls-4" d="M77.82,161.4a.63.63,0,0,1-.26-.35.81.81,0,0,1,.06-.59.79.79,0,0,1,.48-.39,1,1,0,0,1,1,.23,3.93,3.93,0,0,1,.87,1,8.78,8.78,0,0,1,.67,1.25c.2.44.35.79.46,1.06l.59-.33a3.74,3.74,0,0,1,.67-.26c.21-.07.49-.13.85-.21a2.28,2.28,0,0,1,1.12.07,2.71,2.71,0,0,1,1.16.78,4.7,4.7,0,0,1,1,1.91c.13.42.24.82.35,1.2a8.42,8.42,0,0,1,.2,1.06,2.16,2.16,0,0,1,0,.79.6.6,0,0,1-.41.42.94.94,0,0,1-.55,0,.5.5,0,0,1-.38-.36q-.09-.33-.18-.87a6.65,6.65,0,0,0-.25-1.12c-.14-.48-.28-.89-.41-1.23a2.59,2.59,0,0,0-.46-.8,1,1,0,0,0-.63-.33,2.42,2.42,0,0,0-1,.13l-.19.07-.2.07-.72.44c.21.72.42,1.45.62,2.19s.35,1.43.48,2.08a.77.77,0,0,1-.12.6.82.82,0,0,1-.46.34.74.74,0,0,1-.51,0,.55.55,0,0,1-.33-.38c-.21-.68-.4-1.39-.57-2.12s-.36-1.45-.57-2.15c-.13-.41-.24-.81-.35-1.18a6.63,6.63,0,0,0-.39-1,5.31,5.31,0,0,0-1.57-1.93Z"/><path class="cls-4" d="M92.79,160.56a2.82,2.82,0,0,1,1,1.29.91.91,0,0,1-.42,1.09l-3.74,2.46a1.93,1.93,0,0,0,.85.41,1.86,1.86,0,0,0,.88,0,3.83,3.83,0,0,0,1.16-.58,3.14,3.14,0,0,0,.87-1.07.44.44,0,0,1,.27-.23.75.75,0,0,1,.55.08.66.66,0,0,1,.39.43.87.87,0,0,1-.09.65,3,3,0,0,1-.53.77,4.44,4.44,0,0,1-.85.73,4,4,0,0,1-1.06.5,4.52,4.52,0,0,1-1.27.19,4.13,4.13,0,0,1-1.35-.2,3,3,0,0,1-2-2.1,5.2,5.2,0,0,1,0-2.35,2.48,2.48,0,0,1,.86-1.49,4.3,4.3,0,0,1,1.61-.88,3.88,3.88,0,0,1,1.51-.16A2.83,2.83,0,0,1,92.79,160.56ZM89,164.18l3.26-2.12a1.12,1.12,0,0,0-.75-.6,1.89,1.89,0,0,0-1,0,2.1,2.1,0,0,0-.91.5,2,2,0,0,0-.5.72,2.21,2.21,0,0,0-.18.78A2.31,2.31,0,0,0,89,164.18Z"/><path class="cls-4" d="M98.71,158.43a.79.79,0,0,1-.28-.35.65.65,0,0,1,.12-.59,1,1,0,0,1,.51-.39.6.6,0,0,1,.47.05,2.24,2.24,0,0,1,.47.31,3.32,3.32,0,0,1,.43.41l.33.39a4.24,4.24,0,0,1,.84-.87,3.61,3.61,0,0,1,1.25-.64,2.93,2.93,0,0,1,1.28-.11,3.39,3.39,0,0,1,2.25,1.19A3.29,3.29,0,0,1,107,159a4.55,4.55,0,0,1,.18,1.23,3.4,3.4,0,0,1-.24,1.33,3.59,3.59,0,0,1-.8,1.21,3.51,3.51,0,0,1-1.5.84,4.73,4.73,0,0,1-.91.18,4.41,4.41,0,0,1-.89,0c.2.74.38,1.34.51,1.82a7.81,7.81,0,0,1,.26,1.14,1,1,0,0,1-.08.65.83.83,0,0,1-.51.34,1,1,0,0,1-.52,0,.49.49,0,0,1-.3-.34l0-.1-.41-1.55c-.13-.54-.29-1.11-.46-1.69s-.34-1.17-.51-1.74-.33-1.08-.48-1.54-.25-.77-.31-.92a5.36,5.36,0,0,1-.61-.64A6.17,6.17,0,0,0,98.71,158.43Zm2.87,1.19c.11.36.24.79.4,1.28s.32,1,.48,1.51a3.82,3.82,0,0,0,1.63-.13,2.54,2.54,0,0,0,1-.48,1.71,1.71,0,0,0,.5-.66,1.66,1.66,0,0,0,.13-.73,2.7,2.7,0,0,0-.12-.71,2.12,2.12,0,0,0-1-1.32,1.87,1.87,0,0,0-1.51-.12,1.77,1.77,0,0,0-.89.54A5.33,5.33,0,0,0,101.58,159.62Z"/><path class="cls-4" d="M105.89,151.54a.77.77,0,0,1-.28-.34.67.67,0,0,1,.12-.6,1,1,0,0,1,.51-.39.82.82,0,0,1,.62.12,3.45,3.45,0,0,1,.68.51,8,8,0,0,1,.63.67l.49.56q.32.83.6,1.68c.18.56.36,1.14.54,1.73.29.94.55,1.85.79,2.73s.47,1.71.69,2.5a.64.64,0,0,1-.07.5.61.61,0,0,1-.38.28,1.16,1.16,0,0,1-.64,0,.58.58,0,0,1-.43-.41c-.17-.55-.33-1.18-.5-1.89s-.36-1.45-.59-2.21-.44-1.44-.67-2.15-.45-1.35-.67-1.92c-.19-.22-.41-.44-.66-.68A7.39,7.39,0,0,0,105.89,151.54Z"/><path class="cls-4" d="M113.47,153.56a.52.52,0,0,1,.3-.2,2.9,2.9,0,0,1,1.31,0,3.29,3.29,0,0,1,1.12.47,3.49,3.49,0,0,1,1.34,1.77l0,.1a3.24,3.24,0,0,0,.5.62,1.43,1.43,0,0,0,.47.29.9.9,0,0,0,.42,0,2.7,2.7,0,0,0,.39-.08,1.08,1.08,0,0,0,.36-.2,1.31,1.31,0,0,1,.46-.22.52.52,0,0,1,.48.08.72.72,0,0,1,.3.39.61.61,0,0,1,0,.42,1,1,0,0,1-.25.38,2,2,0,0,1-.4.29,2.32,2.32,0,0,1-.47.19,2.67,2.67,0,0,1-1.39.08,3,3,0,0,1-1.08-.46,3,3,0,0,1-.73,1,2.88,2.88,0,0,1-1.08.6,3.7,3.7,0,0,1-1.16.16,3.36,3.36,0,0,1-1.14-.23,3,3,0,0,1-1-.66,2.74,2.74,0,0,1-.64-1.15,2.64,2.64,0,0,1-.12-.91,3.45,3.45,0,0,1,.18-1,3.33,3.33,0,0,1,.5-1,2.57,2.57,0,0,1,.86-.73l.12,0A1.22,1.22,0,0,1,113.47,153.56Zm.49,1.2a2,2,0,0,0-.81.92,1.58,1.58,0,0,0,0,1,1.93,1.93,0,0,0,.65,1,1.47,1.47,0,0,0,1.34.07,1.29,1.29,0,0,0,.79-.64A1.35,1.35,0,0,0,116,156a2,2,0,0,0-.34-.68,1.51,1.51,0,0,0-.48-.37,1.71,1.71,0,0,0-.57-.15Q114.29,154.76,114,154.76Z"/><path class="cls-4" d="M120,152a.79.79,0,0,1-.28-.35.66.66,0,0,1,.12-.59,1,1,0,0,1,.5-.39.68.68,0,0,1,.42,0,1.23,1.23,0,0,1,.39.21,2.51,2.51,0,0,1,.35.31,4.16,4.16,0,0,1,.3.31,6.2,6.2,0,0,1,.82-.52,5.3,5.3,0,0,1,1.08-.44c.17-.05.38-.11.63-.16a2.05,2.05,0,0,1,1.63.3,2.67,2.67,0,0,1,.77.89,5,5,0,0,1,.35.84c.11.33.22.68.35,1.05s.17.63.27,1a5.61,5.61,0,0,1,.19.88,1.69,1.69,0,0,1,0,.69.54.54,0,0,1-.4.37.88.88,0,0,1-.62,0,.69.69,0,0,1-.38-.44q-.17-.57-.33-1.32c-.11-.49-.22-.94-.34-1.33a3.79,3.79,0,0,0-.35-.84,1.45,1.45,0,0,0-.4-.44.77.77,0,0,0-.49-.13,2.81,2.81,0,0,0-.59.12,2.88,2.88,0,0,0-.65.29l-.62.39c.09.25.18.5.26.76s.18.53.26.82l.39,1.27a7.17,7.17,0,0,1,.23,1,1.51,1.51,0,0,1-.06.75.73.73,0,0,1-.5.41.86.86,0,0,1-.51-.06.51.51,0,0,1-.3-.35c-.12-.4-.23-.81-.34-1.25s-.23-.91-.38-1.41q-.1-.37-.21-.66c-.07-.2-.13-.38-.2-.56a4.67,4.67,0,0,1-.61-.64A8.13,8.13,0,0,0,120,152Z"/><path class="cls-4" d="M130.08,152.84c-.06-.27-.13-.52-.21-.77s-.14-.49-.2-.73l-.36-1.4-.64.2-.49.13a1,1,0,0,1-.38,0,.55.55,0,0,1-.31-.16,1.14,1.14,0,0,1-.21-.43.77.77,0,0,1,0-.45.38.38,0,0,1,.28-.29l.61-.16a7.24,7.24,0,0,0,.81-.25c-.21-.72-.44-1.43-.68-2.13s-.48-1.44-.72-2.24a.53.53,0,0,1,.09-.55,1,1,0,0,1,.46-.31.65.65,0,0,1,.68.13,2,2,0,0,1,.46.67,4.15,4.15,0,0,1,.3.88c.07.31.14.57.2.76.25.83.46,1.61.64,2.34.63-.19,1.22-.38,1.79-.57s1-.36,1.3-.49a.45.45,0,0,1,.41.14.91.91,0,0,1,.25.41.79.79,0,0,1,0,.53,1.06,1.06,0,0,1-.48.4,6.25,6.25,0,0,1-1.08.42l-1.81.54c.1.44.22.89.35,1.35s.28,1,.43,1.46a2.13,2.13,0,0,0,.63,1.08.84.84,0,0,0,.83.19,1.24,1.24,0,0,0,.74-.6,4.43,4.43,0,0,0,.45-1.13.44.44,0,0,1,.33-.31.78.78,0,0,1,.56,0,.66.66,0,0,1,.37.4,1.42,1.42,0,0,1,0,.86,3.15,3.15,0,0,1-.5.91,4.09,4.09,0,0,1-.8.81,3.32,3.32,0,0,1-1,.5,2.1,2.1,0,0,1-1.1.06,2,2,0,0,1-.88-.47,3,3,0,0,1-.66-.82A5.39,5.39,0,0,1,130.08,152.84Z"/><path class="cls-4" d="M4.63,203.58a.64.64,0,0,1-.27-.34.65.65,0,0,1,.12-.59,1,1,0,0,1,.5-.39.62.62,0,0,1,.48.05,2.54,2.54,0,0,1,.47.31,3.25,3.25,0,0,1,.42.41l.33.39a4.24,4.24,0,0,1,.84-.87,3.92,3.92,0,0,1,1.25-.65,3.3,3.3,0,0,1,1.29-.11,3.68,3.68,0,0,1,1.23.38,3.45,3.45,0,0,1,1,.82,3.27,3.27,0,0,1,.64,1.19,4.55,4.55,0,0,1,.18,1.23,3.4,3.4,0,0,1-.24,1.33,3.32,3.32,0,0,1-.8,1.21,3.47,3.47,0,0,1-1.49.84,4.88,4.88,0,0,1-.91.18,5.41,5.41,0,0,1-.9,0c.21.74.38,1.34.52,1.81a9.94,9.94,0,0,1,.26,1.15,1,1,0,0,1-.08.65.94.94,0,0,1-.51.34,1,1,0,0,1-.52,0,.48.48,0,0,1-.31-.34l0-.1-.4-1.55c-.14-.55-.29-1.11-.46-1.69s-.34-1.17-.52-1.74-.33-1.08-.47-1.54S6,205.14,6,205a4.22,4.22,0,0,1-.62-.64A6.91,6.91,0,0,0,4.63,203.58Zm2.87,1.19c.11.37.25.8.41,1.29s.32,1,.48,1.51a3.84,3.84,0,0,0,1.63-.13,2.61,2.61,0,0,0,1-.48,1.81,1.81,0,0,0,.5-.66,1.66,1.66,0,0,0,.13-.73,4,4,0,0,0-.12-.72,2.1,2.1,0,0,0-1-1.31,1.85,1.85,0,0,0-1.5-.12,1.85,1.85,0,0,0-.9.54A5.76,5.76,0,0,0,7.5,204.77Z"/><path class="cls-4" d="M11.8,198.08a.6.6,0,0,1-.25-.36.78.78,0,0,1,0-.58.72.72,0,0,1,.49-.39,1,1,0,0,1,1,.22,4.32,4.32,0,0,1,.87,1,9.47,9.47,0,0,1,.67,1.26c.2.44.36.79.46,1.06.2-.12.39-.23.59-.33a4.67,4.67,0,0,1,.67-.27c.21-.06.49-.13.85-.2a2.27,2.27,0,0,1,1.12.07,2.59,2.59,0,0,1,1.16.77,4.75,4.75,0,0,1,1,1.92c.13.42.24.82.35,1.2a8.29,8.29,0,0,1,.2,1.05,2.21,2.21,0,0,1,0,.8.58.58,0,0,1-.41.41.94.94,0,0,1-.55,0,.53.53,0,0,1-.38-.36,8.82,8.82,0,0,1-.18-.88,6.76,6.76,0,0,0-.25-1.11c-.14-.48-.28-.9-.41-1.23a2.59,2.59,0,0,0-.46-.8,1,1,0,0,0-.63-.33,2.42,2.42,0,0,0-1,.13l-.19.07-.2.07-.72.43c.21.72.42,1.45.62,2.19s.35,1.44.48,2.09a.77.77,0,0,1-.12.6.86.86,0,0,1-.46.34.81.81,0,0,1-.51,0,.52.52,0,0,1-.33-.38c-.21-.68-.4-1.39-.57-2.12s-.36-1.45-.57-2.14c-.13-.42-.24-.81-.35-1.18a6,6,0,0,0-.39-1.05,5.53,5.53,0,0,0-.6-1A5.88,5.88,0,0,0,11.8,198.08Z"/><path class="cls-4" d="M19.44,194.4a.79.79,0,0,1-.28-.35.65.65,0,0,1,.12-.59,1,1,0,0,1,.51-.39.77.77,0,0,1,.62.11,3.45,3.45,0,0,1,.68.51c.22.21.43.44.63.67l.49.57c.21.55.41,1.11.59,1.67s.37,1.14.55,1.73c.28.95.55,1.86.79,2.73s.47,1.71.68,2.51a.6.6,0,0,1-.06.5.69.69,0,0,1-.39.27,1.12,1.12,0,0,1-.63,0,.55.55,0,0,1-.43-.4c-.17-.55-.34-1.18-.5-1.9s-.36-1.45-.59-2.21-.44-1.43-.67-2.14-.46-1.35-.67-1.93c-.2-.21-.41-.44-.66-.68A7.31,7.31,0,0,0,19.44,194.4Z"/><path class="cls-4" d="M27.63,196.25a2.09,2.09,0,0,1,.14-.17A.56.56,0,0,1,28,196a3.61,3.61,0,0,1,1.15-.05,3.55,3.55,0,0,1,1.2.37,3.89,3.89,0,0,1,1.06.81,3.39,3.39,0,0,1,.72,1.31,4.15,4.15,0,0,1,.15,1.53,3.12,3.12,0,0,1-.4,1.24,2.8,2.8,0,0,1-.85.93,4.35,4.35,0,0,1-1.24.61,3.51,3.51,0,0,1-1.18.13,3.13,3.13,0,0,1-1.21-.3,3.58,3.58,0,0,1-1-.75,3,3,0,0,1-.69-1.22,3.61,3.61,0,0,1-.14-1.39,4.71,4.71,0,0,1,.3-1.32,3.42,3.42,0,0,1,.6-1,1.76,1.76,0,0,1,.79-.56A.93.93,0,0,1,27.63,196.25Zm.47,1.12a5.46,5.46,0,0,0-.53.56,2.22,2.22,0,0,0-.36.59,1.82,1.82,0,0,0-.12.72,3.35,3.35,0,0,0,.17.95,1.77,1.77,0,0,0,.41.76,1.51,1.51,0,0,0,.58.37,1.69,1.69,0,0,0,.67.07,2.85,2.85,0,0,0,.66-.12,1.48,1.48,0,0,0,1-.87,2,2,0,0,0,.05-1.43,2.42,2.42,0,0,0-.45-.91,1.7,1.7,0,0,0-.62-.47,2.05,2.05,0,0,0-.7-.17Z"/><path class="cls-4" d="M38.44,193.71A2.82,2.82,0,0,1,39.49,195a.9.9,0,0,1-.42,1.09l-3.73,2.45a1.84,1.84,0,0,0,.84.41,1.64,1.64,0,0,0,.88,0,3.8,3.8,0,0,0,1.16-.57,2.93,2.93,0,0,0,.87-1.07.41.41,0,0,1,.27-.23.75.75,0,0,1,.55.08.7.7,0,0,1,.4.43,1,1,0,0,1-.09.64,3.43,3.43,0,0,1-.53.77,4.35,4.35,0,0,1-.85.73,4,4,0,0,1-1.07.51,4.9,4.9,0,0,1-1.26.19,4.19,4.19,0,0,1-1.36-.2,3.38,3.38,0,0,1-1.2-.72,3.11,3.11,0,0,1-.81-1.39,5.16,5.16,0,0,1,0-2.34,2.52,2.52,0,0,1,.87-1.49,4.34,4.34,0,0,1,1.6-.89,3.87,3.87,0,0,1,1.51-.15A2.7,2.7,0,0,1,38.44,193.71Zm-3.84,3.62,3.26-2.12a1.1,1.1,0,0,0-.75-.6,1.8,1.8,0,0,0-1,0,2.16,2.16,0,0,0-.91.5,1.92,1.92,0,0,0-.5.72,2,2,0,0,0-.17.78A2.37,2.37,0,0,0,34.6,197.33Z"/><path class="cls-4" d="M40,192.9a.72.72,0,0,1-.28-.34.65.65,0,0,1,.12-.59,1,1,0,0,1,.51-.39.61.61,0,0,1,.4,0,1.44,1.44,0,0,1,.37.19l.32.29a3.42,3.42,0,0,0,.27.27c.2-.14.42-.28.65-.41a5.52,5.52,0,0,1,.8-.33,6.5,6.5,0,0,1,.86-.18,2.74,2.74,0,0,1,1,.07,4,4,0,0,1,.82-.57,5.55,5.55,0,0,1,1-.42,7,7,0,0,1,.86-.19,1.83,1.83,0,0,1,1,.11,2.54,2.54,0,0,1,1,.8,5.46,5.46,0,0,1,.85,1.81c.11.39.22.77.32,1.14a6.29,6.29,0,0,1,.19,1,2.17,2.17,0,0,1-.06.75.62.62,0,0,1-.42.41.91.91,0,0,1-.54,0,.48.48,0,0,1-.38-.36,4.52,4.52,0,0,1-.17-.85,6.24,6.24,0,0,0-.23-1c-.13-.43-.25-.81-.36-1.13a2.51,2.51,0,0,0-.4-.77,1,1,0,0,0-.56-.36,1.68,1.68,0,0,0-.83.08,3.06,3.06,0,0,0-1,.49l.13.22a5.47,5.47,0,0,1,.3.67c.1.26.2.54.29.84s.2.67.31,1a6.4,6.4,0,0,1,.23,1,2,2,0,0,1,0,.81.55.55,0,0,1-.41.44.88.88,0,0,1-.62,0A.72.72,0,0,1,46,197q-.16-.54-.33-1.29c-.1-.5-.22-.94-.33-1.33a2.56,2.56,0,0,0-.66-1.17,1.2,1.2,0,0,0-1.21-.13,2.65,2.65,0,0,0-.84.42v0l.35,1.08c.13.39.25.78.37,1.17s.21.68.3,1a4.4,4.4,0,0,1,.17.85,1.35,1.35,0,0,1-.09.65.72.72,0,0,1-.5.38.86.86,0,0,1-.51-.06.55.55,0,0,1-.3-.36c-.12-.39-.23-.81-.33-1.25s-.24-.9-.39-1.4c-.07-.25-.14-.47-.21-.67s-.13-.38-.2-.56a4.7,4.7,0,0,1-.61-.64A8,8,0,0,0,40,192.9Z"/><path class="cls-4" d="M56.67,187.64c-.14.07-.35.16-.64.27s-.61.22-1,.33l-1.13.37-1.1.34-.69.22a2.31,2.31,0,0,1-.58.12.7.7,0,0,1-.46-.11.84.84,0,0,1-.29-.48.86.86,0,0,1,0-.45.37.37,0,0,1,.29-.29l.53-.15.65-.19,1.08-.32,1.1-.36,1-.36c.32-.11.57-.22.77-.3a.44.44,0,0,1,.42.14.82.82,0,0,1,.24.41.93.93,0,0,1,0,.47A.47.47,0,0,1,56.67,187.64Zm1,3.18a5.41,5.41,0,0,1-.64.26c-.28.11-.61.23-1,.34l-1.13.37-1.09.34-.7.22a2.31,2.31,0,0,1-.58.12.66.66,0,0,1-.45-.11.8.8,0,0,1-.3-.47.9.9,0,0,1,0-.46.39.39,0,0,1,.29-.29l.53-.15.65-.19,1.08-.32,1.11-.36,1-.36c.32-.11.57-.22.78-.3a.43.43,0,0,1,.41.14.91.91,0,0,1,.25.41,1.06,1.06,0,0,1,0,.47A.47.47,0,0,1,57.63,190.82Z"/><path class="cls-4" d="M65.89,180.52a.58.58,0,0,1-.28-.34.66.66,0,0,1,.11-.6.93.93,0,0,1,.5-.38.84.84,0,0,1,.66.13,4,4,0,0,1,.7.56,9,9,0,0,1,.61.67l.37.44c.23.67.45,1.32.65,2s.4,1.25.59,1.86l.38,1.27c.13.41.24.83.34,1.26a2.16,2.16,0,0,0,.55.8c.25.21.48.43.71.66a.71.71,0,0,1,.13.22.62.62,0,0,1-.12.58,1,1,0,0,1-.48.35c-.44.13-1-.17-1.52-.91A3,3,0,0,1,68,190.48a3.38,3.38,0,0,1-2.56-.09,3.26,3.26,0,0,1-1.58-2.13,2.85,2.85,0,0,1-.09-1.38,3.48,3.48,0,0,1,.44-1.18,3.43,3.43,0,0,1,1.8-1.39,5.65,5.65,0,0,1,1-.1,4.93,4.93,0,0,1,1.09.14c-.13-.44-.27-.88-.42-1.31s-.29-.85-.46-1.25q-.28-.31-.6-.63A6.76,6.76,0,0,0,65.89,180.52Zm2.91,6.38,0-.15a1.6,1.6,0,0,0-.93-1,2.35,2.35,0,0,0-1.62,0,1.32,1.32,0,0,0-.41.23,1.68,1.68,0,0,0-.38.45,1.61,1.61,0,0,0-.21.65,2.05,2.05,0,0,0,.09.83A2,2,0,0,0,66.1,189a1.54,1.54,0,0,0,1.33.15,1.83,1.83,0,0,0,.62-.32,2.11,2.11,0,0,0,.48-.55,2,2,0,0,0,.27-.68A2,2,0,0,0,68.8,186.9Z"/><path class="cls-4" d="M74,182.24a1.1,1.1,0,0,1,.15-.16.56.56,0,0,1,.2-.12,3.57,3.57,0,0,1,1.14,0,3.62,3.62,0,0,1,1.2.36,3.78,3.78,0,0,1,1.07.82,3.39,3.39,0,0,1,.71,1.3,4,4,0,0,1,.15,1.53,3.16,3.16,0,0,1-.39,1.25,3,3,0,0,1-.86.93,4,4,0,0,1-1.24.6,3.48,3.48,0,0,1-1.18.13,3.12,3.12,0,0,1-1.2-.3,3.25,3.25,0,0,1-1-.74,2.86,2.86,0,0,1-.7-1.23,3.78,3.78,0,0,1-.14-1.38,4.91,4.91,0,0,1,.3-1.32,3.4,3.4,0,0,1,.61-1,1.71,1.71,0,0,1,.78-.56A.83.83,0,0,1,74,182.24Zm.47,1.12c-.2.19-.37.38-.53.56a2.09,2.09,0,0,0-.35.59,1.81,1.81,0,0,0-.13.72,3.89,3.89,0,0,0,.17,1,1.84,1.84,0,0,0,.41.75,1.43,1.43,0,0,0,.59.37,1.62,1.62,0,0,0,.66.08,2.86,2.86,0,0,0,.66-.13,1.45,1.45,0,0,0,1-.86,2.08,2.08,0,0,0,.06-1.44,2.5,2.5,0,0,0-.46-.91,1.79,1.79,0,0,0-.61-.47,2.38,2.38,0,0,0-.71-.17Z"/><path class="cls-4" d="M83.26,179c.25.39.5.81.74,1.25l.71,1.32.66,1.25c.21.39.42.74.61,1.05,0-.48,0-1,0-1.41s0-.92,0-1.38,0-1-.08-1.49a16.71,16.71,0,0,0-.2-1.71.49.49,0,0,1,.1-.4.67.67,0,0,1,.33-.22.94.94,0,0,1,.62,0,.64.64,0,0,1,.39.41c.12,1,.21,1.89.26,2.81a23.88,23.88,0,0,1,0,2.49,8,8,0,0,1-.24,1.84c-.13.48-.33.76-.61.85a.85.85,0,0,1-.78-.25,4.81,4.81,0,0,1-.87-1A11.79,11.79,0,0,1,84,183c-.3-.55-.58-1.11-.83-1.68q.1.93.18,1.86c0,.63.05,1.19,0,1.7a5.46,5.46,0,0,1-.17,1.29c-.1.34-.26.55-.48.61s-.65,0-1-.42a9.14,9.14,0,0,1-1.25-1.52,24.05,24.05,0,0,1-1.32-2.18c-.45-.81-.87-1.62-1.25-2.44l0-.07a.56.56,0,0,1,.11-.5.84.84,0,0,1,.47-.34.73.73,0,0,1,.44,0,.58.58,0,0,1,.36.3c.46,1,.92,2,1.37,2.84a27.73,27.73,0,0,0,1.6,2.6,14.25,14.25,0,0,1-.17-2.35c0-.92-.08-2-.2-3.28a.71.71,0,0,1,.12-.51.73.73,0,0,1,.39-.28.72.72,0,0,1,.48,0A.81.81,0,0,1,83.26,179Z"/><path class="cls-4" d="M88,178.38a.79.79,0,0,1-.28-.35.68.68,0,0,1,.12-.59,1,1,0,0,1,.51-.39.64.64,0,0,1,.41,0,1.56,1.56,0,0,1,.4.22,3.25,3.25,0,0,1,.35.31l.29.3c.23-.16.5-.33.82-.51a5.81,5.81,0,0,1,1.08-.44,4.56,4.56,0,0,1,.64-.16,2.09,2.09,0,0,1,.79,0,2.06,2.06,0,0,1,.83.33,2.57,2.57,0,0,1,.77.89,4.25,4.25,0,0,1,.35.84l.35,1.05c.08.31.17.63.27.95a4.93,4.93,0,0,1,.19.89,1.69,1.69,0,0,1,0,.69.54.54,0,0,1-.4.37.88.88,0,0,1-.62,0,.67.67,0,0,1-.37-.45c-.12-.38-.23-.81-.34-1.31s-.22-.94-.34-1.33a3.37,3.37,0,0,0-.35-.84,1.33,1.33,0,0,0-.4-.44.74.74,0,0,0-.49-.13,2.73,2.73,0,0,0-.58.12,2.88,2.88,0,0,0-.65.29l-.62.39c.08.25.17.5.26.76l.26.82c.13.46.26.88.38,1.27a6,6,0,0,1,.23,1,1.51,1.51,0,0,1-.06.75.71.71,0,0,1-.5.41.86.86,0,0,1-.51-.06.55.55,0,0,1-.3-.36c-.12-.39-.23-.8-.33-1.24s-.23-.91-.38-1.41c-.08-.25-.15-.47-.22-.66s-.13-.38-.2-.56a5.36,5.36,0,0,1-.61-.64A5.48,5.48,0,0,0,88,178.38Z"/><path class="cls-4" d="M102.61,177.86l-.21-.77a7.27,7.27,0,0,1-.2-.73l-.36-1.39-.65.19-.48.14a1.33,1.33,0,0,1-.39,0,.49.49,0,0,1-.3-.16,1,1,0,0,1-.22-.42.9.9,0,0,1,0-.46.4.4,0,0,1,.29-.29l.6-.16a7.35,7.35,0,0,0,.82-.25c-.22-.72-.45-1.43-.69-2.12s-.48-1.45-.72-2.25a.53.53,0,0,1,.09-.55.91.91,0,0,1,.47-.3.65.65,0,0,1,.68.12,2.14,2.14,0,0,1,.46.67,5.68,5.68,0,0,1,.3.88c.07.32.14.57.19.77.25.82.47,1.6.65,2.33.62-.19,1.22-.38,1.78-.57s1-.36,1.3-.49a.47.47,0,0,1,.42.14,1.06,1.06,0,0,1,.24.41.71.71,0,0,1,0,.54,1.13,1.13,0,0,1-.48.4,6.55,6.55,0,0,1-1.07.41l-1.82.55c.11.44.22.89.36,1.35s.27.94.43,1.45a2.21,2.21,0,0,0,.62,1.09.89.89,0,0,0,.83.19,1.29,1.29,0,0,0,.74-.6,4.51,4.51,0,0,0,.45-1.14.43.43,0,0,1,.34-.31.78.78,0,0,1,.56,0,.61.61,0,0,1,.36.41,1.35,1.35,0,0,1,0,.86,3.24,3.24,0,0,1-.49.91,4.72,4.72,0,0,1-.81.8,3,3,0,0,1-1,.5,2,2,0,0,1-1.11.06,2.25,2.25,0,0,1-.88-.46,3.31,3.31,0,0,1-.65-.82A4.57,4.57,0,0,1,102.61,177.86Z"/><path class="cls-4" d="M107.05,169.28a.62.62,0,0,1-.26-.35.77.77,0,0,1,.06-.59.79.79,0,0,1,.48-.39,1,1,0,0,1,1,.23,3.71,3.71,0,0,1,.86,1,8.83,8.83,0,0,1,.68,1.25c.2.44.35.79.46,1.06.19-.12.39-.23.59-.33a3.47,3.47,0,0,1,.67-.26,7.26,7.26,0,0,1,.84-.21,2.31,2.31,0,0,1,1.13.07,2.65,2.65,0,0,1,1.15.77,4.88,4.88,0,0,1,1,1.92c.13.42.24.82.34,1.2a6.94,6.94,0,0,1,.2,1.06,2,2,0,0,1,0,.79.58.58,0,0,1-.41.42.91.91,0,0,1-.54,0,.48.48,0,0,1-.38-.36,5.43,5.43,0,0,1-.18-.87,7.79,7.79,0,0,0-.25-1.12q-.23-.72-.42-1.23a2.59,2.59,0,0,0-.45-.8,1,1,0,0,0-.64-.33,2.46,2.46,0,0,0-1,.13l-.19.07-.19.07-.73.43c.22.72.43,1.45.62,2.2s.36,1.43.48,2.08a.77.77,0,0,1-.12.6.83.83,0,0,1-.45.34.77.77,0,0,1-.52,0,.55.55,0,0,1-.33-.38c-.2-.69-.39-1.39-.56-2.13s-.37-1.44-.57-2.14c-.13-.42-.25-.81-.35-1.18a8.14,8.14,0,0,0-.39-1,5.38,5.38,0,0,0-.61-1A5.79,5.79,0,0,0,107.05,169.28Z"/><path class="cls-4" d="M122,168.44a2.7,2.7,0,0,1,1,1.29.89.89,0,0,1-.42,1.09l-3.73,2.46a1.94,1.94,0,0,0,.84.41,1.85,1.85,0,0,0,.88,0,4.26,4.26,0,0,0,1.17-.58,3,3,0,0,0,.86-1.07.49.49,0,0,1,.28-.23.72.72,0,0,1,.54.08.68.68,0,0,1,.4.43.87.87,0,0,1-.09.65,3.67,3.67,0,0,1-.53.77,4.77,4.77,0,0,1-.85.73,3.87,3.87,0,0,1-1.07.5,4.5,4.5,0,0,1-1.26.19,4.23,4.23,0,0,1-1.36-.2,3.38,3.38,0,0,1-1.2-.72,3,3,0,0,1-.8-1.39,5.14,5.14,0,0,1,0-2.34,2.52,2.52,0,0,1,.87-1.49,4.38,4.38,0,0,1,1.61-.89,3.82,3.82,0,0,1,1.5-.15A2.79,2.79,0,0,1,122,168.44Zm-3.83,3.62,3.26-2.12a1.12,1.12,0,0,0-.75-.6,1.93,1.93,0,0,0-1,0,2.16,2.16,0,0,0-.91.5,2.28,2.28,0,0,0-.5.72,2.19,2.19,0,0,0-.17.78A2,2,0,0,0,118.18,172.06Z"/><path class="cls-4" d="M127.93,166.31a.75.75,0,0,1-.27-.35.65.65,0,0,1,.12-.59,1,1,0,0,1,.5-.39.62.62,0,0,1,.48.05,2.54,2.54,0,0,1,.47.31,3.25,3.25,0,0,1,.42.41l.33.39a4.24,4.24,0,0,1,.84-.87,3.86,3.86,0,0,1,1.26-.65,3.06,3.06,0,0,1,1.28-.1,3.39,3.39,0,0,1,2.25,1.19,3.27,3.27,0,0,1,.64,1.19,3.88,3.88,0,0,1,.18,1.23,3.58,3.58,0,0,1-.23,1.33,3.48,3.48,0,0,1-.81,1.21,3.41,3.41,0,0,1-1.49.84,4.73,4.73,0,0,1-.91.18,5.41,5.41,0,0,1-.9,0c.21.74.38,1.34.52,1.81a9.94,9.94,0,0,1,.26,1.15,1.05,1.05,0,0,1-.08.65.87.87,0,0,1-.51.34,1,1,0,0,1-.52,0,.5.5,0,0,1-.31-.34l0-.1-.4-1.55c-.14-.54-.29-1.11-.46-1.69s-.34-1.17-.52-1.74-.32-1.08-.47-1.54-.25-.77-.31-.93a3.75,3.75,0,0,1-.61-.64A7.09,7.09,0,0,0,127.93,166.31Zm2.87,1.18c.11.37.25.8.41,1.28s.32,1,.48,1.52a3.84,3.84,0,0,0,1.63-.13,2.54,2.54,0,0,0,1-.48,1.81,1.81,0,0,0,.5-.66,1.66,1.66,0,0,0,.13-.73,2.7,2.7,0,0,0-.12-.71,2.1,2.1,0,0,0-1-1.32,2.1,2.1,0,0,0-2.4.42A6.63,6.63,0,0,0,130.8,167.49Z"/><path class="cls-4" d="M135.12,159.42a.7.7,0,0,1-.28-.34.67.67,0,0,1,.12-.6,1,1,0,0,1,.5-.39.84.84,0,0,1,.63.12,3.45,3.45,0,0,1,.68.51q.33.32.63.66c.2.24.36.43.49.57.21.55.41,1.11.59,1.68s.37,1.14.55,1.73c.28.94.55,1.85.79,2.73s.47,1.71.68,2.5a.6.6,0,0,1-.06.5.66.66,0,0,1-.39.28,1.12,1.12,0,0,1-.63,0A.56.56,0,0,1,139,169c-.17-.55-.34-1.18-.5-1.89s-.37-1.45-.6-2.21-.44-1.44-.67-2.15-.45-1.35-.66-1.93l-.66-.68A10.27,10.27,0,0,0,135.12,159.42Z"/><path class="cls-4" d="M142.69,161.44a.51.51,0,0,1,.31-.2,2.85,2.85,0,0,1,1.3,0,3.21,3.21,0,0,1,1.12.47,3.28,3.28,0,0,1,.85.81,3.24,3.24,0,0,1,.49,1l0,.1a3.18,3.18,0,0,0,.51.62,1.59,1.59,0,0,0,.46.29.94.94,0,0,0,.43,0l.39-.08a1.19,1.19,0,0,0,.36-.2,1.35,1.35,0,0,1,.45-.22.54.54,0,0,1,.49.08.72.72,0,0,1,.3.39.67.67,0,0,1,0,.42,1,1,0,0,1-.25.37,1.55,1.55,0,0,1-.41.3,3,3,0,0,1-.46.19,2.67,2.67,0,0,1-1.39.08,2.86,2.86,0,0,1-1.09-.47,2.87,2.87,0,0,1-.73,1,2.74,2.74,0,0,1-1.08.6,4,4,0,0,1-1.15.16,3.14,3.14,0,0,1-1.14-.24,2.7,2.7,0,0,1-1-.66,2.65,2.65,0,0,1-.65-1.14,2.91,2.91,0,0,1-.11-.91,2.88,2.88,0,0,1,.18-1,3.33,3.33,0,0,1,.5-.95,2.48,2.48,0,0,1,.86-.73l.11,0A1.73,1.73,0,0,1,142.69,161.44Zm.5,1.2a2.06,2.06,0,0,0-.82.92,1.49,1.49,0,0,0,0,1,1.85,1.85,0,0,0,.65,1,1.46,1.46,0,0,0,1.34.07,1.31,1.31,0,0,0,.79-.64,1.43,1.43,0,0,0,.09-1.12,1.74,1.74,0,0,0-.35-.68,1.48,1.48,0,0,0-.47-.37,1.85,1.85,0,0,0-.57-.15Z"/><path class="cls-4" d="M149.23,159.87a.69.69,0,0,1-.27-.35.65.65,0,0,1,.12-.59.94.94,0,0,1,.5-.39.64.64,0,0,1,.41,0,1.2,1.2,0,0,1,.4.22,2.51,2.51,0,0,1,.35.31l.3.31a6.75,6.75,0,0,1,.81-.52,5.2,5.2,0,0,1,1.08-.44,4.56,4.56,0,0,1,.64-.16,2.09,2.09,0,0,1,.79,0,2,2,0,0,1,.83.33,2.57,2.57,0,0,1,.77.89,4.25,4.25,0,0,1,.35.84l.35,1c.09.31.17.63.27,1a4.93,4.93,0,0,1,.19.89,1.71,1.71,0,0,1,0,.69.57.57,0,0,1-.4.37.88.88,0,0,1-.62,0,.69.69,0,0,1-.38-.45c-.12-.38-.23-.81-.34-1.31s-.22-.94-.34-1.33a3.63,3.63,0,0,0-.34-.84,1.66,1.66,0,0,0-.41-.45.78.78,0,0,0-.48-.12,2.69,2.69,0,0,0-.59.12,2.5,2.5,0,0,0-.65.29l-.62.39c.09.25.17.5.26.76l.26.82c.14.46.26.88.38,1.27a5.18,5.18,0,0,1,.23,1,1.51,1.51,0,0,1-.06.75.69.69,0,0,1-.49.41.85.85,0,0,1-.51-.06.59.59,0,0,1-.31-.36c-.11-.39-.23-.8-.33-1.24s-.23-.91-.38-1.41l-.21-.66c-.07-.2-.14-.39-.21-.56a5.36,5.36,0,0,1-.61-.64A5.48,5.48,0,0,0,149.23,159.87Z"/><path class="cls-4" d="M159.31,160.72c-.07-.27-.14-.52-.21-.77a7.44,7.44,0,0,1-.2-.74l-.36-1.39-.65.2-.48.13a1.08,1.08,0,0,1-.39,0,.49.49,0,0,1-.3-.16,1,1,0,0,1-.22-.43,1,1,0,0,1,0-.45.39.39,0,0,1,.29-.29l.61-.16c.24-.06.51-.15.81-.25q-.33-1.08-.69-2.13c-.24-.7-.48-1.44-.72-2.24a.55.55,0,0,1,.09-.56,1.06,1.06,0,0,1,.47-.3.66.66,0,0,1,.68.13,2.21,2.21,0,0,1,.46.66,5.81,5.81,0,0,1,.3.89c.07.31.14.57.19.76.25.83.47,1.61.65,2.34.62-.19,1.22-.38,1.78-.57s1-.36,1.3-.49a.44.44,0,0,1,.42.14,1,1,0,0,1,.24.41.69.69,0,0,1,0,.53,1,1,0,0,1-.48.4,5.74,5.74,0,0,1-1.07.41l-1.82.55q.16.66.36,1.35c.13.46.27,1,.43,1.46a2.13,2.13,0,0,0,.62,1.08.84.84,0,0,0,.83.19,1.22,1.22,0,0,0,.74-.6,4.43,4.43,0,0,0,.45-1.13.43.43,0,0,1,.34-.31.78.78,0,0,1,.56,0,.62.62,0,0,1,.36.4,1.35,1.35,0,0,1,0,.86,3.11,3.11,0,0,1-.49.91,4.09,4.09,0,0,1-.81.8,3,3,0,0,1-1,.51,2,2,0,0,1-2-.41,3,3,0,0,1-.65-.82A4.31,4.31,0,0,1,159.31,160.72Z"/><path class="cls-4" d="M1228.57,379.53c-32.32-11.58-68.65,2-88.86,28.86-4.73,6.29-9.75,14.63-7.07,22.79,3,9.2,13.94,9.14,21.91,9.11A114.51,114.51,0,0,0,1212.31,424c8.42-5,18.29-11.83,16.85-23a12.71,12.71,0,0,0-7.4-10.14c-4.1-1.91-9-1-12.92-3.38-5.52-3.34-10.55,5.31-5,8.64a21.24,21.24,0,0,0,7.9,2.65c2.78.44,6.92.18,7.55,3.58,1.29,7-10.91,12.55-15.74,15.19a103.52,103.52,0,0,1-44.72,12.64,98.38,98.38,0,0,1-10.16,0c-4-.23-7.36-.73-6.5-5.41,1.12-6.14,6.47-12,10.57-16.4a72.66,72.66,0,0,1,32.06-20.1,65.24,65.24,0,0,1,41.17.94c6.06,2.17,8.68-7.49,2.65-9.65Z"/><path class="cls-5" d="M464,396.71h4.84l6.48,15.81h.25l6.48-15.81h4.84v21.82h-3.8v-15h-.2l-6,14.93H474l-6-15h-.2v15H464Z"/><path class="cls-5" d="M494.87,418.86a6.8,6.8,0,0,1-2.8-.56,4.47,4.47,0,0,1-2-1.66,4.81,4.81,0,0,1-.72-2.7,4.51,4.51,0,0,1,.52-2.29,3.87,3.87,0,0,1,1.39-1.45,7.32,7.32,0,0,1,2-.83,18.7,18.7,0,0,1,2.3-.41q1.44-.15,2.34-.27a3.42,3.42,0,0,0,1.3-.38.9.9,0,0,0,.41-.82v-.06a2.46,2.46,0,0,0-.71-1.87,3,3,0,0,0-2.06-.66,3.68,3.68,0,0,0-2.24.62,3,3,0,0,0-1.11,1.46l-3.6-.51a5.8,5.8,0,0,1,1.4-2.5,6.26,6.26,0,0,1,2.4-1.51,9.17,9.17,0,0,1,3.13-.51,10.57,10.57,0,0,1,2.36.28,6.91,6.91,0,0,1,2.14.91,4.81,4.81,0,0,1,1.56,1.72,5.7,5.7,0,0,1,.59,2.72v10.95H499.8v-2.25h-.13a4.65,4.65,0,0,1-1,1.28,4.59,4.59,0,0,1-1.59.94A6.28,6.28,0,0,1,494.87,418.86Zm1-2.83a4.12,4.12,0,0,0,2-.47,3.41,3.41,0,0,0,1.32-1.23,3.16,3.16,0,0,0,.46-1.67v-1.93a1.84,1.84,0,0,1-.61.28,9.82,9.82,0,0,1-1,.22c-.36.07-.71.12-1.06.17l-.9.13a7.33,7.33,0,0,0-1.55.38,2.66,2.66,0,0,0-1.07.74,2.06,2.06,0,0,0,.38,2.83A3.33,3.33,0,0,0,495.87,416Z"/><path class="cls-5" d="M519.46,406.49l-3.51.39a3,3,0,0,0-.52-1,2.71,2.71,0,0,0-1-.75,3.57,3.57,0,0,0-1.51-.29,3.66,3.66,0,0,0-2,.52,1.54,1.54,0,0,0-.8,1.36,1.43,1.43,0,0,0,.52,1.16,4.56,4.56,0,0,0,1.79.73l2.79.6a7,7,0,0,1,3.46,1.59,3.77,3.77,0,0,1,1.14,2.84,4.34,4.34,0,0,1-.9,2.72,5.76,5.76,0,0,1-2.46,1.84,9.36,9.36,0,0,1-3.63.66,8.36,8.36,0,0,1-4.83-1.26,5.07,5.07,0,0,1-2.19-3.52l3.76-.37a2.69,2.69,0,0,0,1.09,1.68,3.83,3.83,0,0,0,2.16.56,3.91,3.91,0,0,0,2.21-.56,1.65,1.65,0,0,0,.84-1.4,1.46,1.46,0,0,0-.54-1.16,3.73,3.73,0,0,0-1.66-.7l-2.8-.59a6.6,6.6,0,0,1-3.48-1.66,4,4,0,0,1-1.12-2.95,4.17,4.17,0,0,1,.83-2.63,5.34,5.34,0,0,1,2.33-1.72,9.05,9.05,0,0,1,3.46-.62,7.45,7.45,0,0,1,4.53,1.23A5.17,5.17,0,0,1,519.46,406.49Z"/><path class="cls-5" d="M530.3,402.17v3h-9.41v-3Zm-7.09-3.92h3.86v15.36a2.41,2.41,0,0,0,.24,1.19,1.26,1.26,0,0,0,.63.56,2.5,2.5,0,0,0,.88.14,3.41,3.41,0,0,0,.66-.05c.21,0,.36-.07.47-.09l.65,3a8.13,8.13,0,0,1-.88.23,6.71,6.71,0,0,1-1.39.15,6.08,6.08,0,0,1-2.61-.44,3.91,3.91,0,0,1-1.84-1.51,4.52,4.52,0,0,1-.67-2.55Z"/><path class="cls-5" d="M539.73,418.85a8.27,8.27,0,0,1-4.24-1,6.87,6.87,0,0,1-2.75-2.92,9.71,9.71,0,0,1-1-4.46,9.6,9.6,0,0,1,1-4.43,7.25,7.25,0,0,1,2.7-3,7.66,7.66,0,0,1,4.08-1.07,8.46,8.46,0,0,1,2.86.49,6.41,6.41,0,0,1,2.38,1.5,6.93,6.93,0,0,1,1.64,2.57,10.34,10.34,0,0,1,.6,3.71v1.18H533.59v-2.6h9.72a4.22,4.22,0,0,0-.48-2,3.5,3.5,0,0,0-1.3-1.37,4.07,4.07,0,0,0-4,.07,4,4,0,0,0-1.39,1.49,4.2,4.2,0,0,0-.5,2v2.27a5.26,5.26,0,0,0,.52,2.44,3.68,3.68,0,0,0,1.46,1.56,4.31,4.31,0,0,0,2.19.54,4.63,4.63,0,0,0,1.53-.24,3.36,3.36,0,0,0,1.18-.71,3.08,3.08,0,0,0,.76-1.16l3.6.4a5.63,5.63,0,0,1-1.3,2.49,6.22,6.22,0,0,1-2.43,1.64A9.2,9.2,0,0,1,539.73,418.85Z"/><path class="cls-5" d="M549.4,418.53V402.17h3.74v2.72h.17a4.08,4.08,0,0,1,1.54-2.19,4.22,4.22,0,0,1,2.49-.77l.72,0a4.93,4.93,0,0,1,.67.08v3.55a4.13,4.13,0,0,0-.77-.16,9.21,9.21,0,0,0-1-.07,3.94,3.94,0,0,0-1.89.45,3.4,3.4,0,0,0-1.32,1.26,3.48,3.48,0,0,0-.48,1.84v9.62Z"/><path class="cls-5" d="M574.25,418.85a8.34,8.34,0,0,1-4.25-1,6.85,6.85,0,0,1-2.74-2.92,10.77,10.77,0,0,1,0-8.89,7.39,7.39,0,0,1,2.7-3A7.66,7.66,0,0,1,574,402a8.42,8.42,0,0,1,2.86.49,6.45,6.45,0,0,1,2.39,1.5,7.06,7.06,0,0,1,1.64,2.57,10.58,10.58,0,0,1,.59,3.71v1.18H568.11v-2.6h9.72a4.22,4.22,0,0,0-.48-2,3.52,3.52,0,0,0-1.31-1.37,3.73,3.73,0,0,0-1.94-.5,3.8,3.8,0,0,0-2.08.57,3.9,3.9,0,0,0-1.39,1.49,4.32,4.32,0,0,0-.51,2v2.27a5.26,5.26,0,0,0,.53,2.44,3.62,3.62,0,0,0,1.46,1.56,4.28,4.28,0,0,0,2.19.54,4.53,4.53,0,0,0,1.52-.24,3.4,3.4,0,0,0,1.19-.71,3.06,3.06,0,0,0,.75-1.16l3.6.4a5.61,5.61,0,0,1-1.29,2.49,6.33,6.33,0,0,1-2.44,1.64A9.11,9.11,0,0,1,574.25,418.85Z"/><path class="cls-5" d="M598.05,402.17l-5.83,16.36H588l-5.83-16.36h4.12L590,414.32h.17L594,402.17Z"/><path class="cls-5" d="M606.52,418.85a8.3,8.3,0,0,1-4.24-1,6.87,6.87,0,0,1-2.75-2.92,9.84,9.84,0,0,1-.95-4.46,9.73,9.73,0,0,1,1-4.43,7.25,7.25,0,0,1,2.7-3,7.66,7.66,0,0,1,4.08-1.07,8.46,8.46,0,0,1,2.86.49,6.45,6.45,0,0,1,2.39,1.5,6.91,6.91,0,0,1,1.63,2.57,10.34,10.34,0,0,1,.6,3.71v1.18H600.39v-2.6h9.71a4,4,0,0,0-.48-2,3.43,3.43,0,0,0-1.3-1.37,4,4,0,0,0-4,.07,3.9,3.9,0,0,0-1.39,1.49,4.32,4.32,0,0,0-.51,2v2.27a5.26,5.26,0,0,0,.52,2.44,3.74,3.74,0,0,0,1.46,1.56,4.35,4.35,0,0,0,2.2.54,4.53,4.53,0,0,0,1.52-.24,3.36,3.36,0,0,0,1.18-.71,3,3,0,0,0,.76-1.16l3.6.4a5.72,5.72,0,0,1-1.29,2.49,6.33,6.33,0,0,1-2.44,1.64A9.2,9.2,0,0,1,606.52,418.85Z"/><path class="cls-5" d="M616.19,418.53V402.17h3.74v2.72h.17a4.14,4.14,0,0,1,1.54-2.19,4.26,4.26,0,0,1,2.5-.77l.72,0a5,5,0,0,1,.66.08v3.55a4.13,4.13,0,0,0-.77-.16,9,9,0,0,0-1-.07,3.94,3.94,0,0,0-1.89.45,3.31,3.31,0,0,0-1.31,1.26,3.48,3.48,0,0,0-.48,1.84v9.62Z"/><path class="cls-5" d="M630.13,424.64a8.26,8.26,0,0,1-1.46-.13,5.41,5.41,0,0,1-1.06-.29l.9-3a3.91,3.91,0,0,0,2.11.12,2.42,2.42,0,0,0,1.41-1.59l.33-.89-5.93-16.7h4.09l3.77,12.35h.17l3.79-12.35,4.12,0-6.57,18.32a7.7,7.7,0,0,1-1.22,2.21,5.07,5.07,0,0,1-1.85,1.42A6.25,6.25,0,0,1,630.13,424.64Z"/><path class="cls-5" d="M652.33,402.17v3h-9.4v-3Zm-7.08-3.92h3.85v15.36a2.41,2.41,0,0,0,.24,1.19,1.28,1.28,0,0,0,.64.56,2.41,2.41,0,0,0,.87.14,3.58,3.58,0,0,0,.67-.05l.46-.09.65,3a8.13,8.13,0,0,1-.88.23,6.63,6.63,0,0,1-1.39.15,6.13,6.13,0,0,1-2.61-.44,4,4,0,0,1-1.84-1.51,4.44,4.44,0,0,1-.66-2.55Z"/><path class="cls-5" d="M658.89,408.94v9.59H655V396.71h3.77V405H659a4.72,4.72,0,0,1,1.79-2.19,5.4,5.4,0,0,1,3.08-.81,5.89,5.89,0,0,1,3,.72,4.81,4.81,0,0,1,2,2.09,7.25,7.25,0,0,1,.7,3.35v10.42h-3.86v-9.82a3.62,3.62,0,0,0-.85-2.57,3,3,0,0,0-2.37-.93,3.64,3.64,0,0,0-1.82.45,3,3,0,0,0-1.26,1.27A4.15,4.15,0,0,0,658.89,408.94Z"/><path class="cls-5" d="M674.49,399.84a2.25,2.25,0,0,1-1.59-.61,2,2,0,0,1,0-3,2.24,2.24,0,0,1,1.58-.61,2.21,2.21,0,0,1,1.57.61,2,2,0,0,1,0,3A2.21,2.21,0,0,1,674.49,399.84Zm-1.94,18.69V402.17h3.85v16.36Z"/><path class="cls-5" d="M683.35,408.94v9.59H679.5V402.17h3.68V405h.2a4.6,4.6,0,0,1,1.8-2.19,5.51,5.51,0,0,1,3.07-.81,5.88,5.88,0,0,1,3,.73,4.87,4.87,0,0,1,2,2.1,7.22,7.22,0,0,1,.69,3.33v10.42H690v-9.82a3.64,3.64,0,0,0-.85-2.57,3,3,0,0,0-2.33-.93,3.54,3.54,0,0,0-1.8.45,3,3,0,0,0-1.22,1.27A4.15,4.15,0,0,0,683.35,408.94Z"/><path class="cls-5" d="M704,424.94a10.23,10.23,0,0,1-3.57-.55,6.33,6.33,0,0,1-2.4-1.48,5.25,5.25,0,0,1-1.26-2l3.48-.84a3.94,3.94,0,0,0,.68.9,3.52,3.52,0,0,0,1.21.78,5,5,0,0,0,1.92.31,4.53,4.53,0,0,0,2.72-.78,3,3,0,0,0,1.07-2.55v-3.1h-.19a5.33,5.33,0,0,1-.87,1.22,4.49,4.49,0,0,1-1.5,1.06,5.69,5.69,0,0,1-2.34.43,6.67,6.67,0,0,1-3.41-.89,6.27,6.27,0,0,1-2.43-2.67,9.75,9.75,0,0,1-.9-4.44,10.41,10.41,0,0,1,.9-4.56,6.63,6.63,0,0,1,2.43-2.82,6.27,6.27,0,0,1,3.42-1,5.15,5.15,0,0,1,2.37.49,4.68,4.68,0,0,1,1.49,1.16,6.59,6.59,0,0,1,.84,1.27h.21v-2.7h3.81V418.8a5.68,5.68,0,0,1-1,3.42,6,6,0,0,1-2.74,2A10.82,10.82,0,0,1,704,424.94Zm0-9.67a3.6,3.6,0,0,0,2.09-.6,3.7,3.7,0,0,0,1.31-1.71,8.47,8.47,0,0,0,0-5.39,3.91,3.91,0,0,0-1.3-1.81,3.78,3.78,0,0,0-4.25,0,4,4,0,0,0-1.3,1.84,8.11,8.11,0,0,0,0,5.27,3.85,3.85,0,0,0,1.31,1.75A3.61,3.61,0,0,0,704.07,415.27Z"/><path class="cls-5" d="M719.34,415.55l-.14,1.17a18.48,18.48,0,0,1-.53,2.73c-.25.93-.52,1.78-.79,2.56s-.5,1.4-.67,1.85h-2.6c.1-.44.23-1,.41-1.77s.34-1.59.5-2.52a22.08,22.08,0,0,0,.33-2.83l.08-1.19Z"/><path class="cls-5" d="M733.4,418.86a6.8,6.8,0,0,1-2.8-.56,4.42,4.42,0,0,1-2-1.66,4.81,4.81,0,0,1-.72-2.7,4.62,4.62,0,0,1,.51-2.29,3.9,3.9,0,0,1,1.4-1.45,7.26,7.26,0,0,1,2-.83,19.21,19.21,0,0,1,2.31-.41c1-.1,1.74-.19,2.33-.27a3.42,3.42,0,0,0,1.31-.38.92.92,0,0,0,.41-.82v-.06a2.46,2.46,0,0,0-.71-1.87,3,3,0,0,0-2.06-.66,3.68,3.68,0,0,0-2.24.62,3.12,3.12,0,0,0-1.12,1.46l-3.6-.51a5.92,5.92,0,0,1,1.41-2.5,6.18,6.18,0,0,1,2.4-1.51,9.13,9.13,0,0,1,3.13-.51,10.41,10.41,0,0,1,2.35.28,6.81,6.81,0,0,1,2.14.91,4.63,4.63,0,0,1,1.56,1.72,5.58,5.58,0,0,1,.6,2.72v10.95h-3.71v-2.25h-.13a4.65,4.65,0,0,1-1,1.28,4.79,4.79,0,0,1-1.59.94A6.32,6.32,0,0,1,733.4,418.86Zm1-2.83a4.15,4.15,0,0,0,2-.47,3.41,3.41,0,0,0,1.32-1.23,3.16,3.16,0,0,0,.46-1.67v-1.93a1.84,1.84,0,0,1-.61.28,9.41,9.41,0,0,1-1,.22c-.35.07-.7.12-1.05.17l-.91.13a7.23,7.23,0,0,0-1.54.38,2.7,2.7,0,0,0-1.08.74,1.88,1.88,0,0,0-.39,1.22,1.83,1.83,0,0,0,.78,1.61A3.29,3.29,0,0,0,734.4,416Z"/><path class="cls-5" d="M748.91,408.94v9.59h-3.86V402.17h3.69V405h.19a4.68,4.68,0,0,1,1.81-2.19,5.48,5.48,0,0,1,3.07-.81,5.88,5.88,0,0,1,3,.73,4.92,4.92,0,0,1,2,2.1,7.22,7.22,0,0,1,.68,3.33v10.42h-3.85v-9.82a3.64,3.64,0,0,0-.85-2.57,3,3,0,0,0-2.34-.93,3.53,3.53,0,0,0-1.79.45,3.08,3.08,0,0,0-1.23,1.27A4.26,4.26,0,0,0,748.91,408.94Z"/><path class="cls-5" d="M764.28,424.64a8.26,8.26,0,0,1-1.46-.13,5.41,5.41,0,0,1-1.06-.29l.9-3a3.91,3.91,0,0,0,2.11.12,2.42,2.42,0,0,0,1.41-1.59l.33-.89-5.93-16.7h4.09l3.77,12.35h.17l3.78-12.35,4.13,0-6.58,18.32a7.45,7.45,0,0,1-1.21,2.21,5.07,5.07,0,0,1-1.85,1.42A6.28,6.28,0,0,1,764.28,424.64Z"/><path class="cls-5" d="M786.48,402.17v3h-9.41v-3Zm-7.08-3.92h3.85v15.36a2.41,2.41,0,0,0,.24,1.19,1.24,1.24,0,0,0,.64.56,2.41,2.41,0,0,0,.87.14,3.58,3.58,0,0,0,.67-.05l.46-.09.65,3a8.13,8.13,0,0,1-.88.23,6.63,6.63,0,0,1-1.39.15,6.08,6.08,0,0,1-2.61-.44,4,4,0,0,1-1.84-1.51,4.44,4.44,0,0,1-.66-2.55Z"/><path class="cls-5" d="M790.78,399.84a2.2,2.2,0,0,1-1.58-.61,2,2,0,0,1,0-3,2.24,2.24,0,0,1,1.58-.61,2.21,2.21,0,0,1,1.57.61,2,2,0,0,1,0,3A2.21,2.21,0,0,1,790.78,399.84Zm-1.94,18.69V402.17h3.86v16.36Z"/><path class="cls-5" d="M795.79,418.53V402.17h3.68V405h.2a4.34,4.34,0,0,1,1.69-2.2,4.94,4.94,0,0,1,2.82-.8,4.73,4.73,0,0,1,2.81.81A4.22,4.22,0,0,1,808.6,405h.18a4.47,4.47,0,0,1,1.83-2.18,5.71,5.71,0,0,1,3.08-.82,5,5,0,0,1,3.68,1.43,5.65,5.65,0,0,1,1.43,4.17v11h-3.87V408.14a2.82,2.82,0,0,0-.81-2.23,2.91,2.91,0,0,0-2-.71,2.78,2.78,0,0,0-2.18.87,3.24,3.24,0,0,0-.78,2.25v10.21H805.4V408a2.61,2.61,0,0,0-2.75-2.78,2.82,2.82,0,0,0-1.51.42,3,3,0,0,0-1.09,1.19,3.67,3.67,0,0,0-.41,1.77v9.95Z"/><path class="cls-5" d="M829.09,418.85a8.3,8.3,0,0,1-4.24-1,6.79,6.79,0,0,1-2.74-2.92,10.77,10.77,0,0,1,0-8.89,7.25,7.25,0,0,1,2.7-3,7.66,7.66,0,0,1,4.08-1.07,8.46,8.46,0,0,1,2.86.49,6.45,6.45,0,0,1,2.39,1.5,6.91,6.91,0,0,1,1.63,2.57,10.34,10.34,0,0,1,.6,3.71v1.18H823v-2.6h9.71a4,4,0,0,0-.48-2,3.43,3.43,0,0,0-1.3-1.37,4,4,0,0,0-4,.07,3.9,3.9,0,0,0-1.39,1.49,4.32,4.32,0,0,0-.51,2v2.27a5.39,5.39,0,0,0,.52,2.44,3.74,3.74,0,0,0,1.46,1.56,4.35,4.35,0,0,0,2.2.54,4.53,4.53,0,0,0,1.52-.24,3.27,3.27,0,0,0,1.18-.71,3,3,0,0,0,.76-1.16l3.6.4a5.72,5.72,0,0,1-1.29,2.49,6.33,6.33,0,0,1-2.44,1.64A9.16,9.16,0,0,1,829.09,418.85Z"/><path class="cls-5" d="M843.29,415.55l-.14,1.17a18.48,18.48,0,0,1-.53,2.73c-.25.93-.51,1.78-.79,2.56s-.5,1.4-.67,1.85h-2.6c.1-.44.23-1,.41-1.77s.34-1.59.5-2.52a22.08,22.08,0,0,0,.33-2.83l.08-1.19Z"/><path class="cls-5" d="M857.35,418.86a6.8,6.8,0,0,1-2.8-.56,4.42,4.42,0,0,1-2-1.66,4.81,4.81,0,0,1-.72-2.7,4.62,4.62,0,0,1,.51-2.29,3.9,3.9,0,0,1,1.4-1.45,7.19,7.19,0,0,1,2-.83,18.7,18.7,0,0,1,2.3-.41c1-.1,1.74-.19,2.33-.27a3.42,3.42,0,0,0,1.31-.38.92.92,0,0,0,.41-.82v-.06a2.46,2.46,0,0,0-.71-1.87,3,3,0,0,0-2.06-.66,3.68,3.68,0,0,0-2.24.62A3.12,3.12,0,0,0,856,407l-3.6-.51a5.92,5.92,0,0,1,1.41-2.5,6.18,6.18,0,0,1,2.4-1.51,9.17,9.17,0,0,1,3.13-.51,10.41,10.41,0,0,1,2.35.28,6.81,6.81,0,0,1,2.14.91,4.63,4.63,0,0,1,1.56,1.72,5.58,5.58,0,0,1,.6,2.72v10.95h-3.71v-2.25h-.13a4.65,4.65,0,0,1-1,1.28,4.79,4.79,0,0,1-1.59.94A6.32,6.32,0,0,1,857.35,418.86Zm1-2.83a4.15,4.15,0,0,0,2-.47,3.41,3.41,0,0,0,1.32-1.23,3.16,3.16,0,0,0,.46-1.67v-1.93a1.84,1.84,0,0,1-.61.28,9.41,9.41,0,0,1-1,.22c-.35.07-.7.12-1,.17l-.91.13a7.23,7.23,0,0,0-1.54.38,2.7,2.7,0,0,0-1.08.74,1.88,1.88,0,0,0-.39,1.22,1.83,1.83,0,0,0,.78,1.61A3.33,3.33,0,0,0,858.35,416Z"/><path class="cls-5" d="M872.86,408.94v9.59H869V402.17h3.68V405h.19a4.68,4.68,0,0,1,1.81-2.19,5.51,5.51,0,0,1,3.07-.81,5.88,5.88,0,0,1,3,.73,4.92,4.92,0,0,1,2,2.1,7.35,7.35,0,0,1,.69,3.33v10.42h-3.86v-9.82a3.64,3.64,0,0,0-.85-2.57,3,3,0,0,0-2.34-.93,3.53,3.53,0,0,0-1.79.45,3.08,3.08,0,0,0-1.23,1.27A4.26,4.26,0,0,0,872.86,408.94Z"/><path class="cls-5" d="M888.23,424.64a8.26,8.26,0,0,1-1.46-.13,5.41,5.41,0,0,1-1.06-.29l.9-3a3.91,3.91,0,0,0,2.11.12,2.46,2.46,0,0,0,1.42-1.59l.33-.89-5.94-16.7h4.09l3.77,12.35h.17l3.79-12.35,4.12,0-6.58,18.32a7.45,7.45,0,0,1-1.21,2.21,5.07,5.07,0,0,1-1.85,1.42A6.25,6.25,0,0,1,888.23,424.64Z"/><path class="cls-5" d="M905.64,418.53,901,402.17H905l2.87,11.5H908l2.94-11.5h3.89l2.94,11.44h.16l2.83-11.44h3.95L920,418.53h-4L913,407.47h-.23l-3.06,11.06Z"/><path class="cls-5" d="M930.37,408.94v9.59h-3.86V396.71h3.77V405h.19a4.72,4.72,0,0,1,1.79-2.19,5.43,5.43,0,0,1,3.08-.81,6,6,0,0,1,3,.72,4.79,4.79,0,0,1,2,2.09,7.25,7.25,0,0,1,.7,3.35v10.42h-3.86v-9.82a3.67,3.67,0,0,0-.84-2.57,3.06,3.06,0,0,0-2.37-.93,3.65,3.65,0,0,0-1.83.45,3,3,0,0,0-1.26,1.27A4.15,4.15,0,0,0,930.37,408.94Z"/><path class="cls-5" d="M951.27,418.85a8.3,8.3,0,0,1-4.24-1,6.79,6.79,0,0,1-2.74-2.92,10.77,10.77,0,0,1,0-8.89,7.25,7.25,0,0,1,2.7-3,7.66,7.66,0,0,1,4.08-1.07,8.46,8.46,0,0,1,2.86.49,6.45,6.45,0,0,1,2.39,1.5,6.91,6.91,0,0,1,1.63,2.57,10.34,10.34,0,0,1,.6,3.71v1.18H945.14v-2.6h9.71a4,4,0,0,0-.48-2,3.43,3.43,0,0,0-1.3-1.37,4,4,0,0,0-4,.07,3.9,3.9,0,0,0-1.39,1.49,4.32,4.32,0,0,0-.51,2v2.27a5.26,5.26,0,0,0,.52,2.44,3.74,3.74,0,0,0,1.46,1.56,4.35,4.35,0,0,0,2.2.54,4.53,4.53,0,0,0,1.52-.24,3.36,3.36,0,0,0,1.18-.71,3,3,0,0,0,.76-1.16l3.6.4a5.72,5.72,0,0,1-1.29,2.49,6.33,6.33,0,0,1-2.44,1.64A9.16,9.16,0,0,1,951.27,418.85Z"/><path class="cls-5" d="M960.94,418.53V402.17h3.74v2.72h.17a4.14,4.14,0,0,1,1.54-2.19,4.26,4.26,0,0,1,2.5-.77l.72,0a5,5,0,0,1,.66.08v3.55a4.13,4.13,0,0,0-.77-.16,9,9,0,0,0-1-.07,3.94,3.94,0,0,0-1.89.45,3.38,3.38,0,0,0-1.31,1.26,3.48,3.48,0,0,0-.48,1.84v9.62Z"/><path class="cls-5" d="M978.53,418.85a8.3,8.3,0,0,1-4.24-1,6.87,6.87,0,0,1-2.75-2.92,10.72,10.72,0,0,1,0-8.89,7.25,7.25,0,0,1,2.7-3,7.66,7.66,0,0,1,4.08-1.07,8.46,8.46,0,0,1,2.86.49,6.53,6.53,0,0,1,2.39,1.5,7,7,0,0,1,1.63,2.57,10.34,10.34,0,0,1,.6,3.71v1.18H972.4v-2.6h9.71a4.1,4.1,0,0,0-.48-2,3.43,3.43,0,0,0-1.3-1.37,4,4,0,0,0-4,.07,3.9,3.9,0,0,0-1.39,1.49,4.32,4.32,0,0,0-.51,2v2.27a5.26,5.26,0,0,0,.52,2.44,3.74,3.74,0,0,0,1.46,1.56,4.35,4.35,0,0,0,2.2.54,4.57,4.57,0,0,0,1.52-.24,3.36,3.36,0,0,0,1.18-.71,3,3,0,0,0,.76-1.16l3.6.4a5.63,5.63,0,0,1-1.3,2.49,6.22,6.22,0,0,1-2.43,1.64A9.2,9.2,0,0,1,978.53,418.85Z"/><path class="cls-5" d="M992.73,415.55l-.14,1.17a18.48,18.48,0,0,1-.53,2.73c-.25.93-.52,1.78-.79,2.56s-.5,1.4-.67,1.85H988c.1-.44.23-1,.41-1.77s.34-1.59.5-2.52a22.08,22.08,0,0,0,.33-2.83l.08-1.19Z"/><path class="cls-5" d="M1010.36,402.17v3h-9.67v-3Zm-7.25,16.36V400.62a5.08,5.08,0,0,1,.69-2.75,4.23,4.23,0,0,1,1.84-1.64,6.08,6.08,0,0,1,2.58-.54,8.65,8.65,0,0,1,1.78.16,9.78,9.78,0,0,1,1.15.29l-.76,3c-.17-.05-.37-.1-.62-.15a3.6,3.6,0,0,0-.83-.08,1.92,1.92,0,0,0-1.52.51,2.2,2.2,0,0,0-.44,1.48v17.65Z"/><path class="cls-5" d="M1019,418.85a7.92,7.92,0,0,1-4.15-1.05,7.1,7.1,0,0,1-2.73-3,10.72,10.72,0,0,1,0-8.87,7,7,0,0,1,2.73-3,8.65,8.65,0,0,1,8.3,0,7.11,7.11,0,0,1,2.73,3,10.72,10.72,0,0,1,0,8.87,7.17,7.17,0,0,1-2.73,3A7.92,7.92,0,0,1,1019,418.85Zm0-3.09a3.28,3.28,0,0,0,2.17-.72,4.26,4.26,0,0,0,1.31-1.93,8.79,8.79,0,0,0,0-5.43,4.38,4.38,0,0,0-1.31-1.95,3.28,3.28,0,0,0-2.17-.72,3.38,3.38,0,0,0-2.21.72,4.38,4.38,0,0,0-1.31,1.95,8.79,8.79,0,0,0,0,5.43,4.26,4.26,0,0,0,1.31,1.93A3.38,3.38,0,0,0,1019.06,415.76Z"/><path class="cls-5" d="M1029.27,418.53V402.17H1033v2.72h.17a4.14,4.14,0,0,1,1.54-2.19,4.26,4.26,0,0,1,2.5-.77l.72,0a4.76,4.76,0,0,1,.66.08v3.55a4.13,4.13,0,0,0-.77-.16,9,9,0,0,0-1-.07,3.94,3.94,0,0,0-1.89.45,3.38,3.38,0,0,0-1.31,1.26,3.48,3.48,0,0,0-.48,1.84v9.62Z"/><path class="cls-5" d="M1046.86,418.85a8.3,8.3,0,0,1-4.24-1,6.87,6.87,0,0,1-2.75-2.92,10.72,10.72,0,0,1,0-8.89,7.25,7.25,0,0,1,2.7-3,7.66,7.66,0,0,1,4.08-1.07,8.46,8.46,0,0,1,2.86.49,6.53,6.53,0,0,1,2.39,1.5,7,7,0,0,1,1.63,2.57,10.34,10.34,0,0,1,.6,3.71v1.18h-13.41v-2.6h9.71a4.1,4.1,0,0,0-.48-2,3.43,3.43,0,0,0-1.3-1.37,4,4,0,0,0-4,.07,3.9,3.9,0,0,0-1.39,1.49,4.32,4.32,0,0,0-.51,2v2.27a5.26,5.26,0,0,0,.52,2.44,3.74,3.74,0,0,0,1.46,1.56,4.35,4.35,0,0,0,2.2.54,4.57,4.57,0,0,0,1.52-.24,3.36,3.36,0,0,0,1.18-.71,3,3,0,0,0,.76-1.16l3.6.4a5.63,5.63,0,0,1-1.3,2.49,6.22,6.22,0,0,1-2.43,1.64A9.2,9.2,0,0,1,1046.86,418.85Z"/><path class="cls-5" d="M1070.67,402.17l-5.83,16.36h-4.26l-5.83-16.36h4.11l3.76,12.15h.17l3.77-12.15Z"/><path class="cls-5" d="M1079.14,418.85a8.34,8.34,0,0,1-4.25-1,6.85,6.85,0,0,1-2.74-2.92,9.71,9.71,0,0,1-1-4.46,9.6,9.6,0,0,1,1-4.43,7.25,7.25,0,0,1,2.7-3,7.61,7.61,0,0,1,4.08-1.07,8.51,8.51,0,0,1,2.86.49,6.41,6.41,0,0,1,2.38,1.5,6.93,6.93,0,0,1,1.64,2.57,10.35,10.35,0,0,1,.59,3.71v1.18H1073v-2.6h9.72a4.22,4.22,0,0,0-.48-2,3.45,3.45,0,0,0-1.31-1.37,3.71,3.71,0,0,0-1.94-.5,3.8,3.8,0,0,0-2.08.57,4,4,0,0,0-1.39,1.49,4.2,4.2,0,0,0-.5,2v2.27a5.26,5.26,0,0,0,.52,2.44,3.68,3.68,0,0,0,1.46,1.56,4.28,4.28,0,0,0,2.19.54,4.63,4.63,0,0,0,1.53-.24,3.45,3.45,0,0,0,1.18-.71,3.06,3.06,0,0,0,.75-1.16l3.61.4a5.63,5.63,0,0,1-1.3,2.49,6.37,6.37,0,0,1-2.43,1.64A9.2,9.2,0,0,1,1079.14,418.85Z"/><path class="cls-5" d="M1088.8,418.53V402.17h3.74v2.72h.18a4.12,4.12,0,0,1,1.53-2.19,4.26,4.26,0,0,1,2.5-.77l.72,0a4.93,4.93,0,0,1,.67.08v3.55a4.33,4.33,0,0,0-.77-.16,9.37,9.37,0,0,0-1-.07,3.88,3.88,0,0,0-1.89.45,3.4,3.4,0,0,0-1.32,1.26,3.48,3.48,0,0,0-.48,1.84v9.62Z"/><path class="cls-5" d="M1102.49,415.55l-.14,1.17a18.48,18.48,0,0,1-.53,2.73c-.25.93-.52,1.78-.79,2.56s-.5,1.4-.67,1.85h-2.6c.1-.44.23-1,.41-1.77s.34-1.59.5-2.52a22.08,22.08,0,0,0,.33-2.83l.08-1.19Z"/><path class="cls-5" d="M1120.13,402.17v3h-9.68v-3Zm-7.26,16.36V400.62a5.08,5.08,0,0,1,.69-2.75,4.26,4.26,0,0,1,1.85-1.64,6,6,0,0,1,2.57-.54,8.65,8.65,0,0,1,1.78.16,9.27,9.27,0,0,1,1.15.29l-.76,3c-.17-.05-.37-.1-.62-.15a3.6,3.6,0,0,0-.83-.08,1.92,1.92,0,0,0-1.52.51,2.25,2.25,0,0,0-.44,1.48v17.65Z"/><path class="cls-5" d="M1128.8,418.85a7.92,7.92,0,0,1-4.15-1.05,7.17,7.17,0,0,1-2.73-3,10.72,10.72,0,0,1,0-8.87,7.11,7.11,0,0,1,2.73-3,8.67,8.67,0,0,1,8.31,0,7.15,7.15,0,0,1,2.72,3,10.72,10.72,0,0,1,0,8.87,7.21,7.21,0,0,1-2.72,3A8,8,0,0,1,1128.8,418.85Zm0-3.09A3.33,3.33,0,0,0,1131,415a4.32,4.32,0,0,0,1.3-1.93,8.79,8.79,0,0,0,0-5.43,4.45,4.45,0,0,0-1.3-1.95,3.33,3.33,0,0,0-2.18-.72,3.38,3.38,0,0,0-2.21.72,4.46,4.46,0,0,0-1.31,1.95,8.79,8.79,0,0,0,0,5.43,4.34,4.34,0,0,0,1.31,1.93A3.38,3.38,0,0,0,1128.82,415.76Z"/><path class="cls-5" d="M1139,418.53V402.17h3.74v2.72h.17a4.14,4.14,0,0,1,1.54-2.19,4.26,4.26,0,0,1,2.5-.77l.72,0a4.57,4.57,0,0,1,.66.08v3.55a4.13,4.13,0,0,0-.77-.16,9,9,0,0,0-1-.07,3.94,3.94,0,0,0-1.89.45,3.43,3.43,0,0,0-1.79,3.1v9.62Z"/><path class="cls-5" d="M1164.93,402.17v3h-9.68v-3Zm-7.26,16.36V400.62a5.08,5.08,0,0,1,.69-2.75,4.26,4.26,0,0,1,1.85-1.64,6,6,0,0,1,2.57-.54,8.58,8.58,0,0,1,1.78.16,9.27,9.27,0,0,1,1.15.29l-.76,3c-.17-.05-.37-.1-.62-.15a3.6,3.6,0,0,0-.83-.08,1.92,1.92,0,0,0-1.52.51,2.2,2.2,0,0,0-.44,1.48v17.65Z"/><path class="cls-5" d="M1167.08,418.53V402.17h3.74v2.72h.17a4.14,4.14,0,0,1,1.54-2.19,4.26,4.26,0,0,1,2.5-.77l.72,0a4.76,4.76,0,0,1,.66.08v3.55a4.13,4.13,0,0,0-.77-.16,9,9,0,0,0-1-.07,3.94,3.94,0,0,0-1.89.45,3.43,3.43,0,0,0-1.79,3.1v9.62Z"/><path class="cls-5" d="M1184.67,418.85a8.3,8.3,0,0,1-4.24-1,6.87,6.87,0,0,1-2.75-2.92,9.84,9.84,0,0,1-1-4.46,9.73,9.73,0,0,1,1-4.43,7.25,7.25,0,0,1,2.7-3,7.66,7.66,0,0,1,4.08-1.07,8.46,8.46,0,0,1,2.86.49,6.45,6.45,0,0,1,2.39,1.5,6.91,6.91,0,0,1,1.63,2.57,10.34,10.34,0,0,1,.6,3.71v1.18h-13.41v-2.6h9.71a4,4,0,0,0-.48-2,3.43,3.43,0,0,0-1.3-1.37,4,4,0,0,0-4,.07,3.9,3.9,0,0,0-1.39,1.49,4.32,4.32,0,0,0-.51,2v2.27a5.26,5.26,0,0,0,.52,2.44,3.74,3.74,0,0,0,1.46,1.56,4.35,4.35,0,0,0,2.2.54,4.53,4.53,0,0,0,1.52-.24,3.36,3.36,0,0,0,1.18-.71,3,3,0,0,0,.76-1.16l3.6.4a5.72,5.72,0,0,1-1.29,2.49,6.33,6.33,0,0,1-2.44,1.64A9.2,9.2,0,0,1,1184.67,418.85Z"/><path class="cls-5" d="M1201.58,418.85a8.3,8.3,0,0,1-4.24-1,6.87,6.87,0,0,1-2.75-2.92,9.84,9.84,0,0,1-.95-4.46,9.73,9.73,0,0,1,1-4.43,7.25,7.25,0,0,1,2.7-3,7.66,7.66,0,0,1,4.08-1.07,8.46,8.46,0,0,1,2.86.49,6.45,6.45,0,0,1,2.39,1.5,6.91,6.91,0,0,1,1.63,2.57,10.34,10.34,0,0,1,.6,3.71v1.18h-13.41v-2.6h9.71a4,4,0,0,0-.48-2,3.43,3.43,0,0,0-1.3-1.37,4,4,0,0,0-4,.07A3.9,3.9,0,0,0,1198,407a4.32,4.32,0,0,0-.51,2v2.27a5.39,5.39,0,0,0,.52,2.44,3.74,3.74,0,0,0,1.46,1.56,4.35,4.35,0,0,0,2.2.54,4.53,4.53,0,0,0,1.52-.24,3.36,3.36,0,0,0,1.18-.71,3,3,0,0,0,.76-1.16l3.6.4a5.72,5.72,0,0,1-1.29,2.49,6.33,6.33,0,0,1-2.44,1.64A9.2,9.2,0,0,1,1201.58,418.85Z"/><path class="cls-5" d="M1213.63,418.76a2.29,2.29,0,0,1-1.67-.68,2.2,2.2,0,0,1-.68-1.66,2.17,2.17,0,0,1,.68-1.64,2.33,2.33,0,0,1,1.67-.68,2.27,2.27,0,0,1,1.63.68,2.23,2.23,0,0,1,.71,1.64,2.29,2.29,0,0,1-.34,1.18,2.39,2.39,0,0,1-.85.85A2.18,2.18,0,0,1,1213.63,418.76Z"/><path class="cls-4" d="M1268.54,352.93c20,11.66,35.94,29.09,56.1,40.51,19.19,10.87,40.61,13.62,62.27,10.66,45.3-6.18,87.63-33.05,134.44-27.61,29.29,3.41,56.13,17.59,83.74,26.95,6.11,2.07,8.73-7.59,2.66-9.64-24.3-8.24-47.62-19.78-72.84-25.12-23.13-4.89-45.93-2.6-68.62,3.34-40.91,10.72-87.6,35.72-129.7,16.35-23.48-10.8-40.82-31.15-63-44.08-5.58-3.24-10.62,5.4-5,8.64Z"/><path class="cls-4" d="M1526,462a22.21,22.21,0,0,0-.38,2.35,15.81,15.81,0,0,0-.08,2.59,18.8,18.8,0,0,0,.33,2.73,14.65,14.65,0,0,0,.83,2.81,11.55,11.55,0,0,0,1.24,2.33,16.72,16.72,0,0,0,1.61,2,21.64,21.64,0,0,0,1.74,1.63c.59.49,1.14.91,1.66,1.26a.77.77,0,0,1,.22.28.93.93,0,0,1-.19.92,2,2,0,0,1-.83.67,1,1,0,0,1-.8-.16,7.28,7.28,0,0,1-1.12-.75,14.93,14.93,0,0,1-1.25-1.1c-.42-.41-.8-.81-1.13-1.2a19.85,19.85,0,0,1-1.87-2.5,18.17,18.17,0,0,1-1.57-3.12,15.41,15.41,0,0,1-.88-3.1,21.06,21.06,0,0,1-.32-3.08,19.73,19.73,0,0,1,.11-2.82,14.26,14.26,0,0,1,.43-2.31.69.69,0,0,1,.4-.33,1.87,1.87,0,0,1,1-.07,1,1,0,0,1,.77.61A.92.92,0,0,1,1526,462Z"/><path class="cls-4" d="M1540.36,466.33c-.58.34-1.21.68-1.89,1s-1.42.65-2.24,1-1.42.55-2.17.8-1.55.5-2.39.75a.7.7,0,0,1-.69-.17,1.54,1.54,0,0,1-.48-.65,1.44,1.44,0,0,1-.07-.82.88.88,0,0,1,.54-.64c.7-.19,1.41-.41,2.11-.65s1.38-.5,2.06-.77,1.59-.65,2.34-1l2.1-1a1,1,0,0,1,.68.22,1.43,1.43,0,0,1,.59.69,1,1,0,0,1,0,.65A1.07,1.07,0,0,1,1540.36,466.33Z"/><path class="cls-4" d="M1540,457.85a.92.92,0,0,1-.46-.49,1,1,0,0,1,.09-.92,1.44,1.44,0,0,1,.7-.64,1.29,1.29,0,0,1,1,.12,5.26,5.26,0,0,1,1.14.76c.37.31.7.62,1,.92l.62.63,1,2.21c.15.38.31.76.47,1.14s.32.74.49,1.1a4.33,4.33,0,0,1,1-1.05,4.91,4.91,0,0,1,1.29-.76,4.34,4.34,0,0,1,1.57-.29,5,5,0,0,1,1.73.29,4.67,4.67,0,0,1,1.59.95,4.5,4.5,0,0,1,1.14,1.69,5.57,5.57,0,0,1,.43,2.22,4.62,4.62,0,0,1-.49,2,4.84,4.84,0,0,1-1.28,1.6,7,7,0,0,1-2,1.15,3.37,3.37,0,0,1-1.1.25,3.44,3.44,0,0,1-1.06-.1,1.18,1.18,0,0,1-.2.72,1.13,1.13,0,0,1-.53.41,1.36,1.36,0,0,1-.89,0,.93.93,0,0,1-.64-.61c-.35-1-.74-2.19-1.2-3.48s-.94-2.57-1.44-3.85q-.48-1.18-.93-2.25c-.31-.71-.6-1.37-.89-2-.32-.3-.65-.59-1-.88A10.22,10.22,0,0,0,1540,457.85Zm7.48,8.5c.06.15.12.31.17.47s.11.3.16.44a2.53,2.53,0,0,0,1.13,1.11,1.92,1.92,0,0,0,1.64,0,2.93,2.93,0,0,0,1.7-1.52,2.65,2.65,0,0,0,0-2.12,4,4,0,0,0-.69-1.07,3.53,3.53,0,0,0-.82-.63,2.37,2.37,0,0,0-.85-.26,1.56,1.56,0,0,0-.73.1,3,3,0,0,0-1.64,1.47A3.42,3.42,0,0,0,1547.5,466.35Z"/><path class="cls-4" d="M1563.7,449.12q.4.75.81,1.56c.27.54.54,1.13.81,1.76.59-.23,1.14-.46,1.68-.7s1-.47,1.5-.7a1,1,0,0,1,.68.22,1.55,1.55,0,0,1,.59.69.76.76,0,0,1-.13.81,3.81,3.81,0,0,1-.86.73,8.55,8.55,0,0,1-1.25.65l-1.35.55c.37,1,.71,2.06,1,3.12a.81.81,0,0,1-.19.7,1.67,1.67,0,0,1-.65.47,1.39,1.39,0,0,1-.83.08.81.81,0,0,1-.6-.55c-.29-.94-.61-1.92-1-2.95-.56.23-1.12.43-1.68.62s-1.12.35-1.71.5a.8.8,0,0,1-.69-.17,1.52,1.52,0,0,1-.48-.65,1.47,1.47,0,0,1-.08-.83.91.91,0,0,1,.54-.63,32.64,32.64,0,0,0,3.21-1.07l-1.5-3.44a.78.78,0,0,1,.19-.66,1.51,1.51,0,0,1,.69-.6.94.94,0,0,1,.64,0A1.13,1.13,0,0,1,1563.7,449.12Zm8.74,12c-.58.35-1.21.68-1.89,1s-1.43.65-2.24,1-1.42.54-2.17.8-1.55.5-2.39.75a.73.73,0,0,1-.69-.17,1.6,1.6,0,0,1-.48-.65,1.39,1.39,0,0,1-.07-.83.85.85,0,0,1,.53-.63c.71-.19,1.42-.41,2.11-.66s1.39-.5,2.07-.77,1.59-.64,2.33-1,1.45-.65,2.11-1a.94.94,0,0,1,.68.22,1.49,1.49,0,0,1,.59.69.91.91,0,0,1,0,.65A1,1,0,0,1,1572.44,461.11Z"/><path class="cls-4" d="M1579.14,454l1.15-4.89,7.89,7.15V433.94l6.74-2.67.74,1.85-5.4,2.15-.14,25.54-8.69-8-.55,2.17Z"/><path class="cls-4" d="M1598.14,434.76a.9.9,0,0,1-.47-.49,1,1,0,0,1,.09-.92,1.39,1.39,0,0,1,.71-.63,1.23,1.23,0,0,1,1,.11,5.66,5.66,0,0,1,1.14.76c.37.31.7.62,1,.93l.61.62,1,2.21.47,1.14c.16.37.32.74.49,1.1a4.33,4.33,0,0,1,1-1,4.91,4.91,0,0,1,1.29-.76,4.34,4.34,0,0,1,1.57-.29,5,5,0,0,1,1.73.29,4.67,4.67,0,0,1,1.59,1,4.5,4.5,0,0,1,1.14,1.69,5.57,5.57,0,0,1,.43,2.22,4.77,4.77,0,0,1-.49,2,4.84,4.84,0,0,1-1.28,1.6,6.85,6.85,0,0,1-2,1.15,3.37,3.37,0,0,1-1.09.25,3.48,3.48,0,0,1-1.07-.1,1.18,1.18,0,0,1-.2.72,1.13,1.13,0,0,1-.53.41,1.27,1.27,0,0,1-.88.05.92.92,0,0,1-.65-.61c-.35-1-.74-2.19-1.2-3.48s-.94-2.57-1.44-3.85q-.48-1.19-.93-2.25c-.31-.71-.6-1.37-.89-2-.32-.3-.65-.59-1-.88A11,11,0,0,0,1598.14,434.76Zm7.47,8.5a3.75,3.75,0,0,1,.17.47l.16.44a2.58,2.58,0,0,0,1.13,1.11,1.92,1.92,0,0,0,1.64,0,2.93,2.93,0,0,0,1.7-1.52,2.61,2.61,0,0,0,0-2.12,4,4,0,0,0-.69-1.07,3.38,3.38,0,0,0-.83-.63,2.27,2.27,0,0,0-.84-.26,1.56,1.56,0,0,0-.73.1,3,3,0,0,0-1.64,1.47A3.42,3.42,0,0,0,1605.61,443.26Z"/><path class="cls-4" d="M1612.43,425.18a1.63,1.63,0,0,1,.88-.92,1.4,1.4,0,0,1,.9,0,8.2,8.2,0,0,1,1.16.46c.4.2.8.42,1.18.64s.72.43,1,.58.48.26.81.42.66.32,1,.49.6.32.84.47a1,1,0,0,1,.43.4.81.81,0,0,1-.11.77,1.6,1.6,0,0,1-.76.58,1.51,1.51,0,0,1-.85.06,5.44,5.44,0,0,1-1-.31,9.44,9.44,0,0,1-.9-.45l-.68-.4-.93-.49c-.31-.15-.64-.34-1-.56-.13.52-.25,1.09-.37,1.69s-.25,1.19-.39,1.72a8,8,0,0,1-.52,1.42,1.48,1.48,0,0,1-.73.78,1.46,1.46,0,0,1-.9.05.84.84,0,0,1-.63-.52,1.42,1.42,0,0,1,0-.67,7.62,7.62,0,0,1,.2-1c.09-.34.19-.67.29-1l.24-.81c.12-.47.25-1,.38-1.53Z"/><path class="cls-4" d="M1630.27,437.06c.61-.29,1.2-.56,1.8-.82l1.78-.77,3.42-1.46a1,1,0,0,1,.71.15,1.26,1.26,0,0,1,.45.57,1.12,1.12,0,0,1,0,.7.76.76,0,0,1-.5.52q-2.09.82-4.32,1.82c-1.49.66-2.93,1.26-4.32,1.82a1,1,0,0,1-.9-.15,1.61,1.61,0,0,1-.73-.82.65.65,0,0,1,0-.52l1.45-4c.23-.61.48-1.24.75-1.88a17.92,17.92,0,0,0,.7-2,9.44,9.44,0,0,0,.35-2,4.58,4.58,0,0,0-.33-2,2.39,2.39,0,0,0-1.49-1.44,3,3,0,0,0-2.18.08,3.08,3.08,0,0,0-1.21,1.1,3.91,3.91,0,0,0-.57,2,.84.84,0,0,1-.55.72,1.57,1.57,0,0,1-.87.06.79.79,0,0,1-.65-.5.69.69,0,0,1,0-.38,4.72,4.72,0,0,1,1-3.18,5.8,5.8,0,0,1,2.4-1.79,7.94,7.94,0,0,1,1.62-.45,4.63,4.63,0,0,1,1.78.05,4.18,4.18,0,0,1,1.7.87,5.07,5.07,0,0,1,1.34,2,5.65,5.65,0,0,1,.37,1.51,8.12,8.12,0,0,1,0,1.48,8.3,8.3,0,0,1-.3,1.5c-.14.5-.3,1-.46,1.49-.26.76-.56,1.58-.9,2.48S1630.76,435.86,1630.27,437.06Z"/><path class="cls-4" d="M1646.94,424c-.58.34-1.21.67-1.89,1s-1.42.65-2.23,1-1.42.55-2.17.8-1.55.5-2.4.75a.68.68,0,0,1-.68-.17,1.54,1.54,0,0,1-.48-.65,1.44,1.44,0,0,1-.08-.82.9.9,0,0,1,.54-.64c.71-.19,1.41-.41,2.11-.65s1.39-.5,2.07-.77,1.59-.65,2.33-1,1.45-.65,2.11-1a1,1,0,0,1,.68.22,1.55,1.55,0,0,1,.59.69,1,1,0,0,1,0,.65A1,1,0,0,1,1646.94,424Z"/><path class="cls-4" d="M1660,427.87c-.17-.47-.33-1-.5-1.47s-.34-1-.53-1.55q-1.37.64-2.7,1.17c-.73.29-1.39.55-2,.76a7.79,7.79,0,0,1-1.56.4,2,2,0,0,1-1.13-.14,1.54,1.54,0,0,1-.72-.89,3.08,3.08,0,0,1-.23-1.16,34.61,34.61,0,0,0-.5-4.07,35.87,35.87,0,0,0-1-4.08.84.84,0,0,1,0-.7,1,1,0,0,1,.47-.41,1.94,1.94,0,0,1,1-.07c.39.07.62.19.69.39.2.59.38,1.23.55,1.92s.33,1.37.47,2.08.26,1.38.35,2.05.13,1.27.15,1.82a1.77,1.77,0,0,0,.09.57.33.33,0,0,0,.34.17,2.9,2.9,0,0,0,.62-.12,7,7,0,0,0,.78-.29l.76-.32c.93-.37,1.84-.76,2.73-1.18q-.95-2.36-2-4.81t-2-4.59a.7.7,0,0,1,.11-.67,1.46,1.46,0,0,1,.69-.53,2,2,0,0,1,.72-.13.8.8,0,0,1,.62.28c.39.94.77,1.82,1.11,2.63s.68,1.61,1,2.37.65,1.51,1,2.23.61,1.45.91,2.18a12.94,12.94,0,0,0,1.21-.55q.6-.3,1.17-.63a.69.69,0,0,1,.67.15,1.55,1.55,0,0,1,.54.68.82.82,0,0,1,0,.78,2.14,2.14,0,0,1-.65.61,8.18,8.18,0,0,1-1,.53c-.38.17-.75.35-1.1.53q.27.87.57,1.71c.2.56.42,1.12.64,1.68a.9.9,0,0,1-.21.82,2.05,2.05,0,0,1-.72.49,1.05,1.05,0,0,1-1.43-.64Z"/><path class="cls-4" d="M1666.66,414.23a.75.75,0,0,1,.44-.34,4.51,4.51,0,0,1,2-.17,4.94,4.94,0,0,1,1.76.58,5.16,5.16,0,0,1,1.39,1.11,4.91,4.91,0,0,1,.87,1.4l.06.15a5,5,0,0,0,.85.87,2.18,2.18,0,0,0,.74.38,1.45,1.45,0,0,0,.65,0,4.36,4.36,0,0,0,.58-.19,1.6,1.6,0,0,0,.52-.34,2.53,2.53,0,0,1,.67-.4.84.84,0,0,1,.74.06,1.06,1.06,0,0,1,.51.56.94.94,0,0,1,0,.64,1.62,1.62,0,0,1-.33.6,3.12,3.12,0,0,1-.58.5,4.36,4.36,0,0,1-2.78.65,4.32,4.32,0,0,1-1.71-.57,4.41,4.41,0,0,1-1,1.6,4.28,4.28,0,0,1-1.56,1.06,5.59,5.59,0,0,1-1.73.39,4.79,4.79,0,0,1-1.77-.21,4.38,4.38,0,0,1-1.55-.88,4,4,0,0,1-1.13-1.65,4.44,4.44,0,0,1-.29-1.37,5,5,0,0,1,.14-1.53,5.18,5.18,0,0,1,.64-1.5,3.91,3.91,0,0,1,1.21-1.22l.17-.07A2.6,2.6,0,0,1,1666.66,414.23Zm.9,1.76a3.21,3.21,0,0,0-1.12,1.5,2.33,2.33,0,0,0,.09,1.56,2.76,2.76,0,0,0,1.11,1.4,2.22,2.22,0,0,0,2-.06,2,2,0,0,0,1.12-1.08,2.08,2.08,0,0,0,0-1.71,2.75,2.75,0,0,0-.61-1,2.17,2.17,0,0,0-.77-.5,2.58,2.58,0,0,0-.88-.15Z"/><path class="cls-4" d="M1683.34,406.83a1.18,1.18,0,0,1,.86.23,1.45,1.45,0,0,1,.49.64,1.08,1.08,0,0,1,0,.79.81.81,0,0,1-.49.54,6,6,0,0,1-.68.24c-.24.07-.48.16-.73.26a6,6,0,0,0-1.52.87,2.32,2.32,0,0,0-.85,1.48,4.39,4.39,0,0,0-.07,1.33,4.12,4.12,0,0,0,.25,1.06,2.5,2.5,0,0,0,1.52,1.53,2.84,2.84,0,0,0,2.07,0,4,4,0,0,0,1.46-.94,5.76,5.76,0,0,0,.95-1.64.68.68,0,0,1,.38-.38,1.13,1.13,0,0,1,.84.05,1.08,1.08,0,0,1,.66.59,1.59,1.59,0,0,1,0,1,3.91,3.91,0,0,1-.61,1.23,6.53,6.53,0,0,1-1.07,1.18,5.07,5.07,0,0,1-1.42.87,7.63,7.63,0,0,1-1.84.44,5.39,5.39,0,0,1-2-.13,5.07,5.07,0,0,1-1.88-.92,4.43,4.43,0,0,1-1.38-1.94,7,7,0,0,1-.31-3.5,4.1,4.1,0,0,1,.53-1.59,5.38,5.38,0,0,1,1-1.24,6.22,6.22,0,0,1,1.23-.93,10.17,10.17,0,0,1,1.33-.65A9.41,9.41,0,0,1,1683.34,406.83Z"/><path class="cls-4" d="M1684.52,399a1.26,1.26,0,0,1-.26-.33.94.94,0,0,1,.15-.94,1.77,1.77,0,0,1,.8-.65,1.05,1.05,0,0,1,.82.16,7.22,7.22,0,0,1,1.15.79c.41.34.83.71,1.26,1.13s.81.82,1.17,1.21a24.39,24.39,0,0,1,1.93,2.48,15.51,15.51,0,0,1,1.5,2.85,19.27,19.27,0,0,1,1,3.34,20.77,20.77,0,0,1,.37,3.08,16.67,16.67,0,0,1-.11,2.7,19.14,19.14,0,0,1-.4,2.18.79.79,0,0,1-.47.49,1.84,1.84,0,0,1-1,.07.85.85,0,0,1-.72-.5.9.9,0,0,1,0-.39q.18-.92.3-2.07a17.56,17.56,0,0,0,.1-2.43,19.35,19.35,0,0,0-.24-2.58,11.46,11.46,0,0,0-.71-2.59,14.44,14.44,0,0,0-1.32-2.57,19,19,0,0,0-1.65-2.17,22.32,22.32,0,0,0-1.82-1.82A21.54,21.54,0,0,0,1684.52,399Z"/><path class="cls-4" d="M1699,412.23a1.46,1.46,0,0,1-.73.69,1.14,1.14,0,0,1-.79.05.87.87,0,0,1-.56-.55,1.27,1.27,0,0,1-.08-.54l.46-3.18q.24-1.67.57-3.81c.22-1.41.46-2.86.73-4.32s.57-2.91.89-4.34.64-2.7,1-3.82a1.18,1.18,0,0,1,.26-.24,2.1,2.1,0,0,1,.3-.15,1.82,1.82,0,0,1,1-.1.83.83,0,0,1,.69.5.72.72,0,0,1,0,.44c-.37,1.28-.71,2.61-1,4s-.6,2.72-.86,4.05-.49,2.59-.69,3.82-.37,2.33-.53,3.34-.3,1.87-.4,2.59S1699.07,411.9,1699,412.23Z"/><path class="cls-4" d="M1713.16,404.12c.61-.28,1.2-.55,1.8-.81l1.77-.77,3.42-1.46a.89.89,0,0,1,.72.15,1.22,1.22,0,0,1,.44.56,1.08,1.08,0,0,1,0,.71.78.78,0,0,1-.5.52q-2.1.83-4.32,1.81t-4.32,1.82a1,1,0,0,1-.9-.15,1.58,1.58,0,0,1-.73-.82.65.65,0,0,1,0-.52l1.45-4c.23-.61.48-1.23.75-1.88a19.18,19.18,0,0,0,.7-2,8.81,8.81,0,0,0,.34-2,4.55,4.55,0,0,0-.32-1.95,2.34,2.34,0,0,0-1.5-1.44,3,3,0,0,0-2.17.07,3.15,3.15,0,0,0-1.21,1.1,3.93,3.93,0,0,0-.57,2,.83.83,0,0,1-.56.72,1.53,1.53,0,0,1-.86.06.78.78,0,0,1-.65-.49.84.84,0,0,1-.06-.39,4.78,4.78,0,0,1,1-3.18,5.92,5.92,0,0,1,2.39-1.79,8.23,8.23,0,0,1,1.63-.44,4.45,4.45,0,0,1,1.78.05,3.91,3.91,0,0,1,1.69.87,5,5,0,0,1,1.35,2,5.13,5.13,0,0,1,.36,1.5,8.23,8.23,0,0,1,0,1.49,8,8,0,0,1-.3,1.49c-.14.51-.3,1-.46,1.5-.26.75-.56,1.58-.9,2.48S1713.65,402.92,1713.16,404.12Z"/><path class="cls-4" d="M1723.51,391.64a.79.79,0,0,1,.44-.34,4.51,4.51,0,0,1,2-.17,4.94,4.94,0,0,1,1.76.58,5.16,5.16,0,0,1,1.39,1.11,4.91,4.91,0,0,1,.87,1.4l.06.15a5,5,0,0,0,.85.87,2.18,2.18,0,0,0,.74.38,1.45,1.45,0,0,0,.65,0c.19,0,.39-.11.58-.18a1.79,1.79,0,0,0,.52-.34,2.09,2.09,0,0,1,.67-.4.81.81,0,0,1,.74,0,1.1,1.1,0,0,1,.51.56.94.94,0,0,1,0,.64,1.52,1.52,0,0,1-.34.6,2.5,2.5,0,0,1-.57.5,4.17,4.17,0,0,1-2.78.65,4.48,4.48,0,0,1-1.71-.56,4.37,4.37,0,0,1-1,1.59,4.28,4.28,0,0,1-1.56,1.06,5.52,5.52,0,0,1-1.73.39,4.79,4.79,0,0,1-1.77-.21,4.38,4.38,0,0,1-1.55-.88,4,4,0,0,1-1.13-1.65,4.44,4.44,0,0,1-.29-1.36,5.06,5.06,0,0,1,.14-1.54,5.18,5.18,0,0,1,.64-1.5,3.91,3.91,0,0,1,1.21-1.22l.17-.07A2.6,2.6,0,0,1,1723.51,391.64Zm.9,1.76a3.21,3.21,0,0,0-1.12,1.5,2.36,2.36,0,0,0,.09,1.57,2.73,2.73,0,0,0,1.11,1.39,2.22,2.22,0,0,0,2-.06,2,2,0,0,0,1.12-1.08,2.08,2.08,0,0,0,0-1.71,2.75,2.75,0,0,0-.61-1,2.32,2.32,0,0,0-.77-.5,2.58,2.58,0,0,0-.88-.15Z"/></g></g></svg>