<svg xmlns="http://www.w3.org/2000/svg" xmlns:xlink="http://www.w3.org/1999/xlink" viewBox="0 0 719.13 389.39"><defs><style>.cls-1{fill:#fff;stroke:url(#linear-gradient);}.cls-1,.cls-2{stroke-miterlimit:10;stroke-width:6px;}.cls-2{stroke:#fff;fill:url(#linear-gradient-2);}</style><linearGradient id="linear-gradient" x1="71.14" y1="176.76" x2="719.12" y2="176.76" gradientTransform="translate(-0.01 0)" gradientUnits="userSpaceOnUse"><stop offset="0" stop-color="#fff"/><stop offset="1" stop-color="#0f54ef"/></linearGradient><linearGradient id="linear-gradient-2" x1="2.99" y1="212.69" x2="644.97" y2="212.69" xlink:href="#linear-gradient"/></defs><g id="Layer_2" data-name="Layer 2"><g id="Layer_1-2" data-name="Layer 1"><path class="cls-1" d="M74.19,344,233.64,107.82a17.57,17.57,0,0,1,7.08-6.16c4-1.88,8.6-2.11,11.41,1,13.56,15.21,50.09,44.78,51.25,42.06C304.63,141.86,379,35.38,406.06,7.34a14.22,14.22,0,0,1,20.82.39l285.6,319a14.22,14.22,0,0,1-10.6,23.7S68.39,350.74,74.19,344Z"/><path class="cls-2" d="M3,380,162.49,143.75a17.57,17.57,0,0,1,7.08-6.16c4-1.88,8.6-2.11,11.41,1,13.57,15.22,50.09,44.78,51.25,42.06,1.25-2.91,75.62-109.39,102.68-137.42a14.2,14.2,0,0,1,20.82.39l285.6,319a14.22,14.22,0,0,1-10.59,23.7S-2.76,386.67,3,380Z"/></g></g></svg>