<svg xmlns="http://www.w3.org/2000/svg" viewBox="0 0 391.75 588.34"><defs><style>.cls-1{fill:#0b3970;}.cls-2{fill:#0f54ef;}.cls-10,.cls-3{font-size:22.83px;}.cls-10,.cls-26,.cls-3,.cls-8{fill:#fff;font-family:Inter-SemiBold, Inter;font-weight:600;}.cls-3,.cls-7{letter-spacing:-0.03em;}.cls-4{letter-spacing:-0.05em;}.cls-5{letter-spacing:-0.05em;}.cls-6{letter-spacing:-0.02em;}.cls-26,.cls-8{font-size:44.77px;}.cls-8{letter-spacing:-0.03em;}.cls-9{fill:#34ade2;}.cls-10{letter-spacing:-0.09em;}.cls-11{letter-spacing:-0.04em;}.cls-12{letter-spacing:-0.04em;}.cls-13{letter-spacing:-0.03em;}.cls-14{letter-spacing:-0.03em;}.cls-15{fill:#ffdd67;}.cls-16{fill:#eba352;}.cls-17{fill:#3e4b54;}.cls-18{letter-spacing:-0.03em;}.cls-19{fill:#e5e5e5;}.cls-20{fill:#f5f5f5;}.cls-21{fill:#428bc1;}.cls-22{fill:#212528;}.cls-23{fill:#51575b;}.cls-24{fill:#919191;}.cls-25{fill:#cecece;}.cls-26{letter-spacing:-0.06em;}.cls-27{letter-spacing:-0.05em;}.cls-28{letter-spacing:-0.03em;}</style></defs><g id="Layer_2" data-name="Layer 2"><g id="Layer_1-2" data-name="Layer 1"><rect class="cls-1" x="55.96" y="344.82" width="192" height="243.52" rx="66.09"/><rect class="cls-2" x="163.42" y="124.4" width="228.33" height="256.97" rx="66.09"/><text class="cls-3" transform="translate(201.59 176.42)">P<tspan class="cls-4" x="14.03" y="0">r</tspan><tspan x="21.91" y="0">o</tspan><tspan class="cls-5" x="35.13" y="0">f</tspan><tspan x="42.6" y="0">essors </tspan><tspan class="cls-5" x="117.71" y="0">f</tspan><tspan x="125.19" y="0">or </tspan><tspan class="cls-6"><tspan x="17.97" y="27.4">t</tspan><tspan class="cls-7" x="26.24" y="27.4">his course</tspan></tspan></text><text class="cls-8" transform="translate(90.53 467.44)">11235</text><circle class="cls-9" cx="208.28" cy="250.89" r="27.76"/><rect class="cls-9" x="253.99" y="240.07" width="114.51" height="25.83"/><circle class="cls-9" cx="220.19" cy="321.9" r="23.91"/><rect class="cls-9" x="259.55" y="312.58" width="98.62" height="22.25"/><text class="cls-10" transform="translate(74.45 515.03)">T<tspan class="cls-11" x="13.11" y="0">r</tspan><tspan class="cls-7" x="21.27" y="0">ails studen</tspan><tspan class="cls-12" x="134.15" y="0">t</tspan><tspan class="cls-7" x="141.98" y="0">s</tspan><tspan class="cls-7"><tspan x="33" y="27.4">assis</tspan><tspan class="cls-13" x="86.37" y="27.4">t</tspan><tspan class="cls-14" x="94.25" y="27.4">ed</tspan></tspan></text><path class="cls-15" d="M123.3,401.83c-.75-5.48,2.65-14.32,4.24-26.2.28-2.13,11.32-4.37,16.45-4.37,1.34,0,2.44,6,2.11,8.13-.24,1.52-2.39,1.12-2.39,1.12a2.18,2.18,0,0,1-2.87,1.24c-.63,1.73-2.59.92-2.59.92a2,2,0,0,1-2.6.82c-1.61,7,1.38,6.38,3.57,17,0,0,.61-.11,2.33-3.57,6.94-14,31.32-9.52,29.87,5.46-.32,3.35,3.19,8.79-9.91,12.89-10.4,3.25-23.19-3-23.19-3-4.36,1.34-12.82,1.25-13.07-2C125,406.55,123.68,404.65,123.3,401.83Z"/><path class="cls-16" d="M171.42,402.36a11,11,0,0,0-2.63-8.6,11.32,11.32,0,0,1,1.47,7c-.32,3.35,3.19,8.8-9.92,12.89-10.4,3.25-23.19-3-23.19-3-3.4,1.05-9.37,1.23-11.89-.28.33,3.13,8.74,3.19,13.06,1.87,0,0,12.79,6.23,23.19,3C174.61,411.15,171.1,405.71,171.42,402.36Z"/><path class="cls-16" d="M134.7,383.4c-2,8.24,1.26,7.89,3.46,18.34l1.16-1.2c-1.61-10.46-4.39-9.2-3.71-17A2.71,2.71,0,0,1,134.7,383.4Z"/><path class="cls-16" d="M145.17,406.89c6.71,2.51,16.8-.05,22.55-2.7C165.14,410.2,151.82,413.41,145.17,406.89Z"/><path class="cls-16" d="M141.83,373.54a1.54,1.54,0,0,0-2.09-.54C139.82,372.06,142.2,371.33,141.83,373.54Z"/><path class="cls-16" d="M146.74,377a10.22,10.22,0,0,0-1.9-5,13.17,13.17,0,0,1,.87,4.73c0,.72.17,3.3-1.11,3-.79-.21-.81-.88-1-1.58a10.1,10.1,0,0,1-.89-3.5,10.47,10.47,0,0,0,.19,3.65c.08.66.57,2.47-.31,2.72a2.06,2.06,0,0,1-1.46-.42c-.15-.09-.26-.74-.32-.93a10.75,10.75,0,0,1-.89-3.61,10,10,0,0,0,.09,3.45c.06.68.42,2.15-.4,2.5s-1.08-.65-1.25-1.23a12.08,12.08,0,0,1-.83-3.36c-.32,1.37.06,3,.12,4.37,0,.69-1.53,1.32-2.12.88-.92-.68-1.07-2.28-1.17-3.32.27.35.67.8,1.16.75a8.15,8.15,0,0,1-.89-1.77c-.26-.44-.79-1.52-1.41-1.53a6.48,6.48,0,0,1,.54,1.65c-.25.44-.5.88-.78,1.3s-.94,1.48-1.5,1.14-.8-1.38-1-2c0,.78,0,2,.81,2.51s1.59-.26,2.08-.77c.17,1.65.86,3.8,2.92,3.66a3.65,3.65,0,0,0,1.25-.35c.33-.15.69-.53,1-.43a2.29,2.29,0,0,0,2.41-.59c.29-.31.21-.51.64-.41a2.73,2.73,0,0,0,1.39,0,1.93,1.93,0,0,0,1-.62,1.74,1.74,0,0,0,.34-.55c.14-.32.3-.15.62-.16,2.1-.08,2-2.67,1.83-4.17C146.53,375.23,146.8,377.48,146.74,377Z"/><path class="cls-16" d="M144.78,372.43a1.54,1.54,0,0,0-2.1-.53C142.77,371,145.15,370.23,144.78,372.43Z"/><path class="cls-16" d="M139.48,374.76a1.55,1.55,0,0,0-2.1-.54C137.46,373.28,139.85,372.55,139.48,374.76Z"/><path class="cls-16" d="M136.76,376a1.54,1.54,0,0,0-2.1-.53C134.74,374.55,137.12,373.83,136.76,376Z"/><rect class="cls-17" width="199.27" height="199.45" rx="66.09"/><text class="cls-3" transform="translate(30.51 156.86)">hours dona<tspan class="cls-18" x="117.72" y="0">t</tspan><tspan x="125.6" y="0">ed</tspan></text><path class="cls-19" d="M103.17,45.29c-1.61-.51-2.59-.7-2.59-1.55s1-1,2.59-1.54c8.7-2.46,11.17-8.75,11.17-19.35H82.26c0,10.6,2.46,16.88,11.16,19.34C95,42.7,96,42.9,96,43.74s-1,1-2.58,1.55C84.72,47.75,82.26,54,82.26,64.63h32.08C114.34,54,111.87,47.75,103.17,45.29Z"/><path class="cls-20" d="M101.79,45.29c-1.15-.51-1.85-.7-1.85-1.55s.7-1,1.85-1.54c6.25-2.47,6.89-8.75,6.89-19.35H87.91c0,10.6.65,16.88,6.89,19.34,1.16.51,1.86.71,1.86,1.55s-.7,1-1.86,1.55c-6.24,2.46-6.89,8.74-6.89,19.34h20.77C108.68,54,108,47.75,101.79,45.29Z"/><path class="cls-21" d="M99.24,64.63s-.55-17.81-.55-20.89c0-.83,1.57-2,2.3-2.42,3.06-1.76,7-5.26,7-8.89H88.61c0,3.63,3.94,7.13,7,8.89.72.42,2.3,1.59,2.3,2.42,0,3.16-.56,20.89-.56,20.89Z"/><path class="cls-22" d="M122.17,73.63a1.89,1.89,0,0,1-1.84,2H76.26a1.9,1.9,0,0,1-1.84-2V70.56a1.91,1.91,0,0,1,1.84-2h44.07a1.9,1.9,0,0,1,1.84,2v3.07Z"/><path class="cls-22" d="M116.2,22.06a.83.83,0,0,1-.87.79H81.27a.83.83,0,0,1-.88-.79V19.67a.84.84,0,0,1,.88-.8h34.06a.84.84,0,0,1,.87.8Z"/><path class="cls-23" d="M111.23,22.06a.74.74,0,0,1-.68.79H86a.74.74,0,0,1-.68-.79V19.67a.75.75,0,0,1,.68-.8h24.51a.75.75,0,0,1,.68.8v2.39Z"/><path class="cls-22" d="M116.2,67.82a.83.83,0,0,1-.87.79H81.27a.83.83,0,0,1-.88-.79V65.43a.84.84,0,0,1,.88-.8h34.06a.84.84,0,0,1,.87.8Z"/><path class="cls-22" d="M122.17,16.93a1.89,1.89,0,0,1-1.84,1.94H76.26a1.9,1.9,0,0,1-1.84-1.94V13.85a1.9,1.9,0,0,1,1.84-1.94h44.07a1.89,1.89,0,0,1,1.84,1.94v3.08Z"/><path class="cls-23" d="M116.2,16.93c0,1.07-.64,1.94-1.44,1.94H81.84c-.8,0-1.45-.87-1.45-1.94V13.85c0-1.07.65-1.94,1.45-1.94h32.92c.8,0,1.44.87,1.44,1.94Z"/><path class="cls-23" d="M116.2,73.63c0,1.08-.64,2-1.44,2H81.84c-.8,0-1.45-.87-1.45-2V70.56c0-1.07.65-2,1.45-2h32.92c.8,0,1.44.88,1.44,2Z"/><rect class="cls-24" x="78.4" y="18.87" width="0.99" height="49.74"/><rect class="cls-25" x="77.41" y="18.87" width="0.99" height="49.74"/><rect class="cls-24" x="118.19" y="18.87" width="0.99" height="49.74"/><rect class="cls-25" x="117.2" y="18.87" width="0.99" height="49.74"/><path class="cls-23" d="M111.23,67.82a.74.74,0,0,1-.68.79H86a.74.74,0,0,1-.68-.79V65.43a.75.75,0,0,1,.68-.8h24.51a.75.75,0,0,1,.68.8v2.39Z"/><text class="cls-26" transform="translate(71.34 122)">9<tspan class="cls-27" x="26.45" y="0">.</tspan><tspan class="cls-28" x="37.13" y="0">7</tspan></text></g></g></svg>