<svg xmlns="http://www.w3.org/2000/svg" viewBox="0 0 88.78 107.47"><defs><style>.cls-1{fill:#ffce31;}.cls-2{fill:#ed4c5c;}.cls-3{fill:#93a2aa;}.cls-4{fill:#c7d3d8;}.cls-5{fill:#fed0ac;}.cls-6{fill:#333;}.cls-7{fill:#ffdf85;}.cls-8{fill:#ff8736;}.cls-9{fill:#0f54ef;}.cls-10{fill:#fff;}</style></defs><g id="Layer_2" data-name="Layer 2"><g id="Layer_1-2" data-name="Layer 1"><polygon class="cls-1" points="21.82 36.77 49.39 8.25 62.31 21.62 34.74 50.14 21.82 36.77"/><path class="cls-2" d="M68,5.83l-1.64-1.7A7.79,7.79,0,0,0,55,4.13L49.39,10,62.31,23.33,68,17.5A8.46,8.46,0,0,0,68,5.83Z" transform="translate(0 -1.72)"/><polygon class="cls-3" points="45.87 11.89 49.39 8.25 62.31 21.61 58.79 25.26 45.87 11.89"/><polygon class="cls-4" points="47.25 13.32 50.77 9.68 60.93 20.18 57.4 23.83 47.25 13.32"/><polygon class="cls-5" points="21.82 36.77 16.22 51.93 20.07 55.94 34.74 50.14 21.82 36.77"/><path class="cls-6" d="M15.23,56.29c-.77,2.11.26,3.17,2.3,2.37l7.11-2.81L18,48.94Z" transform="translate(0 -1.72)"/><polygon class="cls-7" points="45.87 11.9 50.17 16.35 26.13 41.23 21.82 36.77 45.87 11.9"/><polygon class="cls-8" points="54.48 20.81 58.79 25.26 34.74 50.14 30.43 45.68 54.48 20.81"/><rect class="cls-9" y="95.74" width="88.78" height="11.73"/><path class="cls-10" d="M7.26,85.66V82.88H21.84v2.78H16.2v15.5H12.91V85.66Z" transform="translate(0 -1.72)"/><path class="cls-10" d="M27.84,101.43a7,7,0,0,1-3.55-.86A5.79,5.79,0,0,1,22,98.12a8.08,8.08,0,0,1-.8-3.73,8.28,8.28,0,0,1,.8-3.72,6.11,6.11,0,0,1,2.27-2.5,6.35,6.35,0,0,1,3.41-.89,7,7,0,0,1,2.4.4,5.58,5.58,0,0,1,2,1.25,5.93,5.93,0,0,1,1.37,2.16,8.78,8.78,0,0,1,.5,3.11v1H22.7V93h8.14a3.41,3.41,0,0,0-.4-1.65,2.94,2.94,0,0,0-1.09-1.15,3.12,3.12,0,0,0-1.63-.42,3.16,3.16,0,0,0-1.74.48,3.34,3.34,0,0,0-1.17,1.25,3.71,3.71,0,0,0-.42,1.69v1.9a4.46,4.46,0,0,0,.44,2,3.07,3.07,0,0,0,1.22,1.3,3.64,3.64,0,0,0,1.84.45,3.89,3.89,0,0,0,1.27-.2,2.71,2.71,0,0,0,1-.59,2.63,2.63,0,0,0,.63-1l3,.34a4.76,4.76,0,0,1-1.08,2.09,5.21,5.21,0,0,1-2,1.37A7.82,7.82,0,0,1,27.84,101.43Z" transform="translate(0 -1.72)"/><path class="cls-10" d="M39.88,101.44a5.68,5.68,0,0,1-2.34-.47,3.78,3.78,0,0,1-1.64-1.39,4.06,4.06,0,0,1-.6-2.27,3.84,3.84,0,0,1,.43-1.92,3.28,3.28,0,0,1,1.16-1.21,6.31,6.31,0,0,1,1.68-.69,13.17,13.17,0,0,1,1.93-.34c.8-.09,1.45-.16,2-.23a3,3,0,0,0,1.1-.32.76.76,0,0,0,.34-.68v-.06a2,2,0,0,0-.6-1.56,2.44,2.44,0,0,0-1.72-.55,3.11,3.11,0,0,0-1.88.51,2.6,2.6,0,0,0-.93,1.23l-3-.43A4.84,4.84,0,0,1,36.92,89a5.12,5.12,0,0,1,2-1.27,7.78,7.78,0,0,1,2.62-.42,8.22,8.22,0,0,1,2,.23,5.55,5.55,0,0,1,1.8.76,3.89,3.89,0,0,1,1.31,1.44A4.75,4.75,0,0,1,47.12,92v9.17H44V99.28h-.11a4,4,0,0,1-2.16,1.86A5.28,5.28,0,0,1,39.88,101.44Zm.84-2.38a3.49,3.49,0,0,0,1.69-.39,2.74,2.74,0,0,0,1.1-1,2.64,2.64,0,0,0,.39-1.4V94.63a1.54,1.54,0,0,1-.51.23c-.24.07-.51.13-.81.19l-.88.14-.76.11a5.38,5.38,0,0,0-1.3.32,2.13,2.13,0,0,0-.9.62,1.53,1.53,0,0,0-.33,1,1.56,1.56,0,0,0,.65,1.35A2.87,2.87,0,0,0,40.72,99.06Z" transform="translate(0 -1.72)"/><path class="cls-10" d="M55.63,101.43a6.6,6.6,0,0,1-3.52-.9A6.08,6.08,0,0,1,49.85,98a8.09,8.09,0,0,1-.79-3.67,8.21,8.21,0,0,1,.8-3.69,6.11,6.11,0,0,1,2.27-2.5,6.53,6.53,0,0,1,3.48-.89,6.81,6.81,0,0,1,3,.61A5,5,0,0,1,61.5,92.2H58.41a3,3,0,0,0-.89-1.66,2.6,2.6,0,0,0-1.87-.66,3,3,0,0,0-1.74.53,3.48,3.48,0,0,0-1.16,1.52,6.07,6.07,0,0,0-.42,2.38,6.41,6.41,0,0,0,.41,2.4,3.48,3.48,0,0,0,1.16,1.54,3.13,3.13,0,0,0,3,.27,2.42,2.42,0,0,0,1-.79,2.88,2.88,0,0,0,.53-1.26H61.5a5.35,5.35,0,0,1-.86,2.58,5,5,0,0,1-2,1.75A6.73,6.73,0,0,1,55.63,101.43Z" transform="translate(0 -1.72)"/><path class="cls-10" d="M66.66,93.13v8H63.43V82.88h3.16v6.9h.16A4,4,0,0,1,68.24,88a4.59,4.59,0,0,1,2.59-.67,5,5,0,0,1,2.49.59A4.09,4.09,0,0,1,75,89.62a6.17,6.17,0,0,1,.59,2.81v8.73H72.32V92.93a3.06,3.06,0,0,0-.71-2.15,2.56,2.56,0,0,0-2-.77,3.09,3.09,0,0,0-1.53.37,2.55,2.55,0,0,0-1,1.06A3.54,3.54,0,0,0,66.66,93.13Z" transform="translate(0 -1.72)"/></g></g></svg>