<svg xmlns="http://www.w3.org/2000/svg" viewBox="0 0 88.78 107.47"><defs><style>.cls-1{fill:#ffce31;}.cls-2{fill:#ed4c5c;}.cls-3{fill:#93a2aa;}.cls-4{fill:#c7d3d8;}.cls-5{fill:#fed0ac;}.cls-6{fill:#333;}.cls-7{fill:#ffdf85;}.cls-8{fill:#ff8736;}.cls-9{fill:#0f54ef;}.cls-10{font-size:25.13px;fill:#fff;font-family:Inter-SemiBold, Inter;font-weight:600;letter-spacing:-0.11em;}.cls-11{letter-spacing:-0.03em;}</style></defs><g id="Layer_2" data-name="Layer 2"><g id="Layer_1-2" data-name="Layer 1"><polygon class="cls-1" points="21.82 36.77 49.39 8.25 62.31 21.62 34.74 50.14 21.82 36.77"/><path class="cls-2" d="M68,5.83l-1.64-1.7A7.79,7.79,0,0,0,55,4.13L49.39,10,62.31,23.33,68,17.5A8.46,8.46,0,0,0,68,5.83Z" transform="translate(0 -1.72)"/><polygon class="cls-3" points="45.87 11.89 49.39 8.25 62.31 21.61 58.79 25.26 45.87 11.89"/><polygon class="cls-4" points="47.25 13.32 50.77 9.68 60.93 20.18 57.4 23.83 47.25 13.32"/><polygon class="cls-5" points="21.82 36.77 16.22 51.93 20.07 55.94 34.74 50.14 21.82 36.77"/><path class="cls-6" d="M15.23,56.29c-.77,2.11.26,3.17,2.3,2.37l7.11-2.81L18,48.94Z" transform="translate(0 -1.72)"/><polygon class="cls-7" points="45.87 11.9 50.17 16.35 26.13 41.23 21.82 36.77 45.87 11.9"/><polygon class="cls-8" points="54.48 20.81 58.79 25.26 34.74 50.14 30.43 45.68 54.48 20.81"/><rect class="cls-9" y="95.74" width="88.78" height="11.73"/><text class="cls-10" transform="translate(6.27 99.44)">T<tspan class="cls-11" x="13.85" y="0">each</tspan></text></g></g></svg>