<svg xmlns="http://www.w3.org/2000/svg" viewBox="0 0 391.75 588.34"><defs><style>.cls-1{fill:#0b3970;}.cls-2{fill:#0f54ef;}.cls-3{fill:#fff;}.cls-4{fill:#34ade2;}.cls-5{fill:#ffdd67;}.cls-6{fill:#eba352;}.cls-7{fill:#3e4b54;}.cls-8{fill:#e5e5e5;}.cls-9{fill:#f5f5f5;}.cls-10{fill:#428bc1;}.cls-11{fill:#212528;}.cls-12{fill:#51575b;}.cls-13{fill:#919191;}.cls-14{fill:#cecece;}</style></defs><g id="Layer_2" data-name="Layer 2"><g id="Layer_1-2" data-name="Layer 1"><rect class="cls-1" x="55.96" y="344.82" width="192" height="243.52" rx="66.09"/><rect class="cls-2" x="163.42" y="124.4" width="228.33" height="256.97" rx="66.09"/><path class="cls-3" d="M203.23,176.42V159.81h6.22a6.58,6.58,0,0,1,3.22.72,4.77,4.77,0,0,1,2,2,5.82,5.82,0,0,1,.67,2.82,6,6,0,0,1-.67,2.84,4.74,4.74,0,0,1-2,1.95,6.78,6.78,0,0,1-3.24.71h-4.12v-2.47H209a3.79,3.79,0,0,0,1.83-.39,2.49,2.49,0,0,0,1.06-1.07,3.45,3.45,0,0,0,.34-1.57,3.31,3.31,0,0,0-.34-1.55,2.39,2.39,0,0,0-1.06-1,3.88,3.88,0,0,0-1.85-.38h-2.75v14.09Z"/><path class="cls-3" d="M217.13,176.42V164H220V166h.13a3.09,3.09,0,0,1,1.18-1.66,3.13,3.13,0,0,1,1.9-.59,5.25,5.25,0,0,1,.54,0,3,3,0,0,1,.51.06v2.7a3.91,3.91,0,0,0-.59-.12,6.78,6.78,0,0,0-.77,0,3,3,0,0,0-1.44.34,2.5,2.5,0,0,0-1,1,2.68,2.68,0,0,0-.37,1.4v7.32Z"/><path class="cls-3" d="M230.44,176.66a6,6,0,0,1-3.17-.8,5.37,5.37,0,0,1-2.07-2.25,7.31,7.31,0,0,1-.73-3.37,7.41,7.41,0,0,1,.73-3.38,5.37,5.37,0,0,1,2.07-2.25,6.59,6.59,0,0,1,6.33,0,5.37,5.37,0,0,1,2.07,2.25,7.41,7.41,0,0,1,.73,3.38,7.31,7.31,0,0,1-.73,3.37,5.37,5.37,0,0,1-2.07,2.25A6,6,0,0,1,230.44,176.66Zm0-2.35a2.52,2.52,0,0,0,1.66-.55,3.25,3.25,0,0,0,1-1.47,6.06,6.06,0,0,0,.33-2.06,6.16,6.16,0,0,0-.33-2.07,3.34,3.34,0,0,0-1-1.48,2.52,2.52,0,0,0-1.66-.55,2.55,2.55,0,0,0-1.68.55,3.28,3.28,0,0,0-1,1.48,6.16,6.16,0,0,0-.32,2.07,6.06,6.06,0,0,0,.32,2.06,3.19,3.19,0,0,0,1,1.47A2.55,2.55,0,0,0,230.45,174.31Z"/><path class="cls-3" d="M244.53,164v2.27h-7.36V164ZM239,176.42V162.79a3.86,3.86,0,0,1,.52-2.09,3.22,3.22,0,0,1,1.41-1.25,4.5,4.5,0,0,1,2-.41,7,7,0,0,1,1.36.12,6.65,6.65,0,0,1,.87.22l-.58,2.27-.47-.12a3.1,3.1,0,0,0-.64-.06,1.45,1.45,0,0,0-1.15.39A1.7,1.7,0,0,0,242,163v13.44Z"/><path class="cls-3" d="M251.21,176.66a6.41,6.41,0,0,1-3.23-.78,5.19,5.19,0,0,1-2.08-2.22,8.21,8.21,0,0,1,0-6.77,5.46,5.46,0,0,1,2.06-2.27,5.8,5.8,0,0,1,3.1-.82,6.56,6.56,0,0,1,2.18.37,5.05,5.05,0,0,1,1.81,1.14,5.37,5.37,0,0,1,1.25,2,8,8,0,0,1,.45,2.83v.9H246.54v-2h7.4a3.36,3.36,0,0,0-.36-1.51,2.7,2.7,0,0,0-1-1,3.1,3.1,0,0,0-3.06.05,3.05,3.05,0,0,0-1.06,1.14,3.22,3.22,0,0,0-.38,1.54v1.72a4.06,4.06,0,0,0,.39,1.86,2.91,2.91,0,0,0,1.11,1.19,3.37,3.37,0,0,0,1.68.41,3.23,3.23,0,0,0,1.15-.19,2.66,2.66,0,0,0,.91-.53,2.35,2.35,0,0,0,.57-.89l2.74.31a4.29,4.29,0,0,1-1,1.89,4.81,4.81,0,0,1-1.86,1.25A6.91,6.91,0,0,1,251.21,176.66Z"/><path class="cls-3" d="M268.42,167.26l-2.68.29a2.39,2.39,0,0,0-.39-.76,2.1,2.1,0,0,0-.75-.58,3.14,3.14,0,0,0-2.69.18,1.17,1.17,0,0,0-.61,1,1.05,1.05,0,0,0,.4.88,3.18,3.18,0,0,0,1.36.56l2.12.46a5.25,5.25,0,0,1,2.63,1.21,2.84,2.84,0,0,1,.87,2.16,3.36,3.36,0,0,1-.68,2.07,4.38,4.38,0,0,1-1.88,1.4,7,7,0,0,1-2.76.5,6.38,6.38,0,0,1-3.68-1A3.83,3.83,0,0,1,258,173l2.86-.27a2,2,0,0,0,.83,1.27,2.85,2.85,0,0,0,1.65.43A3,3,0,0,0,265,174a1.27,1.27,0,0,0,.64-1.06,1.14,1.14,0,0,0-.41-.89,3,3,0,0,0-1.27-.53l-2.13-.45a5.06,5.06,0,0,1-2.65-1.26,3.06,3.06,0,0,1-.85-2.25,3.14,3.14,0,0,1,.63-2,4.08,4.08,0,0,1,1.77-1.31,7,7,0,0,1,2.64-.47,5.67,5.67,0,0,1,3.45.94A3.92,3.92,0,0,1,268.42,167.26Z"/><path class="cls-3" d="M280.29,167.26l-2.68.29a2,2,0,0,0-.39-.76,2.1,2.1,0,0,0-.75-.58,2.81,2.81,0,0,0-1.15-.22,2.87,2.87,0,0,0-1.54.4,1.17,1.17,0,0,0-.61,1,1.05,1.05,0,0,0,.4.88,3.24,3.24,0,0,0,1.36.56l2.12.46a5.33,5.33,0,0,1,2.64,1.21,2.91,2.91,0,0,1,.87,2.16,3.43,3.43,0,0,1-.69,2.07,4.38,4.38,0,0,1-1.88,1.4,7,7,0,0,1-2.75.5,6.36,6.36,0,0,1-3.68-1,3.84,3.84,0,0,1-1.67-2.68l2.87-.27a2,2,0,0,0,.82,1.27,2.85,2.85,0,0,0,1.65.43,2.91,2.91,0,0,0,1.68-.43,1.25,1.25,0,0,0,.64-1.06,1.14,1.14,0,0,0-.41-.89,2.9,2.9,0,0,0-1.27-.53l-2.12-.45a5.1,5.1,0,0,1-2.66-1.26,3.1,3.1,0,0,1-.85-2.25,3.27,3.27,0,0,1,.63-2,4.17,4.17,0,0,1,1.78-1.31,6.9,6.9,0,0,1,2.63-.47,5.63,5.63,0,0,1,3.45.94A3.92,3.92,0,0,1,280.29,167.26Z"/><path class="cls-3" d="M287.75,176.66a6,6,0,0,1-3.16-.8,5.37,5.37,0,0,1-2.07-2.25,7.31,7.31,0,0,1-.74-3.37,7.41,7.41,0,0,1,.74-3.38,5.37,5.37,0,0,1,2.07-2.25,6.57,6.57,0,0,1,6.32,0,5.33,5.33,0,0,1,2.08,2.25,7.54,7.54,0,0,1,.73,3.38,7.44,7.44,0,0,1-.73,3.37,5.33,5.33,0,0,1-2.08,2.25A6,6,0,0,1,287.75,176.66Zm0-2.35a2.47,2.47,0,0,0,1.65-.55,3.1,3.1,0,0,0,1-1.47,6.06,6.06,0,0,0,.33-2.06,6.16,6.16,0,0,0-.33-2.07,3.18,3.18,0,0,0-1-1.48,2.47,2.47,0,0,0-1.65-.55,2.56,2.56,0,0,0-1.69.55,3.34,3.34,0,0,0-1,1.48,6.16,6.16,0,0,0-.33,2.07,6.06,6.06,0,0,0,.33,2.06,3.25,3.25,0,0,0,1,1.47A2.56,2.56,0,0,0,287.77,174.31Z"/><path class="cls-3" d="M295.54,176.42V164h2.84V166h.13a3.13,3.13,0,0,1,1.17-1.66,3.18,3.18,0,0,1,1.91-.59,5.25,5.25,0,0,1,.54,0,3.11,3.11,0,0,1,.51.06v2.7a3.91,3.91,0,0,0-.59-.12,6.78,6.78,0,0,0-.77,0,3,3,0,0,0-1.44.34,2.5,2.5,0,0,0-1,1,2.59,2.59,0,0,0-.37,1.4v7.32Z"/><path class="cls-3" d="M313.78,167.26l-2.68.29a2.39,2.39,0,0,0-.39-.76,2.1,2.1,0,0,0-.75-.58,2.86,2.86,0,0,0-1.16-.22,2.81,2.81,0,0,0-1.53.4,1.17,1.17,0,0,0-.61,1,1.05,1.05,0,0,0,.4.88,3.18,3.18,0,0,0,1.36.56l2.12.46a5.25,5.25,0,0,1,2.63,1.21,2.84,2.84,0,0,1,.87,2.16,3.36,3.36,0,0,1-.68,2.07,4.38,4.38,0,0,1-1.88,1.4,7,7,0,0,1-2.76.5,6.38,6.38,0,0,1-3.68-1,3.83,3.83,0,0,1-1.66-2.68l2.86-.27a2,2,0,0,0,.83,1.27,2.85,2.85,0,0,0,1.65.43,3,3,0,0,0,1.68-.43A1.27,1.27,0,0,0,311,173a1.12,1.12,0,0,0-.42-.89,2.86,2.86,0,0,0-1.26-.53l-2.13-.45a5.06,5.06,0,0,1-2.65-1.26,3.06,3.06,0,0,1-.85-2.25,3.14,3.14,0,0,1,.63-2,4.08,4.08,0,0,1,1.77-1.31,6.93,6.93,0,0,1,2.63-.47,5.63,5.63,0,0,1,3.45.94A3.93,3.93,0,0,1,313.78,167.26Z"/><path class="cls-3" d="M327.12,164v2.27h-7.36V164Zm-5.52,12.45V162.79a3.86,3.86,0,0,1,.52-2.09,3.22,3.22,0,0,1,1.41-1.25,4.5,4.5,0,0,1,2-.41,6.77,6.77,0,0,1,1.35.12,6.47,6.47,0,0,1,.88.22l-.58,2.27-.48-.12a3,3,0,0,0-.63-.06,1.45,1.45,0,0,0-1.15.39,1.65,1.65,0,0,0-.34,1.12v13.44Z"/><path class="cls-3" d="M333.72,176.66a6,6,0,0,1-3.16-.8,5.37,5.37,0,0,1-2.07-2.25,7.31,7.31,0,0,1-.74-3.37,7.41,7.41,0,0,1,.74-3.38,5.37,5.37,0,0,1,2.07-2.25,6.57,6.57,0,0,1,6.32,0,5.33,5.33,0,0,1,2.08,2.25,7.41,7.41,0,0,1,.73,3.38,7.31,7.31,0,0,1-.73,3.37,5.33,5.33,0,0,1-2.08,2.25A6,6,0,0,1,333.72,176.66Zm0-2.35a2.47,2.47,0,0,0,1.65-.55,3.19,3.19,0,0,0,1-1.47,6.32,6.32,0,0,0,.32-2.06,6.42,6.42,0,0,0-.32-2.07,3.28,3.28,0,0,0-1-1.48,2.47,2.47,0,0,0-1.65-.55,2.52,2.52,0,0,0-1.68.55,3.28,3.28,0,0,0-1,1.48,6.16,6.16,0,0,0-.33,2.07,6.06,6.06,0,0,0,.33,2.06,3.19,3.19,0,0,0,1,1.47A2.52,2.52,0,0,0,333.74,174.31Z"/><path class="cls-3" d="M341.51,176.42V164h2.84V166h.13a3.09,3.09,0,0,1,1.18-1.66,3.13,3.13,0,0,1,1.9-.59,5.25,5.25,0,0,1,.54,0,3,3,0,0,1,.51.06v2.7a3.91,3.91,0,0,0-.59-.12,6.78,6.78,0,0,0-.77,0,3,3,0,0,0-1.44.34,2.5,2.5,0,0,0-1,1,2.68,2.68,0,0,0-.37,1.4v7.32Z"/><path class="cls-3" d="M227.28,191.37v2.27h-7.16v-2.27Zm-5.39-3h2.94v11.69a1.85,1.85,0,0,0,.18.91.89.89,0,0,0,.48.42,1.78,1.78,0,0,0,.67.12,3.75,3.75,0,0,0,.5,0l.36-.08.49,2.3-.67.18a6,6,0,0,1-1.06.11,4.69,4.69,0,0,1-2-.34,3,3,0,0,1-1.4-1.14,3.41,3.41,0,0,1-.51-1.95Z"/><path class="cls-3" d="M232.27,196.52v7.3h-2.93V187.21h2.87v6.27h.14a3.67,3.67,0,0,1,1.36-1.67,4.23,4.23,0,0,1,2.35-.61,4.45,4.45,0,0,1,2.26.55,3.73,3.73,0,0,1,1.5,1.59,5.6,5.6,0,0,1,.53,2.55v7.93h-2.94v-7.48a2.76,2.76,0,0,0-.64-2,2.33,2.33,0,0,0-1.81-.71,2.89,2.89,0,0,0-1.39.34,2.4,2.4,0,0,0-.95,1A3.15,3.15,0,0,0,232.27,196.52Z"/><path class="cls-3" d="M244.14,189.6a1.69,1.69,0,0,1-1.2-.47,1.48,1.48,0,0,1-.5-1.12,1.46,1.46,0,0,1,.51-1.13,1.75,1.75,0,0,1,2.39,0,1.52,1.52,0,0,1,0,2.25A1.69,1.69,0,0,1,244.14,189.6Zm-1.47,14.22V191.37h2.93v12.45Z"/><path class="cls-3" d="M257.8,194.66l-2.67.29a2.23,2.23,0,0,0-.4-.76,1.94,1.94,0,0,0-.75-.58,3.14,3.14,0,0,0-2.69.18,1.18,1.18,0,0,0-.61,1,1.08,1.08,0,0,0,.4.88,3.3,3.3,0,0,0,1.36.56l2.13.46a5.33,5.33,0,0,1,2.63,1.21,2.91,2.91,0,0,1,.87,2.16,3.37,3.37,0,0,1-.69,2.07,4.42,4.42,0,0,1-1.87,1.4,7.19,7.19,0,0,1-2.76.5,6.38,6.38,0,0,1-3.68-1,3.79,3.79,0,0,1-1.66-2.68l2.86-.27a2,2,0,0,0,.83,1.27,2.84,2.84,0,0,0,1.64.43,2.91,2.91,0,0,0,1.68-.43,1.25,1.25,0,0,0,.64-1.06,1.14,1.14,0,0,0-.41-.89,2.85,2.85,0,0,0-1.27-.53l-2.12-.45a5,5,0,0,1-2.65-1.26,3,3,0,0,1-.85-2.25,3.2,3.2,0,0,1,.62-2,4.17,4.17,0,0,1,1.78-1.31,6.93,6.93,0,0,1,2.63-.47,5.63,5.63,0,0,1,3.45.94A3.92,3.92,0,0,1,257.8,194.66Z"/><path class="cls-3" d="M270.27,204.06a6,6,0,0,1-3.2-.82A5.41,5.41,0,0,1,265,201a7.43,7.43,0,0,1-.72-3.34,7.34,7.34,0,0,1,.73-3.35A5.48,5.48,0,0,1,267.1,192a5.84,5.84,0,0,1,3.15-.82,6.22,6.22,0,0,1,2.69.56,4.62,4.62,0,0,1,1.87,1.56,4.69,4.69,0,0,1,.8,2.36H272.8a2.64,2.64,0,0,0-.81-1.5,2.33,2.33,0,0,0-1.7-.61,2.68,2.68,0,0,0-1.58.48,3.14,3.14,0,0,0-1,1.39,5.37,5.37,0,0,0-.38,2.15,5.77,5.77,0,0,0,.37,2.19,3.17,3.17,0,0,0,1.05,1.4,2.84,2.84,0,0,0,2.76.24,2.27,2.27,0,0,0,.86-.71,2.92,2.92,0,0,0,.48-1.15h2.81a4.86,4.86,0,0,1-.78,2.34,4.53,4.53,0,0,1-1.84,1.59A6.09,6.09,0,0,1,270.27,204.06Z"/><path class="cls-3" d="M282.79,204.06a6,6,0,0,1-3.16-.8,5.43,5.43,0,0,1-2.07-2.25,8.07,8.07,0,0,1,0-6.75,5.37,5.37,0,0,1,2.07-2.25,6.57,6.57,0,0,1,6.32,0,5.33,5.33,0,0,1,2.08,2.25,8.17,8.17,0,0,1,0,6.75,5.39,5.39,0,0,1-2.08,2.25A6,6,0,0,1,282.79,204.06Zm0-2.35a2.47,2.47,0,0,0,1.65-.55,3.1,3.1,0,0,0,1-1.47,6.06,6.06,0,0,0,.33-2.06,6.16,6.16,0,0,0-.33-2.07,3.18,3.18,0,0,0-1-1.48,2.47,2.47,0,0,0-1.65-.55,2.56,2.56,0,0,0-1.69.55,3.34,3.34,0,0,0-1,1.48,6.16,6.16,0,0,0-.33,2.07,6.06,6.06,0,0,0,.33,2.06,3.25,3.25,0,0,0,1,1.47A2.56,2.56,0,0,0,282.81,201.71Z"/><path class="cls-3" d="M298.52,198.58v-7.21h2.93v12.45H298.6v-2.21h-.13a3.82,3.82,0,0,1-1.38,1.71,4.07,4.07,0,0,1-2.36.66,4.13,4.13,0,0,1-2.16-.55,3.72,3.72,0,0,1-1.47-1.59,5.64,5.64,0,0,1-.52-2.54v-7.93h2.93v7.47a2.65,2.65,0,0,0,.65,1.88,2.2,2.2,0,0,0,1.7.7,2.68,2.68,0,0,0,1.26-.32,2.5,2.5,0,0,0,1-.94A3,3,0,0,0,298.52,198.58Z"/><path class="cls-3" d="M303.8,203.82V191.37h2.85v2.07h.13a3.19,3.19,0,0,1,1.17-1.67,3.23,3.23,0,0,1,1.9-.58,5.34,5.34,0,0,1,.55,0,3.25,3.25,0,0,1,.51.06V194a4.21,4.21,0,0,0-.59-.12,7.09,7.09,0,0,0-.77,0,3,3,0,0,0-1.44.34,2.54,2.54,0,0,0-1,1,2.65,2.65,0,0,0-.37,1.41v7.32Z"/><path class="cls-3" d="M322,194.66l-2.67.29a2.23,2.23,0,0,0-.4-.76,1.94,1.94,0,0,0-.75-.58,2.77,2.77,0,0,0-1.15-.22,2.72,2.72,0,0,0-1.53.4,1.17,1.17,0,0,0-.62,1,1.06,1.06,0,0,0,.41.88,3.19,3.19,0,0,0,1.35.56l2.13.46a5.29,5.29,0,0,1,2.63,1.21,2.88,2.88,0,0,1,.87,2.16,3.36,3.36,0,0,1-.68,2.07,4.52,4.52,0,0,1-1.88,1.4,7.19,7.19,0,0,1-2.76.5,6.38,6.38,0,0,1-3.68-1,3.83,3.83,0,0,1-1.66-2.68l2.86-.27a2,2,0,0,0,.83,1.27,2.84,2.84,0,0,0,1.64.43,3,3,0,0,0,1.69-.43,1.26,1.26,0,0,0,.63-1.06,1.11,1.11,0,0,0-.41-.89,2.85,2.85,0,0,0-1.27-.53l-2.12-.45a5,5,0,0,1-2.65-1.26A3.06,3.06,0,0,1,312,195a3.2,3.2,0,0,1,.62-2,4.17,4.17,0,0,1,1.78-1.31,6.93,6.93,0,0,1,2.63-.47,5.63,5.63,0,0,1,3.45.94A3.92,3.92,0,0,1,322,194.66Z"/><path class="cls-3" d="M329.59,204.06a6.36,6.36,0,0,1-3.23-.78,5.16,5.16,0,0,1-2.09-2.22,8.21,8.21,0,0,1,0-6.77,5.53,5.53,0,0,1,2.06-2.27,5.72,5.72,0,0,1,3.1-.82,6.52,6.52,0,0,1,2.18.37,5.18,5.18,0,0,1,1.82,1.14,5.4,5.4,0,0,1,1.24,2,8,8,0,0,1,.45,2.83v.89h-10.2v-2h7.39a3.21,3.21,0,0,0-.36-1.51,2.7,2.7,0,0,0-1-1,2.83,2.83,0,0,0-1.48-.38,2.88,2.88,0,0,0-1.58.43,3.05,3.05,0,0,0-1.06,1.14,3.21,3.21,0,0,0-.38,1.53v1.73a3.93,3.93,0,0,0,.4,1.86,2.78,2.78,0,0,0,1.11,1.19,3.62,3.62,0,0,0,2.83.22,2.58,2.58,0,0,0,.9-.54,2.24,2.24,0,0,0,.57-.88l2.74.31a4.29,4.29,0,0,1-1,1.89,4.74,4.74,0,0,1-1.86,1.25A6.89,6.89,0,0,1,329.59,204.06Z"/><path class="cls-3" d="M106.67,434.87v32.57h-5.9V440.61h-.19L93,445.48v-5.41l8.09-5.2Z"/><path class="cls-3" d="M126.9,434.87v32.57H121V440.61h-.19l-7.61,4.87v-5.41l8.09-5.2Z"/><path class="cls-3" d="M133.88,467.44v-4.26l11.31-11.09q1.62-1.63,2.7-2.91a10.6,10.6,0,0,0,1.62-2.46,6.1,6.1,0,0,0,.54-2.54,4.81,4.81,0,0,0-.7-2.65,4.56,4.56,0,0,0-1.92-1.71,6.24,6.24,0,0,0-2.78-.6,5.71,5.71,0,0,0-2.82.66,4.56,4.56,0,0,0-1.86,1.86,6,6,0,0,0-.66,2.88h-5.62a10.08,10.08,0,0,1,1.42-5.39,9.41,9.41,0,0,1,3.9-3.54,12.51,12.51,0,0,1,5.72-1.26,12.91,12.91,0,0,1,5.75,1.22,9.47,9.47,0,0,1,3.86,3.36,8.73,8.73,0,0,1,1.37,4.86,9.65,9.65,0,0,1-.7,3.6,15.25,15.25,0,0,1-2.45,3.91,64,64,0,0,1-4.92,5.2l-5.61,5.7v.23h14.18v4.93Z"/><path class="cls-3" d="M172.1,467.88a14.85,14.85,0,0,1-6.1-1.18,10.14,10.14,0,0,1-4.21-3.27,8.53,8.53,0,0,1-1.63-4.85h6a4,4,0,0,0,.88,2.3,5.2,5.2,0,0,0,2.11,1.52,7.77,7.77,0,0,0,3,.54,7.39,7.39,0,0,0,3.1-.62,4.91,4.91,0,0,0,2.11-1.7,4.26,4.26,0,0,0,.75-2.53,4.38,4.38,0,0,0-.76-2.61,5.1,5.1,0,0,0-2.25-1.76,8.78,8.78,0,0,0-3.54-.64h-2.88v-4.55h2.88a6.92,6.92,0,0,0,3-.59,4.65,4.65,0,0,0,2-1.66,4.19,4.19,0,0,0,.72-2.49,4.38,4.38,0,0,0-.61-2.4,4.23,4.23,0,0,0-1.77-1.6,5.86,5.86,0,0,0-2.66-.57,7,7,0,0,0-2.77.54,5.06,5.06,0,0,0-2,1.53,3.92,3.92,0,0,0-.82,2.36h-5.68a8.27,8.27,0,0,1,1.58-4.81,10.23,10.23,0,0,1,4.06-3.24,13.52,13.52,0,0,1,5.71-1.17,12.47,12.47,0,0,1,5.67,1.22,9.37,9.37,0,0,1,3.73,3.26,8.21,8.21,0,0,1,1.32,4.53,6.66,6.66,0,0,1-1.62,4.61,7.58,7.58,0,0,1-4.27,2.44v.25a8.32,8.32,0,0,1,5.27,2.54,7.3,7.3,0,0,1,1.83,5.11,8.2,8.2,0,0,1-1.55,4.89,10.51,10.51,0,0,1-4.27,3.38A15,15,0,0,1,172.1,467.88Z"/><path class="cls-3" d="M199.61,467.88a13.1,13.1,0,0,1-5.7-1.2,10,10,0,0,1-4-3.3,8.69,8.69,0,0,1-1.56-4.8h5.72a4.48,4.48,0,0,0,1.73,3.27,5.87,5.87,0,0,0,3.79,1.26,6,6,0,0,0,3.08-.79,5.73,5.73,0,0,0,2.13-2.21,6.48,6.48,0,0,0,.76-3.23,6.65,6.65,0,0,0-.77-3.28,6,6,0,0,0-2.18-2.25,6.22,6.22,0,0,0-3.18-.81,7.22,7.22,0,0,0-2.88.54,5.82,5.82,0,0,0-2.24,1.46l-5.33-.88,1.7-16.79h18.89v4.93h-14l-.93,8.64h.19a6.81,6.81,0,0,1,2.56-1.78A9.13,9.13,0,0,1,201,446a10.06,10.06,0,0,1,5.28,1.39,9.89,9.89,0,0,1,3.66,3.82,11.38,11.38,0,0,1,1.33,5.57,11.08,11.08,0,0,1-1.48,5.74,10.67,10.67,0,0,1-4.12,4A12.48,12.48,0,0,1,199.61,467.88Z"/><circle class="cls-4" cx="208.28" cy="250.89" r="27.76"/><rect class="cls-4" x="253.99" y="240.07" width="114.51" height="25.83"/><circle class="cls-4" cx="220.19" cy="321.9" r="23.91"/><rect class="cls-4" x="259.55" y="312.58" width="98.62" height="22.25"/><path class="cls-3" d="M75.36,501v-2.52H88.61V501H83.48V515h-3V501Z"/><path class="cls-3" d="M89.07,515V502.58h2.84v2.07H92A3.13,3.13,0,0,1,93.21,503a3.25,3.25,0,0,1,1.91-.59l.54,0a3,3,0,0,1,.51.06v2.7a3.91,3.91,0,0,0-.59-.12,6.78,6.78,0,0,0-.77-.05,3.06,3.06,0,0,0-1.44.34A2.62,2.62,0,0,0,92,507.71V515Z"/><path class="cls-3" d="M100.81,515.28a5.19,5.19,0,0,1-2.13-.42,3.53,3.53,0,0,1-1.49-1.26,3.74,3.74,0,0,1-.55-2.06,3.54,3.54,0,0,1,.39-1.75,3.13,3.13,0,0,1,1.07-1.1,5.64,5.64,0,0,1,1.52-.63,13.88,13.88,0,0,1,1.75-.31c.73-.07,1.32-.14,1.78-.21a2.43,2.43,0,0,0,1-.29.68.68,0,0,0,.31-.62v-.05a1.85,1.85,0,0,0-.54-1.42,2.24,2.24,0,0,0-1.57-.5,2.79,2.79,0,0,0-1.7.47,2.41,2.41,0,0,0-.85,1.11l-2.74-.39a4.45,4.45,0,0,1,1.07-1.9,4.84,4.84,0,0,1,1.82-1.15,7,7,0,0,1,2.39-.38,7.75,7.75,0,0,1,1.79.21,5.14,5.14,0,0,1,1.63.69,3.59,3.59,0,0,1,1.19,1.31,4.29,4.29,0,0,1,.45,2.07V515h-2.82v-1.71h-.1a3.53,3.53,0,0,1-2,1.69A4.85,4.85,0,0,1,100.81,515.28Zm.76-2.15a3.16,3.16,0,0,0,1.54-.36,2.57,2.57,0,0,0,1-.93,2.49,2.49,0,0,0,.35-1.28V509.1a1.63,1.63,0,0,1-.47.21c-.21.06-.46.12-.73.17l-.8.13-.69.1a4.53,4.53,0,0,0-1.18.29,2,2,0,0,0-.82.56,1.4,1.4,0,0,0-.3.93,1.38,1.38,0,0,0,.6,1.22A2.51,2.51,0,0,0,101.57,513.13Z"/><path class="cls-3" d="M111.16,500.81a1.65,1.65,0,0,1-1.2-.47,1.45,1.45,0,0,1-.5-1.12,1.47,1.47,0,0,1,.5-1.13,1.77,1.77,0,0,1,2.4,0,1.5,1.5,0,0,1,.5,1.13,1.48,1.48,0,0,1-.5,1.12A1.68,1.68,0,0,1,111.16,500.81ZM109.68,515V502.58h2.94V515Z"/><path class="cls-3" d="M117.91,498.43V515H115v-16.6Z"/><path class="cls-3" d="M130.11,505.87l-2.68.29a2.2,2.2,0,0,0-.39-.76,2.1,2.1,0,0,0-.75-.58,3.14,3.14,0,0,0-2.69.18,1.17,1.17,0,0,0-.61,1,1.09,1.09,0,0,0,.4.89,3.46,3.46,0,0,0,1.36.56l2.12.45a5.33,5.33,0,0,1,2.63,1.21,2.84,2.84,0,0,1,.87,2.16,3.32,3.32,0,0,1-.68,2.07,4.38,4.38,0,0,1-1.88,1.4,7,7,0,0,1-2.76.51,6.31,6.31,0,0,1-3.68-1,3.83,3.83,0,0,1-1.66-2.67l2.86-.28a2,2,0,0,0,.83,1.27,2.85,2.85,0,0,0,1.65.43,3,3,0,0,0,1.68-.43,1.26,1.26,0,0,0,.64-1.06,1.1,1.1,0,0,0-.41-.88,3,3,0,0,0-1.27-.54l-2.13-.44a5,5,0,0,1-2.65-1.27,3.06,3.06,0,0,1-.85-2.25,3.12,3.12,0,0,1,.63-2,4,4,0,0,1,1.77-1.32,7,7,0,0,1,2.64-.46,5.74,5.74,0,0,1,3.45.93A3.92,3.92,0,0,1,130.11,505.87Z"/><path class="cls-3" d="M147,505.87l-2.68.29a2.39,2.39,0,0,0-.39-.76,2.1,2.1,0,0,0-.75-.58,2.86,2.86,0,0,0-1.16-.22,2.81,2.81,0,0,0-1.53.4,1.17,1.17,0,0,0-.61,1,1.06,1.06,0,0,0,.4.89,3.46,3.46,0,0,0,1.36.56l2.12.45a5.33,5.33,0,0,1,2.63,1.21,2.84,2.84,0,0,1,.87,2.16,3.32,3.32,0,0,1-.68,2.07,4.38,4.38,0,0,1-1.88,1.4,7,7,0,0,1-2.76.51,6.31,6.31,0,0,1-3.68-1,3.83,3.83,0,0,1-1.66-2.67l2.86-.28a2,2,0,0,0,.83,1.27,2.85,2.85,0,0,0,1.65.43,3,3,0,0,0,1.68-.43,1.25,1.25,0,0,0,.63-1.06,1.08,1.08,0,0,0-.41-.88,2.85,2.85,0,0,0-1.26-.54l-2.13-.44a5,5,0,0,1-2.65-1.27,3.06,3.06,0,0,1-.85-2.25,3.12,3.12,0,0,1,.63-2,4,4,0,0,1,1.77-1.32,6.94,6.94,0,0,1,2.63-.46,5.7,5.7,0,0,1,3.45.93A3.93,3.93,0,0,1,147,505.87Z"/><path class="cls-3" d="M155.23,502.58v2.27h-7.16v-2.27Zm-5.39-3h2.94v11.7a1.84,1.84,0,0,0,.18.9,1,1,0,0,0,.48.43,2,2,0,0,0,.67.11,2.6,2.6,0,0,0,.5,0l.36-.07.49,2.29a6.54,6.54,0,0,1-.67.18,6,6,0,0,1-1.06.11,4.85,4.85,0,0,1-2-.33,3,3,0,0,1-1.4-1.15,3.49,3.49,0,0,1-.51-2Z"/><path class="cls-3" d="M165,509.79v-7.21h2.93V515h-2.84v-2.21h-.13a3.73,3.73,0,0,1-1.39,1.71,4.05,4.05,0,0,1-2.36.66,4.22,4.22,0,0,1-2.16-.54,3.72,3.72,0,0,1-1.46-1.6,5.51,5.51,0,0,1-.53-2.54v-7.93H160v7.47a2.65,2.65,0,0,0,.65,1.88,2.2,2.2,0,0,0,1.71.7,2.66,2.66,0,0,0,1.25-.31,2.53,2.53,0,0,0,1-1A2.85,2.85,0,0,0,165,509.79Z"/><path class="cls-3" d="M174.88,515.25a4.73,4.73,0,0,1-2.63-.75,5.24,5.24,0,0,1-1.83-2.19,8.16,8.16,0,0,1-.68-3.49,8.08,8.08,0,0,1,.69-3.51,5.07,5.07,0,0,1,1.85-2.16,4.8,4.8,0,0,1,2.61-.73,4,4,0,0,1,1.8.36,3.48,3.48,0,0,1,1.11.89,5.86,5.86,0,0,1,.65,1h.12v-6.21h2.94V515h-2.89v-2h-.17a5.35,5.35,0,0,1-.66,1,3.5,3.5,0,0,1-1.14.86A3.87,3.87,0,0,1,174.88,515.25Zm.82-2.41a2.58,2.58,0,0,0,1.59-.5,3.11,3.11,0,0,0,1-1.42,5.93,5.93,0,0,0,.34-2.12,6,6,0,0,0-.33-2.09,3.09,3.09,0,0,0-1-1.39,2.59,2.59,0,0,0-1.6-.5,2.54,2.54,0,0,0-1.64.52,3.06,3.06,0,0,0-1,1.41,5.92,5.92,0,0,0-.33,2.05,6.15,6.15,0,0,0,.33,2.09,3.27,3.27,0,0,0,1,1.43A2.53,2.53,0,0,0,175.7,512.84Z"/><path class="cls-3" d="M189.5,515.28a6.36,6.36,0,0,1-3.23-.79,5.22,5.22,0,0,1-2.09-2.22,7.37,7.37,0,0,1-.73-3.39,7.54,7.54,0,0,1,.73-3.38,5.53,5.53,0,0,1,2.06-2.27,5.84,5.84,0,0,1,3.11-.81,6.5,6.5,0,0,1,2.17.36,5.09,5.09,0,0,1,1.82,1.14,5.35,5.35,0,0,1,1.24,2,7.77,7.77,0,0,1,.46,2.83v.9H184.83v-2h7.39a3.08,3.08,0,0,0-.36-1.5,2.71,2.71,0,0,0-1-1.05,2.88,2.88,0,0,0-1.48-.38,2.92,2.92,0,0,0-1.59.44,3,3,0,0,0-1.05,1.13,3.23,3.23,0,0,0-.39,1.54v1.73a4,4,0,0,0,.4,1.86,2.75,2.75,0,0,0,1.11,1.18,3.31,3.31,0,0,0,1.67.41,3.53,3.53,0,0,0,1.16-.18,2.64,2.64,0,0,0,.9-.54,2.28,2.28,0,0,0,.57-.89l2.75.31a4.39,4.39,0,0,1-1,1.9,4.79,4.79,0,0,1-1.85,1.24A6.91,6.91,0,0,1,189.5,515.28Z"/><path class="cls-3" d="M199.79,507.73V515h-2.93V502.58h2.8v2.11h.15a3.53,3.53,0,0,1,1.37-1.66,4.2,4.2,0,0,1,2.34-.61,4.41,4.41,0,0,1,2.25.55,3.76,3.76,0,0,1,1.49,1.59,5.51,5.51,0,0,1,.53,2.54V515h-2.94v-7.47a2.79,2.79,0,0,0-.64-2,2.3,2.3,0,0,0-1.78-.7,2.78,2.78,0,0,0-1.37.33,2.35,2.35,0,0,0-.93,1A3.17,3.17,0,0,0,199.79,507.73Z"/><path class="cls-3" d="M216.34,502.58v2.27h-7.16v-2.27Zm-5.4-3h2.94v11.7a1.84,1.84,0,0,0,.18.9,1,1,0,0,0,.48.43,2,2,0,0,0,.67.11,2.78,2.78,0,0,0,.51,0l.35-.07.49,2.29a5.54,5.54,0,0,1-1.72.29,4.87,4.87,0,0,1-2-.33,3,3,0,0,1-1.4-1.15,3.49,3.49,0,0,1-.51-2Z"/><path class="cls-3" d="M227.79,505.87l-2.68.29a2.2,2.2,0,0,0-.39-.76,2.1,2.1,0,0,0-.75-.58,3.14,3.14,0,0,0-2.69.18,1.17,1.17,0,0,0-.61,1,1.09,1.09,0,0,0,.4.89,3.46,3.46,0,0,0,1.36.56l2.12.45a5.33,5.33,0,0,1,2.63,1.21,2.84,2.84,0,0,1,.87,2.16,3.32,3.32,0,0,1-.68,2.07,4.38,4.38,0,0,1-1.88,1.4,7,7,0,0,1-2.75.51,6.32,6.32,0,0,1-3.69-1,3.83,3.83,0,0,1-1.66-2.67l2.86-.28a2,2,0,0,0,.83,1.27,2.85,2.85,0,0,0,1.65.43,2.93,2.93,0,0,0,1.68-.43,1.26,1.26,0,0,0,.64-1.06,1.1,1.1,0,0,0-.41-.88,3,3,0,0,0-1.27-.54l-2.13-.44a5,5,0,0,1-2.65-1.27,3.1,3.1,0,0,1-.85-2.25,3.24,3.24,0,0,1,.63-2,4.05,4.05,0,0,1,1.78-1.32,6.87,6.87,0,0,1,2.63-.46,5.7,5.7,0,0,1,3.45.93A3.92,3.92,0,0,1,227.79,505.87Z"/><path class="cls-3" d="M112.55,542.68a5.19,5.19,0,0,1-2.13-.42,3.47,3.47,0,0,1-1.49-1.26,3.66,3.66,0,0,1-.55-2.06,3.51,3.51,0,0,1,.39-1.75,3,3,0,0,1,1.06-1.1,5.92,5.92,0,0,1,1.52-.63,14,14,0,0,1,1.76-.31c.73-.08,1.32-.14,1.77-.21a2.6,2.6,0,0,0,1-.29.7.7,0,0,0,.31-.62v0a1.85,1.85,0,0,0-.54-1.42,2.28,2.28,0,0,0-1.57-.5,2.82,2.82,0,0,0-1.71.47,2.28,2.28,0,0,0-.84,1.11l-2.74-.39a4.35,4.35,0,0,1,1.07-1.9,4.68,4.68,0,0,1,1.82-1.15,7,7,0,0,1,2.38-.38,7.9,7.9,0,0,1,1.8.21,5.24,5.24,0,0,1,1.63.69,3.57,3.57,0,0,1,1.18,1.31,4.29,4.29,0,0,1,.45,2.07v8.33H116.3v-1.71h-.1a3.21,3.21,0,0,1-.75,1,3.55,3.55,0,0,1-1.2.72A4.89,4.89,0,0,1,112.55,542.68Zm.76-2.15a3.09,3.09,0,0,0,1.53-.36,2.44,2.44,0,0,0,1-.93,2.4,2.4,0,0,0,.36-1.28V536.5a1.77,1.77,0,0,1-.47.21c-.22.06-.46.12-.73.17l-.81.13-.69.09a4.88,4.88,0,0,0-1.17.3,1.9,1.9,0,0,0-.82.56,1.57,1.57,0,0,0,.29,2.15A2.56,2.56,0,0,0,113.31,540.53Z"/><path class="cls-3" d="M131.26,533.27l-2.67.29a2.39,2.39,0,0,0-.39-.76,2.1,2.1,0,0,0-.75-.58,2.86,2.86,0,0,0-1.16-.22,2.81,2.81,0,0,0-1.53.4,1.15,1.15,0,0,0-.61,1,1.06,1.06,0,0,0,.4.89,3.46,3.46,0,0,0,1.36.56l2.12.45a5.38,5.38,0,0,1,2.63,1.21,2.84,2.84,0,0,1,.87,2.16,3.32,3.32,0,0,1-.68,2.07,4.38,4.38,0,0,1-1.88,1.4,7,7,0,0,1-2.76.51,6.38,6.38,0,0,1-3.68-1,3.83,3.83,0,0,1-1.66-2.68l2.86-.27a2,2,0,0,0,.83,1.27,2.84,2.84,0,0,0,1.64.43,3,3,0,0,0,1.69-.43,1.25,1.25,0,0,0,.63-1.06,1.08,1.08,0,0,0-.41-.88,2.85,2.85,0,0,0-1.26-.54l-2.13-.45a4.91,4.91,0,0,1-2.65-1.26,3.06,3.06,0,0,1-.85-2.25,3.16,3.16,0,0,1,.63-2,4.08,4.08,0,0,1,1.77-1.31,6.94,6.94,0,0,1,2.63-.46,5.7,5.7,0,0,1,3.45.93A3.92,3.92,0,0,1,131.26,533.27Z"/><path class="cls-3" d="M143.14,533.27l-2.68.29a2.2,2.2,0,0,0-.39-.76,2.1,2.1,0,0,0-.75-.58,3.14,3.14,0,0,0-2.69.18,1.17,1.17,0,0,0-.61,1,1.09,1.09,0,0,0,.4.89,3.53,3.53,0,0,0,1.36.56l2.12.45a5.33,5.33,0,0,1,2.63,1.21,2.88,2.88,0,0,1,.88,2.16,3.39,3.39,0,0,1-.69,2.07,4.38,4.38,0,0,1-1.88,1.4,7,7,0,0,1-2.75.51,6.34,6.34,0,0,1-3.68-1,3.84,3.84,0,0,1-1.67-2.68l2.87-.27a2,2,0,0,0,.82,1.27,2.85,2.85,0,0,0,1.65.43,2.91,2.91,0,0,0,1.68-.43,1.26,1.26,0,0,0,.64-1.06,1.1,1.1,0,0,0-.41-.88,3,3,0,0,0-1.27-.54l-2.13-.45a5,5,0,0,1-2.65-1.26,3.1,3.1,0,0,1-.85-2.25,3.29,3.29,0,0,1,.63-2,4.11,4.11,0,0,1,1.78-1.31,6.87,6.87,0,0,1,2.63-.46,5.7,5.7,0,0,1,3.45.93A3.92,3.92,0,0,1,143.14,533.27Z"/><path class="cls-3" d="M146.64,528.21a1.69,1.69,0,0,1-1.2-.47,1.48,1.48,0,0,1-.5-1.12,1.5,1.5,0,0,1,.5-1.13,1.73,1.73,0,0,1,1.2-.47,1.69,1.69,0,0,1,1.2.47,1.5,1.5,0,0,1,.5,1.13,1.48,1.48,0,0,1-.5,1.12A1.69,1.69,0,0,1,146.64,528.21Zm-1.47,14.22V530h2.93v12.45Z"/><path class="cls-3" d="M160.3,533.27l-2.68.29a2,2,0,0,0-.39-.76,2.1,2.1,0,0,0-.75-.58,2.81,2.81,0,0,0-1.15-.22,2.87,2.87,0,0,0-1.54.4,1.19,1.19,0,0,0-.61,1,1.12,1.12,0,0,0,.4.89,3.6,3.6,0,0,0,1.36.56l2.12.45a5.42,5.42,0,0,1,2.64,1.21,2.91,2.91,0,0,1,.87,2.16,3.39,3.39,0,0,1-.69,2.07,4.32,4.32,0,0,1-1.88,1.4,7,7,0,0,1-2.75.51,6.36,6.36,0,0,1-3.68-1,3.79,3.79,0,0,1-1.66-2.68l2.86-.27a2,2,0,0,0,.82,1.27,2.87,2.87,0,0,0,1.65.43,2.91,2.91,0,0,0,1.68-.43,1.24,1.24,0,0,0,.64-1.06,1.1,1.1,0,0,0-.41-.88,2.9,2.9,0,0,0-1.27-.54l-2.12-.45a4.88,4.88,0,0,1-2.65-1.26,3.07,3.07,0,0,1-.86-2.25,3.29,3.29,0,0,1,.63-2,4.17,4.17,0,0,1,1.78-1.31,6.9,6.9,0,0,1,2.63-.46,5.7,5.7,0,0,1,3.45.93A3.92,3.92,0,0,1,160.3,533.27Z"/><path class="cls-3" d="M168.55,530v2.27h-7.16V530Zm-5.39-3h2.93v11.7a1.84,1.84,0,0,0,.18.9,1,1,0,0,0,.49.43,2,2,0,0,0,.66.11,2.71,2.71,0,0,0,.51,0l.35-.07.5,2.29-.67.18a6.07,6.07,0,0,1-1.06.11,4.87,4.87,0,0,1-2-.33,3.1,3.1,0,0,1-1.4-1.15,3.41,3.41,0,0,1-.5-2Z"/><path class="cls-3" d="M175.73,542.68a6.36,6.36,0,0,1-3.23-.79,5.22,5.22,0,0,1-2.09-2.22,8.21,8.21,0,0,1,0-6.77,5.53,5.53,0,0,1,2.06-2.27,5.8,5.8,0,0,1,3.1-.81,6.52,6.52,0,0,1,2.18.36,5.18,5.18,0,0,1,1.82,1.14,5.48,5.48,0,0,1,1.24,2,8,8,0,0,1,.46,2.83v.9H171.06v-2h7.39a3.15,3.15,0,0,0-.36-1.51,2.7,2.7,0,0,0-1-1,2.83,2.83,0,0,0-1.48-.38,2.89,2.89,0,0,0-1.58.44,2.93,2.93,0,0,0-1.05,1.13,3.23,3.23,0,0,0-.39,1.54v1.72a4,4,0,0,0,.4,1.87A2.75,2.75,0,0,0,174.1,540a3.31,3.31,0,0,0,1.67.41,3.53,3.53,0,0,0,1.16-.18,2.92,2.92,0,0,0,.9-.54,2.28,2.28,0,0,0,.57-.89l2.74.31a4.18,4.18,0,0,1-1,1.89,4.77,4.77,0,0,1-1.85,1.25A6.94,6.94,0,0,1,175.73,542.68Z"/><path class="cls-3" d="M187.71,542.65a4.73,4.73,0,0,1-2.63-.75,5.24,5.24,0,0,1-1.83-2.19,8.16,8.16,0,0,1-.68-3.49,8.08,8.08,0,0,1,.69-3.51,5.07,5.07,0,0,1,1.85-2.16,4.79,4.79,0,0,1,2.6-.73,4,4,0,0,1,1.8.36,3.4,3.4,0,0,1,1.12.89,4.89,4.89,0,0,1,.64,1h.13v-6.21h2.94v16.6h-2.89v-2h-.18a5.25,5.25,0,0,1-.65,1,3.5,3.5,0,0,1-1.14.86A3.87,3.87,0,0,1,187.71,542.65Zm.82-2.41a2.53,2.53,0,0,0,1.58-.5,3.13,3.13,0,0,0,1-1.42,5.93,5.93,0,0,0,.34-2.12,6.09,6.09,0,0,0-.33-2.1,3.12,3.12,0,0,0-1-1.38,2.85,2.85,0,0,0-3.24,0,3.11,3.11,0,0,0-1,1.41,6.66,6.66,0,0,0,0,4.14,3.25,3.25,0,0,0,1,1.44A2.53,2.53,0,0,0,188.53,540.24Z"/><path class="cls-5" d="M123.3,401.83c-.75-5.48,2.65-14.32,4.24-26.2.28-2.13,11.32-4.37,16.45-4.37,1.34,0,2.44,6,2.11,8.13-.24,1.52-2.39,1.12-2.39,1.12a2.18,2.18,0,0,1-2.87,1.24c-.63,1.73-2.59.92-2.59.92a2,2,0,0,1-2.6.82c-1.61,7,1.38,6.38,3.57,17,0,0,.61-.11,2.33-3.57,6.94-14,31.32-9.52,29.87,5.46-.32,3.35,3.19,8.79-9.91,12.89-10.4,3.25-23.19-3-23.19-3-4.36,1.34-12.82,1.25-13.07-2C125,406.55,123.68,404.65,123.3,401.83Z"/><path class="cls-6" d="M171.42,402.36a11,11,0,0,0-2.63-8.6,11.32,11.32,0,0,1,1.47,7c-.32,3.35,3.19,8.8-9.92,12.89-10.4,3.25-23.19-3-23.19-3-3.4,1.05-9.37,1.23-11.89-.28.33,3.13,8.74,3.19,13.06,1.87,0,0,12.79,6.23,23.19,3C174.61,411.15,171.1,405.71,171.42,402.36Z"/><path class="cls-6" d="M134.7,383.4c-2,8.24,1.26,7.89,3.46,18.34l1.16-1.2c-1.61-10.46-4.39-9.2-3.71-17A2.71,2.71,0,0,1,134.7,383.4Z"/><path class="cls-6" d="M145.17,406.89c6.71,2.51,16.8-.05,22.55-2.7C165.14,410.2,151.82,413.41,145.17,406.89Z"/><path class="cls-6" d="M141.83,373.54a1.54,1.54,0,0,0-2.09-.54C139.82,372.06,142.2,371.33,141.83,373.54Z"/><path class="cls-6" d="M146.74,377a10.22,10.22,0,0,0-1.9-5,13.17,13.17,0,0,1,.87,4.73c0,.72.17,3.3-1.11,3-.79-.21-.81-.88-1-1.58a10.1,10.1,0,0,1-.89-3.5,10.47,10.47,0,0,0,.19,3.65c.08.66.57,2.47-.31,2.72a2.06,2.06,0,0,1-1.46-.42c-.15-.09-.26-.74-.32-.93a10.75,10.75,0,0,1-.89-3.61,10,10,0,0,0,.09,3.45c.06.68.42,2.15-.4,2.5s-1.08-.65-1.25-1.23a12.08,12.08,0,0,1-.83-3.36c-.32,1.37.06,3,.12,4.37,0,.69-1.53,1.32-2.12.88-.92-.68-1.07-2.28-1.17-3.32.27.35.67.8,1.16.75a8.15,8.15,0,0,1-.89-1.77c-.26-.44-.79-1.52-1.41-1.53a6.48,6.48,0,0,1,.54,1.65c-.25.44-.5.88-.78,1.3s-.94,1.48-1.5,1.14-.8-1.38-1-2c0,.78,0,2,.81,2.51s1.59-.26,2.08-.77c.17,1.65.86,3.8,2.92,3.66a3.65,3.65,0,0,0,1.25-.35c.33-.15.69-.53,1-.43a2.29,2.29,0,0,0,2.41-.59c.29-.31.21-.51.64-.41a2.73,2.73,0,0,0,1.39,0,1.93,1.93,0,0,0,1-.62,1.74,1.74,0,0,0,.34-.55c.14-.32.3-.15.62-.16,2.1-.08,2-2.67,1.83-4.17C146.53,375.23,146.8,377.48,146.74,377Z"/><path class="cls-6" d="M144.78,372.43a1.54,1.54,0,0,0-2.1-.53C142.77,371,145.15,370.23,144.78,372.43Z"/><path class="cls-6" d="M139.48,374.76a1.55,1.55,0,0,0-2.1-.54C137.46,373.28,139.85,372.55,139.48,374.76Z"/><path class="cls-6" d="M136.76,376a1.54,1.54,0,0,0-2.1-.53C134.74,374.55,137.12,373.83,136.76,376Z"/><rect class="cls-7" width="199.27" height="199.45" rx="66.09"/><path class="cls-3" d="M35,149.56v7.3H32V140.25h2.87v6.27H35a3.67,3.67,0,0,1,1.36-1.67,4.23,4.23,0,0,1,2.35-.61,4.45,4.45,0,0,1,2.26.55,3.73,3.73,0,0,1,1.5,1.59,5.6,5.6,0,0,1,.53,2.55v7.93H40.09v-7.48a2.76,2.76,0,0,0-.64-1.95,2.33,2.33,0,0,0-1.81-.71,2.89,2.89,0,0,0-1.39.34,2.4,2.4,0,0,0-1,1A3.15,3.15,0,0,0,35,149.56Z"/><path class="cls-3" d="M50.78,157.1a6,6,0,0,1-3.16-.8,5.43,5.43,0,0,1-2.07-2.25,8.07,8.07,0,0,1,0-6.75,5.37,5.37,0,0,1,2.07-2.25,6.57,6.57,0,0,1,6.32,0A5.33,5.33,0,0,1,56,147.3a8.17,8.17,0,0,1,0,6.75,5.39,5.39,0,0,1-2.08,2.25A6,6,0,0,1,50.78,157.1Zm0-2.35a2.47,2.47,0,0,0,1.65-.55,3.19,3.19,0,0,0,1-1.47,6.32,6.32,0,0,0,.32-2.06,6.42,6.42,0,0,0-.32-2.07,3.28,3.28,0,0,0-1-1.48,2.47,2.47,0,0,0-1.65-.55,2.52,2.52,0,0,0-1.68.55,3.28,3.28,0,0,0-1,1.48,6.16,6.16,0,0,0-.33,2.07,6.06,6.06,0,0,0,.33,2.06,3.19,3.19,0,0,0,1,1.47A2.52,2.52,0,0,0,50.8,154.75Z"/><path class="cls-3" d="M66.51,151.62v-7.21h2.93v12.45H66.59v-2.21h-.13a3.82,3.82,0,0,1-1.38,1.71,4.07,4.07,0,0,1-2.36.66,4.13,4.13,0,0,1-2.16-.55,3.72,3.72,0,0,1-1.47-1.59,5.64,5.64,0,0,1-.52-2.54v-7.93H61.5v7.47a2.65,2.65,0,0,0,.65,1.88,2.2,2.2,0,0,0,1.7.7,2.68,2.68,0,0,0,1.26-.32,2.5,2.5,0,0,0,1-.94A3,3,0,0,0,66.51,151.62Z"/><path class="cls-3" d="M71.79,156.86V144.41h2.85v2.07h.13a3.19,3.19,0,0,1,1.17-1.67,3.23,3.23,0,0,1,1.9-.58,5.34,5.34,0,0,1,.55,0,3.25,3.25,0,0,1,.51.06V147a4.21,4.21,0,0,0-.59-.12,7.09,7.09,0,0,0-.77,0,3,3,0,0,0-1.44.34,2.5,2.5,0,0,0-1,1,2.59,2.59,0,0,0-.37,1.4v7.32Z"/><path class="cls-3" d="M90,147.7l-2.67.29a2.23,2.23,0,0,0-.4-.76,1.94,1.94,0,0,0-.75-.58,2.77,2.77,0,0,0-1.15-.22,2.72,2.72,0,0,0-1.53.4,1.17,1.17,0,0,0-.62,1,1.06,1.06,0,0,0,.41.88,3.19,3.19,0,0,0,1.35.56l2.13.46A5.29,5.29,0,0,1,89.43,151a2.88,2.88,0,0,1,.87,2.16,3.36,3.36,0,0,1-.68,2.07,4.52,4.52,0,0,1-1.88,1.4,7.19,7.19,0,0,1-2.76.5,6.38,6.38,0,0,1-3.68-1,3.83,3.83,0,0,1-1.66-2.68l2.86-.27a2,2,0,0,0,.83,1.27,2.84,2.84,0,0,0,1.64.43,3,3,0,0,0,1.69-.43,1.26,1.26,0,0,0,.63-1.06,1.11,1.11,0,0,0-.41-.89,2.85,2.85,0,0,0-1.27-.53l-2.12-.45a5,5,0,0,1-2.65-1.26A3.06,3.06,0,0,1,80,148a3.14,3.14,0,0,1,.63-2,4.08,4.08,0,0,1,1.77-1.31,6.93,6.93,0,0,1,2.63-.47,5.63,5.63,0,0,1,3.45.94A3.92,3.92,0,0,1,90,147.7Z"/><path class="cls-3" d="M101.69,157.08a4.66,4.66,0,0,1-2.63-.76,5.15,5.15,0,0,1-1.83-2.18,9.41,9.41,0,0,1,0-7A5.14,5.14,0,0,1,99.09,145a4.81,4.81,0,0,1,2.61-.74,3.94,3.94,0,0,1,1.8.37,3.5,3.5,0,0,1,1.12.89,5.38,5.38,0,0,1,.64,1h.12v-6.22h2.94v16.61h-2.88v-2h-.18a4.87,4.87,0,0,1-.66,1,3.53,3.53,0,0,1-1.14.86A3.87,3.87,0,0,1,101.69,157.08Zm.82-2.41a2.52,2.52,0,0,0,1.59-.51,3,3,0,0,0,1-1.41,6,6,0,0,0,.35-2.12,6.08,6.08,0,0,0-.34-2.1,3.12,3.12,0,0,0-1-1.38,2.85,2.85,0,0,0-3.24,0,3.06,3.06,0,0,0-1,1.41,6,6,0,0,0-.33,2.06,5.86,5.86,0,0,0,.34,2.08,3.16,3.16,0,0,0,1,1.44A2.55,2.55,0,0,0,102.51,154.67Z"/><path class="cls-3" d="M116.23,157.1a6,6,0,0,1-3.16-.8,5.43,5.43,0,0,1-2.07-2.25,8.07,8.07,0,0,1,0-6.75,5.37,5.37,0,0,1,2.07-2.25,6.57,6.57,0,0,1,6.32,0,5.25,5.25,0,0,1,2.07,2.25,8.07,8.07,0,0,1,0,6.75,5.3,5.3,0,0,1-2.07,2.25A6,6,0,0,1,116.23,157.1Zm0-2.35a2.47,2.47,0,0,0,1.65-.55,3.17,3.17,0,0,0,1-1.47,6.06,6.06,0,0,0,.33-2.06,6.16,6.16,0,0,0-.33-2.07,3.26,3.26,0,0,0-1-1.48,2.47,2.47,0,0,0-1.65-.55,2.56,2.56,0,0,0-1.69.55,3.34,3.34,0,0,0-1,1.48,6.16,6.16,0,0,0-.33,2.07,6.06,6.06,0,0,0,.33,2.06,3.25,3.25,0,0,0,1,1.47A2.56,2.56,0,0,0,116.25,154.75Z"/><path class="cls-3" d="M127,149.56v7.3H124V144.41h2.8v2.11H127a3.48,3.48,0,0,1,1.37-1.66,4.2,4.2,0,0,1,2.34-.62,4.52,4.52,0,0,1,2.25.55,3.73,3.73,0,0,1,1.49,1.6,5.48,5.48,0,0,1,.53,2.54v7.93H132v-7.48a2.78,2.78,0,0,0-.64-1.95,2.3,2.3,0,0,0-1.78-.71,2.78,2.78,0,0,0-1.37.34,2.35,2.35,0,0,0-.93,1A3.15,3.15,0,0,0,127,149.56Z"/><path class="cls-3" d="M140.86,157.11a5,5,0,0,1-2.13-.43,3.4,3.4,0,0,1-1.49-1.26,3.62,3.62,0,0,1-.55-2.06,3.5,3.5,0,0,1,.39-1.74,3,3,0,0,1,1.06-1.1,5.29,5.29,0,0,1,1.52-.63,12.43,12.43,0,0,1,1.76-.31l1.78-.21a2.6,2.6,0,0,0,1-.29.68.68,0,0,0,.31-.62v-.05A1.85,1.85,0,0,0,144,147a2.26,2.26,0,0,0-1.57-.5,2.79,2.79,0,0,0-1.7.47,2.32,2.32,0,0,0-.85,1.11l-2.74-.39a4.29,4.29,0,0,1,1.07-1.9,4.76,4.76,0,0,1,1.82-1.15,7,7,0,0,1,2.39-.39,7.81,7.81,0,0,1,1.79.21,5.16,5.16,0,0,1,1.63.7,3.59,3.59,0,0,1,1.19,1.31,4.27,4.27,0,0,1,.45,2.06v8.34h-2.82v-1.71h-.1a3.73,3.73,0,0,1-.75,1,3.6,3.6,0,0,1-1.21.72A4.85,4.85,0,0,1,140.86,157.11Zm.76-2.16a3.15,3.15,0,0,0,1.54-.35,2.64,2.64,0,0,0,1-.93,2.49,2.49,0,0,0,.35-1.28v-1.47a1.37,1.37,0,0,1-.47.22,6.15,6.15,0,0,1-.73.16c-.27,0-.54.1-.8.13l-.69.1a5.51,5.51,0,0,0-1.18.29,2.08,2.08,0,0,0-.82.57,1.57,1.57,0,0,0,.29,2.15A2.56,2.56,0,0,0,141.62,155Z"/><path class="cls-3" d="M156,144.41v2.27h-7.16v-2.27Zm-5.39-3h2.94v11.69a1.85,1.85,0,0,0,.18.91.89.89,0,0,0,.48.42,1.78,1.78,0,0,0,.67.12,3.75,3.75,0,0,0,.5,0l.36-.08.49,2.3-.67.18a6,6,0,0,1-1.06.11,4.69,4.69,0,0,1-2-.34,3,3,0,0,1-1.4-1.14,3.41,3.41,0,0,1-.51-2Z"/><path class="cls-3" d="M163.13,157.1a6.38,6.38,0,0,1-3.23-.78,5.22,5.22,0,0,1-2.09-2.22,7.49,7.49,0,0,1-.73-3.39,7.38,7.38,0,0,1,.74-3.38,5.51,5.51,0,0,1,2.05-2.27,5.75,5.75,0,0,1,3.11-.82,6.51,6.51,0,0,1,2.17.37,5.09,5.09,0,0,1,1.82,1.14,5.27,5.27,0,0,1,1.24,2,7.74,7.74,0,0,1,.46,2.83v.89H158.46v-2h7.4a3.21,3.21,0,0,0-.37-1.51,2.75,2.75,0,0,0-1-1,3.1,3.1,0,0,0-3.06.05,3,3,0,0,0-1.06,1.14,3.35,3.35,0,0,0-.39,1.54v1.72a4.06,4.06,0,0,0,.4,1.86,2.91,2.91,0,0,0,1.11,1.19,3.33,3.33,0,0,0,1.67.41,3.25,3.25,0,0,0,1.16-.19,2.41,2.41,0,0,0,.9-.54,2.15,2.15,0,0,0,.58-.88l2.74.31a4.3,4.3,0,0,1-1,1.89,4.7,4.7,0,0,1-1.85,1.25A6.91,6.91,0,0,1,163.13,157.1Z"/><path class="cls-3" d="M175.11,157.08a4.68,4.68,0,0,1-2.63-.76,5.15,5.15,0,0,1-1.83-2.18,9.41,9.41,0,0,1,0-7,5.09,5.09,0,0,1,1.86-2.16,4.75,4.75,0,0,1,2.6-.74,3.94,3.94,0,0,1,1.8.37,3.5,3.5,0,0,1,1.12.89,5.38,5.38,0,0,1,.64,1h.12v-6.22h2.94v16.61h-2.88v-2h-.18a4.87,4.87,0,0,1-.66,1,3.59,3.59,0,0,1-1.13.86A3.92,3.92,0,0,1,175.11,157.08Zm.82-2.41a2.52,2.52,0,0,0,1.59-.51,3.1,3.1,0,0,0,1-1.41,6.2,6.2,0,0,0,.34-2.12,6.08,6.08,0,0,0-.34-2.1,3,3,0,0,0-1-1.38,2.57,2.57,0,0,0-1.6-.5,2.61,2.61,0,0,0-1.64.51,3.06,3.06,0,0,0-1,1.41,6,6,0,0,0-.33,2.06,5.86,5.86,0,0,0,.34,2.08,3.16,3.16,0,0,0,1,1.44A2.55,2.55,0,0,0,175.93,154.67Z"/><path class="cls-8" d="M103.17,45.29c-1.61-.51-2.59-.7-2.59-1.55s1-1,2.59-1.54c8.7-2.46,11.17-8.75,11.17-19.35H82.26c0,10.6,2.46,16.88,11.16,19.34C95,42.7,96,42.9,96,43.74s-1,1-2.58,1.55C84.72,47.75,82.26,54,82.26,64.63h32.08C114.34,54,111.87,47.75,103.17,45.29Z"/><path class="cls-9" d="M101.79,45.29c-1.15-.51-1.85-.7-1.85-1.55s.7-1,1.85-1.54c6.25-2.47,6.89-8.75,6.89-19.35H87.91c0,10.6.65,16.88,6.89,19.34,1.16.51,1.86.71,1.86,1.55s-.7,1-1.86,1.55c-6.24,2.46-6.89,8.74-6.89,19.34h20.77C108.68,54,108,47.75,101.79,45.29Z"/><path class="cls-10" d="M99.24,64.63s-.55-17.81-.55-20.89c0-.83,1.57-2,2.3-2.42,3.06-1.76,7-5.26,7-8.89H88.61c0,3.63,3.94,7.13,7,8.89.72.42,2.3,1.59,2.3,2.42,0,3.16-.56,20.89-.56,20.89Z"/><path class="cls-11" d="M122.17,73.63a1.89,1.89,0,0,1-1.84,2H76.26a1.9,1.9,0,0,1-1.84-2V70.56a1.91,1.91,0,0,1,1.84-2h44.07a1.9,1.9,0,0,1,1.84,2v3.07Z"/><path class="cls-11" d="M116.2,22.06a.83.83,0,0,1-.87.79H81.27a.83.83,0,0,1-.88-.79V19.67a.84.84,0,0,1,.88-.8h34.06a.84.84,0,0,1,.87.8Z"/><path class="cls-12" d="M111.23,22.06a.74.74,0,0,1-.68.79H86a.74.74,0,0,1-.68-.79V19.67a.75.75,0,0,1,.68-.8h24.51a.75.75,0,0,1,.68.8v2.39Z"/><path class="cls-11" d="M116.2,67.82a.83.83,0,0,1-.87.79H81.27a.83.83,0,0,1-.88-.79V65.43a.84.84,0,0,1,.88-.8h34.06a.84.84,0,0,1,.87.8Z"/><path class="cls-11" d="M122.17,16.93a1.89,1.89,0,0,1-1.84,1.94H76.26a1.9,1.9,0,0,1-1.84-1.94V13.85a1.9,1.9,0,0,1,1.84-1.94h44.07a1.89,1.89,0,0,1,1.84,1.94v3.08Z"/><path class="cls-12" d="M116.2,16.93c0,1.07-.64,1.94-1.44,1.94H81.84c-.8,0-1.45-.87-1.45-1.94V13.85c0-1.07.65-1.94,1.45-1.94h32.92c.8,0,1.44.87,1.44,1.94Z"/><path class="cls-12" d="M116.2,73.63c0,1.08-.64,2-1.44,2H81.84c-.8,0-1.45-.87-1.45-2V70.56c0-1.07.65-2,1.45-2h32.92c.8,0,1.44.88,1.44,2Z"/><rect class="cls-13" x="78.4" y="18.87" width="0.99" height="49.74"/><rect class="cls-14" x="77.41" y="18.87" width="0.99" height="49.74"/><rect class="cls-13" x="118.19" y="18.87" width="0.99" height="49.74"/><rect class="cls-14" x="117.2" y="18.87" width="0.99" height="49.74"/><path class="cls-12" d="M111.23,67.82a.74.74,0,0,1-.68.79H86a.74.74,0,0,1-.68-.79V65.43a.75.75,0,0,1,.68-.8h24.51a.75.75,0,0,1,.68.8v2.39Z"/><path class="cls-3" d="M85.54,88.89a13.45,13.45,0,0,1,4.55.83,10.85,10.85,0,0,1,4,2.62,12.75,12.75,0,0,1,2.83,4.85,23.26,23.26,0,0,1,1,7.52,28.56,28.56,0,0,1-.9,7.5,16.77,16.77,0,0,1-2.56,5.57,11.27,11.27,0,0,1-4,3.47,11.57,11.57,0,0,1-5.29,1.19,11.8,11.8,0,0,1-5.46-1.21,10.27,10.27,0,0,1-3.84-3.3,10.55,10.55,0,0,1-1.8-4.81h5.81a5.37,5.37,0,0,0,1.82,3.08,5.24,5.24,0,0,0,3.47,1.14,5.81,5.81,0,0,0,5.22-2.94c1.21-2,1.82-4.69,1.82-8.18H92a8.1,8.1,0,0,1-2,2.41,8.9,8.9,0,0,1-2.8,1.55,10.14,10.14,0,0,1-3.32.54,9.86,9.86,0,0,1-5.15-1.36,10,10,0,0,1-3.62-3.76,11.16,11.16,0,0,1-1.32-5.48,11.32,11.32,0,0,1,1.47-5.76,10.64,10.64,0,0,1,4.11-4A12.32,12.32,0,0,1,85.54,88.89Zm0,4.77a5.72,5.72,0,0,0-3.09.85,6,6,0,0,0-2.16,2.27,6.47,6.47,0,0,0-.79,3.21,6.58,6.58,0,0,0,.77,3.17,6,6,0,0,0,7.61,2.58,6.08,6.08,0,0,0,1.94-1.38,6.41,6.41,0,0,0,1.29-2,6.07,6.07,0,0,0,.47-2.39,6.43,6.43,0,0,0-.78-3.13,6.25,6.25,0,0,0-2.15-2.3A5.65,5.65,0,0,0,85.55,93.66Z"/><path class="cls-3" d="M104.29,122.34a3.41,3.41,0,0,1-2.49-1,3.33,3.33,0,0,1-1-2.48,3.28,3.28,0,0,1,1-2.45,3.49,3.49,0,0,1,4.93,0,3.37,3.37,0,0,1,.55,4.21,3.76,3.76,0,0,1-1.27,1.27A3.31,3.31,0,0,1,104.29,122.34Z"/><path class="cls-3" d="M112.56,122l13.85-27.41v-.23H110.33V89.43h22.18v5L118.68,122Z"/></g></g></svg>